<mxfile host="65bd71144e">
    <diagram id="B-ycUu8k4Kfkc4uOZnFV" name="Page-1">
        <mxGraphModel dx="1454" dy="604" grid="1" gridSize="10" guides="1" tooltips="1" connect="1" arrows="1" fold="1" page="1" pageScale="1" pageWidth="850" pageHeight="1100" math="0" shadow="0">
            <root>
                <mxCell id="0"/>
                <mxCell id="1" parent="0"/>
                <mxCell id="29" value="" style="rounded=0;whiteSpace=wrap;html=1;" vertex="1" parent="1">
                    <mxGeometry x="510" y="380" width="210" height="140" as="geometry"/>
                </mxCell>
                <mxCell id="10" value="" style="rounded=0;whiteSpace=wrap;html=1;" vertex="1" parent="1">
                    <mxGeometry x="255" y="190" width="195" height="210" as="geometry"/>
                </mxCell>
                <mxCell id="16" style="edgeStyle=none;html=1;entryX=0;entryY=0.5;entryDx=0;entryDy=0;" edge="1" parent="1" source="2" target="6">
                    <mxGeometry relative="1" as="geometry"/>
                </mxCell>
                <mxCell id="18" style="edgeStyle=none;html=1;entryX=0;entryY=0.25;entryDx=0;entryDy=0;" edge="1" parent="1" source="2" target="10">
                    <mxGeometry relative="1" as="geometry"/>
                </mxCell>
                <mxCell id="2" value="&lt;b&gt;Root Query&lt;/b&gt;" style="rounded=0;whiteSpace=wrap;html=1;" vertex="1" parent="1">
                    <mxGeometry x="60" y="190" width="120" height="60" as="geometry"/>
                </mxCell>
                <mxCell id="4" value="" style="shape=image;verticalLabelPosition=bottom;labelBackgroundColor=default;verticalAlign=top;aspect=fixed;imageAspect=0;image=data:image/png,iVBORw0KGgoAAAANSUhEUgAABgQAAAMUCAYAAABzekw7AAAAAXNSR0IArs4c6QAAAARnQU1BAACxjwv8YQUAAAAJcEhZcwAADsMAAA7DAcdvqGQAAP+lSURBVHhe7N1fiCNpv9j3n/Y9J1R7Me4252S6L5yVlsDOcoLfHhLYeSF4u29ire2wGueE1eRmuyFhpUB8po+NpydgWrKdqMdgT782uHXIhTQQ6FnfqA8Jbt1NT25mDjh0LySZeQ0v3S8xbl0kdA9kp2Rju3LxdtX71KOqUpVUkurP9wNFq/WUpFKp/v5+z5/Cf/Af/AfWl19+Kf/4H/9jAQAAAJA9rVZL/sf/8X8Uy7L0IhERKRQK8t//9/+9PHnyRC8CAAAAkAH/7X/738qrV6/kI70AAAAAAAAAAABkDwkBAAAAAAAAAAByoPBn/syfsf7KX/kr8vOf/1wvAwAAAJABf+/v/T35e3/v78nf+Tt/Ry8SEZG/9bf+lvzNv/k35W/+zb+pFwEAAADIgD/4gz+Q//V//V+lICJWtVqVv//3/74+DwAAAIAM+Pt//+/LP/gH/0B/2uUP//AP5a//9b+uPw0AAAAgA/76X//r8uLFCyn83//3/20Nh0P5D//D/1CfBwAAAEAG/Lt/9+/k3/27f6c/7fLRRx/JRx/RoygAAACQRT/++KNcX1/LR7/1W7/FhT8AAACQYR999JH81m/9VuDEPQEAAACQXfY9AVf9AAAAAAAAAADkAAkBAAAAAAAAAAByYGxCoFAo6E8BAAAAAAAAAICUCUwI2MkAkgIAAAAAAAAAAKRbYELAsizXXwAAAAAAAAAAkE6BCQEhGZBp3W5XSqWSFAoFKRQKUiqVpN1u67MBAAAAAAAAADJgbEIA2dRut2V7e1suLy+d5y4vL6Ver8v+/r5rXgAAAAAAAABA+hWurq6sDx8+yKeffqqXIcPW1tZkMBjoT4uIiGEYYpqm/jQAAAAAAAAAIIVM05T379/TQiCPGo2GKxlgmqaYpinValVExPmL+Wm327K5uUnrDAAAAAAAAAAzM3VCQO+HPsxEX/WL0263pdlsOv9Xq1UxDEMMw5CjoyOxLEs6nY7rNZitRqMh9XpdTk9PXb8NAAAAAAAAAMTpIxGRjz/+WH8+FK9+6MOw+6rPU3Kg2+3K5uamdLtdvWiu1IBzuVwm+L9gjUbD9ZsMh0NXOQAAAAAAAADEpXB1dWUVCgW5c+eOXjbW559/Lu/evdOfnkixWJRKpSKPHz+W1dVVvTjV1KDvovvnLxQKzmPTNMUwDFc55kdPBoiI1Go1OTw8dD0HAAAAAAAAANOIZQyBjY0N53GtVhPLssZOpmnK1taW633kttXAwcGBlEqlTPWjrnfRU6lUXOXzpLfEIBmwOF7JANM0SQYAAAAAAAAAmJmpEgKHh4dOoD9sINMwDOl0Or7JgeFwKE+ePJFSqbTw7nXikKQuevSxA7yoY0KkrTsnfdlnsf3c3NxIo9FwjZsR5bPsZdSTAbVajQQNAAAAAAAAgJmaqsugOB0fH0uz2ZTz83PnuUV3rxOHJHXRM25ZvGqt24rFouzt7Y0kcJKg3+9LvV73HMuiWCzK48ePpVar6UWRdLtdaTabnp8hIbbVoNf3er2FthwBAAAAAAAAkG2xdBkUp0qlIq9fv3YFnIfDYaTa11H1+30plUoz+4zBYOD63w7A67XMZ/X5QaIkA0QZCDpp+v2+PHz40DPQLspyT9MNVaPRGDt49nA49PwN7RYBfq8vl8skAwAAAAAAAADMRWJaCKh2dnbk4ODA+X9c7etJra2tOUH7WXyG+j3+vX/v35N//a//tT6LYxafrzo9PZXNzU2R21rzFxcXTpmeDCiXy3J0dCQ7OzsjQe69vT1pNBqu5xZJ/Q3ltiukzz77bCS5Mcn6vbm5kWaz6doWRWstsbS0JMPhUMTjM9rtdmASpVwuS6/XG0nOAAAAAAAAAECcZtZCoN/vy+bm5kggOYpWqzXSUmCaGt5eGo2GK5BcqVRG+oaftB99uwXAP/pH/8h5LigZICIz74rn+++/dx6r4wfogx7bQerl5WVnrIdHjx455c1mc+EJAbtlh54MqNVqcnR0JI1GwxmjwmYH7XUvXryQzc3NkaD/8fGxlEol1/PlcllM05SLiwvn99rb23PK7c+wWwWQDAAAAAAAAACQJLG3ELCDtHpt6UmoNezjeD/buJrbfvz6ow/qH97PvPvkV4Pnr1+/lvv37zvd7dzc3IgEBKmHw6E8ePBA+v2+89wiWwroiQC5TXIcHR25nut2u7K9ve38b1mWq1z//q1WS3Z3d0U8PsNv3Yg2NkMYQe8FAAAAAAAAAHGzWwjEnhBQg6N6ADaq4+NjefDggfN/0Pt5BeX9Avh6sDcqOxgeNJitrtPpzC3478Xrd9HXg9dAw7YkJQXUbnqi0LefUqnk+u3UpJO6vsb9dlGWh2QAAAAAAAAAgHmbWZdBcQpTi9/uPsZr0FZ7QFl10N52u+2bDCgWi043OXaXM16B4GazKfv7+4HJgGKx6Prf630Wqd/vj3S3ExSkNgxDer2elMtl57lmsynn5+eu+eZB7aYnLD0pJCLy3Xffuf63g/p6kmPcb+e1PNVq1WltYCMZAAAAAAAAAGCREttCQB/otlaryeHhoWse8ajl7seu/e03v9/72/Qa8oZhyN7enjx58kTkNgDc6XRcwd641kUc9GXR10PY5RsOh/LVV1/J6empyO3YC71eT59t5obDoSwtLelPj/D6XXTqutnb23Ntd15dEYWhb78kAwAAAAAAALBI/X5fnj59Kt9+++3YCrDIHleXQR8+fJBPP/1Un2cieuB5Enow1S8oq48FoAZ/h8Oh1Ot11+DGrVbLCeDrwvTprwehx32/ONZFXPRlUf/f2NiQly9fOv+Pc35+Lvfu3XP+X9R307/TpPzGAJg0iK9vv5O+DwAAAAAAABCXacZ+1btODxNLRbIkNiEwLphqZ7Lu378v7XbbGRDWL2mgD0wc1Nd7mJ0hyveLMu+s6cui9nsf5nvr9PdbhLiWwSshoG93YY3bfgEAAAAAOD8/l+fPn8vx8XFgV8Re4yICwKQmjaX1+315+PChE4e1TRJTxOIkbgyBm5sb2dnZGRtM3d7eltPTU9nf33dthJ1Ox3msarVazmM9GaBnsPT/dXrf8uOoy72IvvaDqP3eD4dD1zgLcer3+7K5uTn2ve2xIAqFQuhlUdfv/v6+q2waXttdGCQDAAAAAAC6m5sbaTQazj1voVCQe/fuycHBgW8yQHzGRQSARdje3h5JBkiIWCqSaaEtBG5ubuTg4ECeP38+chL0C6Z61eZWu7zpdrtOUNZutuL1GgmxfCqv7om8WiSoHj58KC9evBBZYF/7Nq/fRW09IbcB9mfPnoWqfeD1fl7CNkXSxzQYN794tP4YN78fffswTXNkuxuHZAAAAAAAQMbEOiY1zT0vEEaY7ZYuYtIvbDxPp74uatfjSI6FdxnUbrflyZMnntmloGCq2tXNOPYJUw/42oKWT3VzcyOff/65E7AOWj5VUvraF5/fxWucBblNpIxrDeH1fl7CzKcnW2x+89uGw6GsrKw420OY5faibx/jPldHMgAAAAAAIGNiHarV1VWpVCryzTffyMbGhl7seb8e9V4V0IUJ+o9jGIYcHh6SFEipMHE6L5N0Pc4Axskzly6D9ECzKF0D1ev1kRPk7/zO78jdu3flm2++8Q2mhqm9btva2pJ2u+16Tn3fMM3u2u22lEolV+31sMHe9fV113xJ6zbIMAzpdDqubpVERJrNppRKpZF1NytqMF01rhsgwzBc20Oz2ZTCbfNLewrzG6u/UbVadZWNQzIAAAAAAPKt2+063QF5xTrktmZ1p9MRy7LEsiy5urqSw8NDz2SAKPfrwKTU7dKeVlZWpNlsTpwMECVZhVFhu81eFDW2GZXa9XiY4L495sDp6SnbSxJdXV1Zv/zlL624iIgzGYbhKjs8PLSWl5dd8xSLRavT6ViHh4eu15mm6XqtzTRN1+u9pmq16rx+dXXV9fyjR49c8xqGYT169Mi6urpyPuP6+tra29uzisXiyHuXy2VlacarVqvOayuVil48N+p38GKaplUul0e+797enj6rZYV4P9u4+dTfXUSsWq3mPNa3Hy9+y61O497H3iYqlYrvdudlb2/P9TnlcjnS6wEAAAAA6dXpdDzjBqLEOqalvicQJGh7DDsFbbetVss1b9Z0Oh1rY2PD9/uHYccgx8WhFkWNia6vr+vFsTk5ORmJ/yIZPnz4YF1dXVkzTQiMm9QAqh64D6K+x7gdVZ3XNE3LNE1ra2trZFnGTUEHxSBnZ2eu91mUMMvgt26KxaJ1eHjomjfM+1lj5tMPEHYiJ+g1XvyW255qtZr+kqmRDAAAAACAfDo5OQkMvKqVFKeh33cCXqImAiaNb2V5e9QrKU8qyevn6urKMgzDWb5er6fPEht9e5xFXA6TmVlCQN24/Cavg49argefdepnBO2oQQcrPbMZNE17MleX16/G/az5rQcvfrXu7d/t6uoq9PsFzacmgeQ2YaO/Rt9OkkBv1UAyAAAAAADyQ7+XlRjiBjo9njGu4iRmY1yw3asC5Tzp8Ql9imu7zPr2GKWSchB1HSXNvFoHWFrMlWRAsswsIaB3yaNPfgejsEF+yyOY7yXswarX61nr6+sjy+mVtJiUvk5arZY+y8yNW186v1r3hmFYGxsbzv/jDiLq76p+b/2kpR4gomwL86ZnVEkGAAAAAEC+qPeEfjGOaej3y1m771SD7HHGXuIyrgWI37SI76Iv5yy2Rz2+lrXtUf9+k343fb9NGjXpMcvWAUi2mSUEzAm6fLE8gvzjatKrJ2D9oKvvzIs+WOk17hcR5J7kN7ECEgP2NO4goiZD7O/t1VWQSt8W5n1CDaKOcbC+vr7Q7QoAAADIo5OTk6n7eQamYd+zzqLma5YrofnVtl9EjCSIVwuQsJNhGHNtMWDHv6KOiRhW0uJrcdOD+Hp8Koq4WhnMwsuXL51lKxaLejFyZGYJAWuK4HOUmvT6vH5TUg5Wpmm6Turzpq6TSehBensK+o0sj+/tNXn9PklsJaCfKMYlQwAAAADES61clJT7BCBOWayE5pcIUKck8FvOarXq+l3sY09QBcpxsZKku76+Hom7JSW+Fhe9suo030+PF036PrOibr+7u7t6MXLElRAYDAZ6+VTUYO7Z2Zle7MurJr1fZjXowBvHzjwLs6xFMI66XialHkDU32gc/SSiTn7rIon9jakXBuVyWS8GAAAAMGN6zV0vtCBAGnkFYOddCU3tKieuvvH1GuZeUxJqU+sBXX25zDG9YeiVKMPESpJKD5RLAuNrcdDPJ9N8v0laB3Q6nbmdq9Tle/36tV6MHJlpQqBarTobWqVS0YsDedUo17sEUukHXXUHnGZnzhp1nU6SqdZPjvfv37dExNra2tJnHeGXvElKoD+sWTfFAwAAABBs3P0ELQgwa7NIOPkFYOfJaxnsKSgmE0SPI3hNSQk068Fhr5iSWu5Fj2dNEntZNL3LqiT9RnFTv6PX+SQK9b3GrSs9+TePc9W4bRf5MdOEwNnZ2VQbm1eQP6i1AMab5mCjnxDmfWECAAAAAFaIoIYe1APiZm9jUe+r/ej32/Y997igYpw6nY5vMsCeosZk9O91//79kc+Y9/f0oycu/JZJncfPNLGXRbu+vnZV8F1dXZ0oEWQp3S9NmkyahzC/Zxj69hPk8PBwZD8I26JgUldXV6GXD9k304SAFUONdL9a5RJj07U8Gde8zY9+QshKH4YAAABJ4NdfsX7tm9SbaWCexgVd9PJpa3wCXqaNdejUrnmnCcBOSt9v5LYnAL94TNjv7NXlsDp51cBflDDdvejryc+ksZdF8wpUT9Jlldd1TVITI3H9TmG2H8un+6x5JMXUJNX6+rpejJyZeUIgrqyoV2sBe+LmKJqoFy5xnRAAAADwaycnJ9bdu3et3/md3xm5tg2aprmeBpJMDR6Nu78bF3QZVw7EQY91TFpZUe82RBZ0v623qtETaXpMxjCMwP3U8gie61OSeh3Ql9UrOKu3oBh3fFHfLw38AtVReb2PeGxTSaHGyMadf4Ko39Vr+7E81s00nxeF3lJnEccYJMvMEwJx9p0W1FqAm6Pw9AuXIPrBSiY8IQAAAODXTk5OrJ/85Ccj11hhJyALvGqPqlPQfYo6nx50CRPUA+Kg1wAXEWtvb0+fzdP19bW1t7fnuQ8s6n47zH6jx3e89lN1QGK/aV5B0CjGJRK9YiN+68nyOBYlnf79ov5GQdv0NK1AvM4VUZdtHD0h57Vdh+H3e3t9B5lTqwCb+h0//fRT1/LEvT6RDjNPCFgRA9Bh6cmBpGYak0g/iXtdtHjVUuAgAQAAMD2vm0IJuGHWb9KBNAoKFnlNQfd3QfvDuKAeECd9u5UQ981eLfDtKUyAUN2Xxn1WWFGC13pLAV3QPh7m+y2C/v3VZfQL5gYdo6yUHYv064yov5PfNh31fWx+61yd4ootWjHGF9Xls+nr1p4mXTeT0FsH/Pv//r8/sjxhWvwgW+aSEAgTgMZ86cH+cdM8D1YAAABZpgdT9GusoBvhpAcVAFvQduw3+SXFdOprdGpZmPcCpqFvw5NO4wL7QQm1OAKjfsHrcfvxxsaG630sj3NcmO+3aH7f3yuYGyY2EpRgSBr9O4b5fir99eoUpRutMC1L1GnSoP0s6cvoN4U918VFHzvAax+1pyJjtebGXBIClkcAepqugzA90zStcrk8svN7TVFPCAAAAAimXmtZIW+EP/roI67JMsor6JaWm/Iw267fNElQRA+0hS0DZkHd3vy6N/abwgbJ/Wpf21McgVH9PcNOfskIPQAZdT+fN/U79Xo932Na2GOWX4IhafRgfpTYj9d5S5/8tg8vQe8Vdr0vmloRWp+irNu4qdujPnZAUHJAncIer5Aec0sI6AFomqMsnhkwJgM7PAAAwOzo11z6dZjX9N/8N/+N/jZIsaOjo9C/vST42nze3yEo0BZUBsyCun1bEYJrYQOcesBWneIcayAokDlu8qrsGRSATKJx3z9qMFd9bZTXzZO+bUX5jnryNWgKS993wu4jSaJ/h6R8l3G/h99y61OUBA+Sb24JAcuj6yA2JgAAAOSRfpOlT4u+ecTsRQmk21MS75+CAgkff/yx9cknn0ydBFCp76/vI0FlwCyo21ycgsb0s4PtcVayDNqPvc5HQeNE6sHiNNDX9bjvH0QPtG9sbMT2O8VFX8YoyQDLsqy7d++OrCd1XanPYbGurq5C/x7jKg3H0RoJyWEnBD6SOTAMQ/b29pz/t7a2XOUAAAC6fr8vpVJJCoWCFAoFKZVK0u129dmg6ff7srm5ybpKmVqtJpZlydHRkRiGoRcjQyqViuv/arUqpmmKZVlimqbnvdJwOJT9/X396YXa3d0Vy7JGptXVVfnxxx/lV7/6ldTrdf1lsRyjgvaRoDIgydrttpRKJTk4OHCeK5fL8vbtW1ldXZXBYCByezzw2rcm4bcf+52PWq2W83g4HLrKms2m87harbrKkqrVao0ccyc5H7fbbdf3NwxDTk9PY/ud4qAvY7lcll6vF/o7iohsbGy4/rfPX1HWFebj6dOnzuP19XVXmc4wDOl0OiPHAHs6PDzUX4IMKFxdXVkfPnyQTz/9VC8DAABYmLW1Nefm12YYhpim6XoOv9btdqXZbMrl5aUI6yqxCoWC87hSqXATnUPD4VC2t7flxYsXsrW1JZ1OR5/Fsb297QTO07JPq9t4rVYbCSTYx/ao30d9306n4wriqWWWZTmPgVmJe5trt9sjwWM1YOt1TRTH54Z1c3MjBwcH8urVKzk9PXWeV5dBXSemaYY+t9nXLyIie3t7IwH6pOv3+/Lw4UO5ubkRuf3dTk9PnYTJPH8nP4PBQEqlkrNMkyQDwoh7v8Dk1GNGr9cbqYyA/DJNU96/fy9zaSEAAAAQVrfblVKpNHLjKx610dLi/PxcdnZ2XC0e4p62t7edZICkeF3Zv7/9vbLcMsTrZlz9/ln+7nlmGIYcHR2JZVmByQC5DTTZ0ngzrycD5DYwJRMco9R9RQ+cAmk2GAxkZ2fH+b9YLEqn05GTkxNnu/e6JpoXu+VCs9l0JQOCah3r5zbVzc2NNBoN51xnX79cXl6mct/e3t52kgFye263e8io1WrKnIvTbDadY+76+rrn9ce01PMVFmswGLiOGWm8fsDskRAAAACJ0Wg0RgLb1WrVaaKelBsr3eXlpXS7Xdne3vYM+t+7d08ODg5c32vWkrquvKjBAf33T2uAIAq1eyz1++fhu8Nfo9Fw3dCPSx4kQbvd1p9yGVcehC5okVV6sPbt27eubXya/WZajUZD6vW6K+BtU/fJMOyE98rKiqtFoyqN+7a6bgzDEMMwnK6YvJKi89ZoNFzb0N7eXuzJALlNjKio0LA4UboLQo5dXV1Zv/zlL/UxBgAAAOZKH+hMJhjQbRZM07RevnxptVotq1qtTjQg6LymJKyvsK6vr629vb3Q6zMr1O90cnIy9vszkFs+6cfDarWqz5JI9qCnfss8rnxS6roC5iGubU4fiLfX6+mzuPabuD53HL/BjYM+Xy1TB9P1ei99StP1i04dmDlp52x9+yqXy/ossTEMw/VZ+qDTmB/1mOF1TEG+2YMKkxAAAAALpwe/yuXy3G4MLy4urE6nY21tbY3c7Oo3N5NOq6urVq1Ws16+fKl/fK6ETQLYgQF1/SdZp9OxNjY2XAEQP+r39FsPaQ6MpI2dlCkWi6F+v3lY5PFwWupyey2zvq3Htd7V9wTmIa5tTg3ceQVr9YBuXJ8b5PDw0FpeXnZ9Vrlcti4uLgI/P8o1U1z7PoLp25fXcTkuamJEEpgcyRP1dwB0JAQAICc6nY5v0Em/MD88PNRfDsycfrM76xuWoATApJNhGFa5XLZarZb1+vVr/SNzLcoxSA8O2DeXSb6pVIO3YWrDqQETbp4X6+TkxBX0CvP7zVoakgEnJyfWxsaG5zWDuuy6TqfjKo9zvQd9LjALcW1z6vt47et6q5q4PtePfk0mynFIreW/vr6uv3TknOY1JfGYllX6+YT1ng/6PgzoSAgAQMaEDbqNm0gMYJ6urq5cAdI4bhRnEfC/f/++VavVrMPDQwL+Eeg3o/rklQRIE/37hekCZZIkhx2ATfO6SiK9Gw71N7HPqfPcRvXtKY7j4Szox1X1ukF/Xv3fb4qyL/hR3w+Yhzi2uXGBO/2YYJpm4PzT0q/J9ONfmG5I/JIC+nthtvRtK8z1CbJBTyICOhICAJABcSUBvCYu3DEPem2zSYJfV1dXUyUAqN0fnVeAOmx3QFk5tug327MI3urH+DhqUuM31N/vT//pPz2yrc5zveuBv1lsT3EZ1xd42CnO75eW7sWQHeq2PCm/wJ3X+DJ2eRyf66dWqznvrV+T6ec8JJu6bem/JbJN3U/53eGFhAAApJjXjULQNK4/atM0ra2trZHXzSMIgnwLU9vMy9nZmfXo0SPr7t27I9vtuIkEwPT0mtXjpiQHNyfR6XRcXc3E+f30JIA+5ZlXImoS49ax1zRLaUoGWAHXDFGnOE3S8gaYRhzbsprI2tvbc57Xz7HqMUHvds6PnqQfl4zXj0P6NZlf8gLJpG4n3M/lCwlyjENCAABSSu/z2GsKukEI4nWTP+l7AeOEqW2m39CGmQj4z556szFuGpeQtBbUPcuk9O1WYqiBFTZAnfVgZydgcGb13DcuuKEmDsKuW6/p/v37M13vXsn9pCcDdF7XDfb0k5/8ZOS7qOVAmsWxLYdpbaOfQ8O8xm/yO3bq57Wyx+DGarm+XyN51K6bZnUOQzKRIMc4JAQAIKX0WkP2jYJ6g+B3wR9WnO8F+AmqbWa3ABiX/LK3URIA8xVnH8F6ICLJxxyvhOw0N1xhgtX2MT6u2vFJpW4HXtuAfu4Los8bZtKDbrPmtS2lLRngxRzTx3lQmZ+gRBGwKJNsyzrTNK1yuTxyPLIn/drIfk2UpLw6+Z2v1GOm13FIP08DANKLhMAYQTdoxWLRevTokXV1daW/DABmTr0JUC/sx92ERxHnewF+1G3Mvvk8PDz0Pf+q0+rqqlWr1ayXL1/qb4uU8QreJpFXANfebqMG671qhquTV3DaXk9ewfIsCEoQWtrxwi+oZQsTLKtWq67/503f7r1+87QKWq9BZV7Ubkyyuu0jnaJuy35Mn1Y2QccEv6S8PoVN0quv8frMccdnAEB6uBICg8FAL8+toESAPhmGQVcaAOYuqBmgeoyaVpzvBej02mZB596wN7RIlrBBcq/gbRzsoHtc248ewFWPwVGD9V7be1Dwx9KOyXF+r3nwur7Wl18t81oPavk4erDMb91Gec+4qZ+9sbGhF6eauk/r90pqmdpnus4raUYgEkmyyONHnPTrMZ1e7nUsBQCkBwkBhddNStSpWCxah4eH+lsDwFypx6VpxflegO7P/Jk/M3IuVSdaAKRf2CC5Hryd5pjjFUQMswzj6AER/f2iLrv6nf2C1Tr9O3ktR9KMu8ZWl3/cOhxXPgk1OH12dqYXz5SeCMvSvYTe7aCa+NH7P9cTBjY9AefVjQmwSLM4Ji3CuNr/48oBAOlCQiDgplE94XldePZ6PWt9fX1kfhlT0wUAZk09Hk0rzvcCbOPOvRJw/kW66McQ9bfXa4dbMQRnO53OSJc++jJM6u7du673UlsHqF2aTPs5QX7rt35r5Dt5tRRLCn29+E029ff32j7U1+hlk1K7DapUKq6ysC1cJuWVCLO/e9oTA6bWx7ma+DG1PtO9klp6Ao5zApJI3UbTTP0e6n7mdb3GfggA6UdCwKPmSZSLTtOnrz8hKQBggdRj0bTifC/Apt9cRjn3Il3U39crWK8HAoOCs37G1UBXp2nUajXnfdQgvB64/Pjjj2cSQPYKric1GeD3m9j7uH79bdNrjouWGPALME/j7OxsZFn05Y/rs7z4JQXU75/W5ID63fRt1TRNZ3/f2tpylVnUSEZKqPtqmqnHVrvFjtc5m30RALKBhIB28psmEKHXdFFPpgAwT3HenMT5XnBTA05eNWGzzCsAhmzSf2d90oOEXsFZP3rQVp9qtdpcgop6cFtiDCCP+45J41WbVDy6elHL1G3Ar7KNvT71Y0dcx031Pb2WX+awrv2+u7pcjx49sq6urvSXZpL63Se9PwNmbZ7HiFnySsbq0zSxEgBAspAQsCxre3vbEhFrc3NTL4pMTwrEdTMIAFHEdXOi10bF9IKCe3ofy3nA9pV9+nZuT3oiQDVuu/ALOtuTHbS4urpyPT+LQIbeOmDcskehH4O9piQ5OTkZqU0qPkGkcd9BD/yr24tamUdiSqjqy6xPQdtr3MYlBuzvnNZWA2Gp3xdIKq+a9Wlkal186dM8j4EAgNkjIRBhsLuw9JNpmi8MAKSTegyapA9uyyMQNauatXlxfX0dqvZVXOeitIhjW0Wy6dv4X/2rf3UkOKxT51cFJQK8gs7qPre+vu4qi4PenYLa3ZG+7OOofdUHJQ6n+YxZ8koGeP0mlmWNJGqi0pMFEvLY2el0RsYDCDo2+y3/PI1LDmS5i1L1e/qx95U4kkLAJPTBs9PM69iahOMgACB+JARCXmxGlaULgzhcX19be3t7Ize3eajdBCyCGjAK2we3Sk8G6F09IDz7+KcHyuypWq2OrO88mXZbRfLp2/zJyYk+ywi/RJFX1zxBwQp1/l6vpxdPRd9v5bYFgvp/WF7BdHXSj8GTfMas6b9NUG3SOBI1euAq6PP0RJJhGCPXpOoUtE0tUq/Xs9bX10eWN6tJAfU7qvwSZtxzYRGoDAgASCMSAgEXm9PgwuA3Dg8PA29yJaam3gB+I0of3Do9yKUHohCeX5BPX6f6Os8TfVvNamArz/QuCH7/939fn2WEX6JIf6+gILDelU+c9H1WXZZJPtMruGlPXsHpST5j1tTfJuh3sWacqPGiJyvGTUln5mDcMn3/9atcpE7jtjtgVqgMCABIGxICM7ypyvuFQVATbK8pj+sImKVJjm16kEsPXCO8q6urkeClV/JTD3rksWsmvTsMWo9li16T+yc/+YmrxrbXfqEnivT3Ghf40/e/OPcrfZ8VbWwCr+UeR19H9jL7HX8n+YxZC/vbWAtYfv1YrE/FYtH67d/+bef/NATX9aRA1q6j1STOxx9/PPKbqVPQvgLMA5UBAQBpM9eEgH3z53Xjt0jqBWWcJm02ngVerQL039306BMVQHyi7Fteze/TmAzw+h6LCC5fX1+7ajivrq76nvfUoEca13kc9MCWPdFaIDv+2l/7ayO/rzp5BTPV8qhqtZrz2vX19Vj3K/0YowfA5xEUmmbdJMG8lz9MwiWNFXmyeK/hdR73mvTfD1i0NB5DAAD5NbeEgN5tQpJOkrO8kJ7leyeVXsNYxgS58riOgHnw2rf0xKzfjXfQPptEft9DnWYVmNPp5zvx6RJD79NatFrGeeOVJJYFJXQwG7/1W7818vuqky6oTB2AV6fX4Pfa/6ZhX+dUKhXPfXYeQaGgdZMGSVz+tAbX1WXWK9+kgde50G9K4/dDfpim6VQG2dra0osBAEgUOyFQuLq6sj58+CCffvqpzMLa2poMBgPn/1qtJoeHh655FqVQKDiPf31dHZ9ZvncSNRoNaTabzv/FYlH29vZka2vLNZ8qb+sImBevfatUKsnl5aUy16hqtSqdTkcMw9CLEqndbku9XtefHmEYhhweHgYej6Y1GAykVCrJcDh0niuXy3JycuKaTzzOi9VqVY6Ojlzz5NFwOJQHDx5Iv993PV8sFuXx48dSq9VczyM9njx5Ivv7+67n7t+/L2/evPG8LvQ6htns/ccwDDFN07NMAva/WRoOh7K0tOT8ry97HILWTRokdfmTulxB1GWW23Odvk8kWRavSwAAAJLONE15//69fKQXxGkwGCQ2GSC3F8628/NzVxnC05MB5XJZ3r59Gxh8azQa+lMAZui7777Tn3JUq1UxTVOOjo5SddOtHndE+R6WZYlpms53GQ6HoRIH02g2m04yYHV1VTqdzkgwstvtSqlUGkkGdDod13x5ZRiG9Hq9kXPH5eWl1Ot1KRQKUiqVpNvtusqRfK1WSyzLck2vX78Wy7IiXxfa+89wOBzZFtR9q9frucrmYVbHz36/L5ubmyPfF/nU7/elVCrpT48cO5PO67qkWq26/k/bdQkAAEBqXF1dWb/85S/1FgSxUJtOr6+v68ULp/bzXKlU9OKp2O/764pG2aU3zw/T3Yj+mjgH/APgf/zR+1KeZT+8alc+s+j65erqyvVdvL6H/n1nRe8uTe+mxK9bI459/vy6EZIZdsWC5Ajab9V++tVtQd8PFyXOZdCPHYZhzGWcglmKc/3EKWnLFaU7HfEYzyLN0r6NAwAAJJlrDIFZJQTUARP1AEkSnJ2duS6m46IHvLPq6urKddEeJhlgMZAmMHOLPP7oASx1ivPGXh841M8s18XJyYl1//5912eUy2XLGrMeZMbJmCzxSwwg29Rri7OzM1eZnugrFovWX/7Lf3lk/1qUOLbToOPHPMYpmKU41s8sJGm5Op3OyHg046YsSfs2DgAAkGRzSQik4UJ1FsuoBrwXeVM6K/aAfhsbG873XF9fHxvcur6+dl3ki0+tXgDTmcVxLQy9hq4+xXVjryddgxLO6nwbGxuxtlRQj/VhJxIBk7MDwVmqCQtv41pw6tcS6rToigbqskQZBDVMjfBarZbaAXBtSV12NQm1SOPOo35TlqR9GwcAAEiymScE9O4ckspvGe2gd5SbOZv6nou8KfWqYRZH1x36e8qYgJx1G8DTaztlMVkCJIHfcW2WvIIY1WrVur6+dj03zbHVprcyCqIvk8TYUkF/36CJRAAQ3rgWnH4tR0TE+uSTT6Y6vkzLr0ujcbyurfyOHUHrJumiLrudKCkWizP9XZOQcNST3UHLk/RuWacVdTsBAABAODNPCKTlQtXvgtMOOEW5mbM8LuYXxSs4p057e3v6S0LTa+bdvXtXn8XFa1kWXYMPyDJ1X5sH/bin799q2aTHVpv+WeOOI2pwzp4m/WyVnvT2mrwCeQDCCeo2yHZ5eTmy39nTrAPIfvQujcLSXxd0/Jjk/ZMi6rKrCeA4jt1Jpie7/X5/KwXdsk4r6nYCZIlpmtbLly+tVqtlVatV34RxlqZisWhVq1Xr8PDQevv2rb5KAAAxmnlCIC0XquqJSBXmRtRL1O6CZjHwplcA3muaNCmgN+X1ei+v1gmywBt0IE/UfW7Wwowloh8Hplm2KMfYoGPhtNKS9AbSaly3QWG62FlUADnOY42XWb//LKnni3GttfRjuF9t+SyIkuzW10sWZf37IXsuLi6sTqdjbW1tjT03BU1eFVmYvCeSCAAwmZkmBPSak0nmt5zjbkS96BfoQRfzlsfFvz3pwfUo9PdUg3OmaVrlctlVPkmAXv+MsJNXoBBA/CZNaE5CD4x77eN+NzeTUF/v9Vk2/TilH/umlZakN5BW47oN0sfw6PV6I7XsFxVADlruaenHtrQJO2Csfk09LgGcdmGT3frvHzRvmqV5G0f6xRXcZ1r8VCwWrVqtZr18+VL/mQEgt2aaENADREmmnjBU425EVV614cddoPd6vZE+9dVpXK0pP+OaG+s3EjLmhsyL+hlB30Gdgpq+A4jXJAnNSYUJjOvBeHuaRJjXdzod17HJPhaGeW0Y+nF0HubVjzaQJH77mb4PjhtLZN7UJGjcwgaOk8o0Tdf60SvBeF1Te13PZo36fYO+67jr/CzQ929gWmkM8N+/f9+q1WrW4eGh9fr1a/0rZc7Z2Zn17Nkzq1KphI4vTDvRwgBAXs00IRAmQJQU6klBF3TDYtNrMEmIC3S9iw0Rsa6vr11BM8MwrI2NjUiJAf0CWl8Gr2W1pyj05fYb2I8kALAYURKa09CPKV70ecbNP8641+vHQVGOheNeG9YiAnJ56kcb2WYHfMMkt/z22UXsg1HMcoBa9foxrddY+lhUQdO4a+q4Rdk+46Kft4Ko881zvcyTGrCNsn8v4rfD4p2dnVmPHj1aeKDfMAyrXC5brVYrFwH8JJhlEoGWBQCybKYJAfVgmnRBy6rfsBSVPv69ajBJyCB4rVZzvca+YTRN01WzVyIGfoJukPWbDX2KknhQXwcgmWa9n+rHFP2YY41JBoiI5w17p9OxNjY2PMusEN9L70ZEDciNe21Y6vuMO97HRQ0CziLICMyDfkwYd43jt89mISg+qVkmG+bF9OjC0msKc00dF68xKcZtn3EJun5X6ftPVtnfs1KpBP7+19fX1t7e3sjvNs/fDvEL+l3nNRHcz45ZJIxIFgBIO1dCYDAY6OVTUQ+YSRe0rGFvWCRCDSY9iObVgkIPaIWlvkZfFr2Jsd7PbpQL50mWDfAS90UatcJ+Q10vs6AfU/Rjjh64sOfRW0fZiVY9GON3TPJruaW/XjyOg2rZNOJ6nyiyEAREvunHhDDbs7q/q+OhsD+kn2maC21h6nXO0Kd5bV/qdu5XQUfff4ISB1kVJVA8r98O04nym04zEeCHlzhaGKyurlqPHj2yrq6u9LcHgMSaWUIgTQMKWyECO0E3LPYU5cZFD6Lp9IRBlAtav++i30SYpukZmAvL7wYd2ZPGPjf9Asl5o66TWVDfXz3+ebWeUhMGejLSb/ILdugtt/wmr9er5dOI632AvNCvQ7ySiF7UVpOzHg8F+aKfp9QpynV9HMYNtDzp/pN2kwSL5/3bIZxJfsuw0+rqKrW1EbtpKq3RggBA0s0sIZCmAYWtCIEdr8RA1ItOPVmiv/bk5GQkOx2F1+v0mwg1SKYH1mz6RZte65ob9GyY5kInyVOUJFqWzTpxp65zyycRID6Bi3FJgaBjqxmi5Zbf69V5phGmNieAX9OvQ7yOCX7mNR4K8sfvPLSIawgzYND7afaftJnkulS/R5kVu0XJvD4v7fyuCcNOrGckWZRjFS0IACTRzBICaRpQ2IoxQBSGOnaAV7JE7yoo6jLprxt3E/H27VtXedDFm1pjiRv05IpygZKEiVo9szPrxJ3+W3pNfoF5m1eiNUwwxut1YV6vzqeKOhDhuNqckxo3fgKQNuOuQ8Lw22+BLNFb7XpNk+w/SaVXPgo7hT1Px0mvsBXneT8rwnTB5Tct4jcF4tLr9az19fWR7TpoKhaLJAkALNTMEgLqwS4N5rW8eldAerJEv2kWny4vgqiv1d/P7yZC/0y/SQ+yTVtDNquBr6CkShon+txMr1kn7oKCF+MSAYuiL6fXFOZG39S6XCsqA85P4vr6emZJBmBRwl6HjKO+B5BVeqtdfZp0/0kaOxGgt4j2m5IQLNYrbG1sbOiz5F6Ye58k/JbAPExSQY8kAYB5IiFwax7Le3V15QoeqWMHBNWoiHrhr79e/Tyv97q+vh6Z157GXbRNGrzKQuAr6DdL00Tt/OxTf++4eXW3kNREgHWbrNOX12vSk59+/II3YZMDQbUjoyaDgaTRK0H4XYeEob4PkFVBLd+SfG4NErWSTFKvS/UKEGm8d5m1tF0TAvMStQWBYRgkBgDMHAmBW/NYXjVwtL6+7ro40mudTLM8+gWr+NyEB12gh71402vI7u3t6bO4+H1mGgNfXt8jKVNSb6awGOq2kVd+xx59CnvsswUFb6aZvI7ZQJro3WtMu02r+weA5AtbcWZc5aOk0IPdYSsOAICXMEkCEgMAZomEwK15LK/fuAp6DTq1z+9Jlke/YPUKcOlN+NVJn3ccvYasV83YoGDctEGCRdHXsz55rXdgEabt2ivt/I53ce6jcSUG0hIYAcbRKzpMu6+p7wUg+fyu+znfAYC3oCSBV4wFAKZhJwQKV1dXVqFQkDt37kgcCoWC8/jX93HJNo/l9fuMtbU1GQwGIiJSrVbl6OhIlpaWZDgciohIq9WS3d1dZ/5pNRoNaTab+tOOqN9/OBzKgwcPpN/v60WBisWi7O3tydbWll4EIEY7OztycHAgIiKGYYhpmvosmRV0vIt6rAtrOBxKvV6XbrerF3niWIgsUq9jarWaHB4e6rNE4ncNBSCZ9vf35cmTJyK39zedTkcMw9BnAwBojo+Ppdlsyvn5uV4ktVpN9vb2ZHV1VS8CgEhM05T3798LCYE5LK/+Gf1+X+r1ulxeXjrPm6YphmGECuDZrxeR0MEkPThWLpel1+vJ0tKS89wk3z9KAIybAmC+hsPh1Pt4GrXbbecYKbfHOzVxmZf1ACyCHQyMIxkgHtdQAAAAWeaXGDAMQ/b29mKtNAogf1KVEOh2u9JsNp0Aepy1KmexvDr1M7zYrQPkNoC3srLi1K4bxy9poPIKjvV6PTEMI7bvH5QYIBEALI5aW3dvb08ajYY+S+aora/iSn4CmL9+vy9fffWV8z/7LgAAyIvhcCgPHz6U4+Nj1/N5uacDMBt2QuAjvSApbm5upNFoSKlUku3tbVdt+svLS1eAO+mCAuF2sNxmGIbUajXXPEHGJUWOj4+dZruiJQPiZBiGdDodsSxrZDo6Oor98wCEox5Pms2mFAoFKZVKnsm7LGg0Gk4yQERmcrwDMB9putYDAACIk2EY0uv1pNfryfr6uvN8s9mU/f1917wAENVHIiI//vij/vzcqIH/QqHgTCsrK65WAbpxgfAk2dvb058SuQ3UeQXLW61WqO83rjn+YDCQhw8fys3NjfOcGhxTg2YAsqnVakm5XHY9l7akaljtdtvVNVq1Wh05vgJIj++++855HKWyBAAAQFZUKhV5/fq1657Ob6w0AAircHV1ZX348EE+/fRTvWwiahc0xWJRHj9+7LqJu7m5kYODA3n+/LlvsN/LrLqdiavLnCRSxyMQjwSCWr6+vi5nZ2dOGbKl3+/L06dP5dtvvw2VbEK2eHXppR8PssCrqyD7nJHlYz0AAACAbMvr+HAA4uUaQyDOhIDaX/W04hwrwI+6vK1WKzMDtAwGAymVSs536/V6UqlUXPOowTOvcmSH/VuHGXMCSCs16G8P1O5VxsUzAAAAgLThngbAtGY2hoBf9zhBisWiZ//zFxcXM00GiEf/2lnx9OlTJxmwvr7uGexXuwzyKkd22L91XMk6IOnibk2GcLrdrmxubmZ2jAoAAAAAANIu9hYCNq8uKmzzqPkfVlabXYWp/U92OT/4rZEHQdt5UBmm0+12R8b8oTUSAAAAEC/uaQBMa2YtBGyGYXjW+p9Xzf+wDMNw1STNymjt42r/M6AwgLxot9v6U1Dc3NxIo9GQUqkkhUIh8rS9vT0yJpDXeQcAAADJ9ubNG9nc3OT6GQAybmYJgTTRuw3yatWQNU+fPnUer6+vu8oAIEvU7uCq1aqrLE/Oz89lZ2dnJPC/srIyUsN/GtVqVTqdjv40AAAAEm57e1tOT09lZ2dHLwIAZMjEXQb1+32p1+sit+MGJKXG/ySGw6GsrKw4/atnoauDwpimZGG6FEJ2jNsegCzw287V5/XBhrPq5uZGDg4O5Pnz57EF+oPYSYA8rFsAAICssq+bsxATySK/+x0ACGvqLoPsLgIuLy+dxEBaGYbhGgw5zcmNsMZ1KYTsoLkn8shu6aVv/3kIWLfbbSmVSpFq/ReLRd9u/sJMR0dHuVi3AAAAWaVeNxaLRVcZACBbJk4IqAFlu2Z9mu3u7jqBjcPDQ70YSC26S0FeqAHper0uT548kSdPnjjPZXX718cAqNfrcnNzo88mq6urUqvV5OXLlyMB/SSN7QMAAID5S0NCoNvturq/LJVKuejyGQDiNnFCQKX2wY9kCBoomQGF80X9venXG1mmtvQaDoeyv7/vCoxnbftXEwFerQH0Wv9XV1dyeHgoGxsbrvkAAADSrt/vS6lUIkA8haQnBNrtttNThc3usUKPeQAAgsWSEKBGffLoAyWrGFA4v168eKE/BWTG7u6utFot/WmR22NiVrq00RMBXq0BqtWqvH37llr/AADA0e/3ZXNzM5MB8yx1abwoaqD9k08+cZUlgR7XsA2HQ3ny5Imcn5/rRQAAHx+JiHz88cf680g5NSimd+mkBoXVGrXIJr0bFSDL9KRAtVoV0zQzkbgOSgTorQHo0x8AAOi2t7fl9PQ0k/cE6nURFSIm86tf/cp5nLQWAu1229Xy3TTNkYpAf/RHf+T6HwDgL5YWAkgewzBcwaBGoyFyWyuEAYXzRe9GBcg6dUyYLATGwyQCGAMAAACMY98HZvGewL7nqdVqmagIsghJ7jJIHxfPMAzZ3d2VXq/nPN/tdukeGQBCKlxdXVmFQkHu3LmjlwUqFArOY8uyXGVIhp2dHTk4OHD+39rakuPjY1cwid8uH9hfs+XFixfyR3/0R/L111/Lo0eP9GJkxM3NjRwcHMjPf/7zkW6BisWi7O3tkQQAAAChcU+AIKVSyUkKXF1dyerqqj7Lwqjbrmmargo/n3/+ubx7905ERJ49e5bp+6OlpSUnoXd2dkYX0AAiM01T3r9/TwuBLGu1WlIul53/u92uK6jEYNBAOu3s7Mjp6ans7OwwcFoG0SIAAAAAi5SkZIBOb/373XffOY/V8RKzSO3hwW9MBQAIgxYCGTccDuXBgwfS7/ddz9OUMl/YX7NFrRlio8Z4+tEiAAAAzBL3BAiysrLiXIMmbfsI2naHw6GsrKw490e9Xi+zXSOfn5/LvXv3nP/1dQEA49BCICcMw5Ber+cKIpEMANLNazDwy8tL2d7epsVACtEiAAAAAIumV0hJC8MwXL0f/PznP3eVZwldBAGICy0EgBxgf82m/f19efLkif60c1H8+PHjRDf3jVu325Vms+kaEG0axWJRKpXKzNYjLQIAAMA8cU8AP4PBQNbW1pz/k7Z9jNt23717J59//rnzv9c8WaG2Fk/aWA8Ako8WAgCQcru7u2JZlrRaLdfzw+FQDg4OpFQqyf7+vqssS9Sa9YVCQba3t2NLBshtq4uDgwNZW1uTQqHgTKVSSXZ2dmQwGOgvCaQv78rKCi0CAAAAsHBq3/tprIV+9+5dpxW1Oo5iFm1sbDiPj4+PXWUAEBYtBIAcYH/NB78WA7Ou6T5PcbcCSApaBAAAgFnjngB+1tbWnMouSeyDn233N7rdrmxvb4vcJgdevnypzwIAvuwWAiQEgBxgf82X4+NjaTabcn5+7nreMAzZ29uT3d1d1/NJZner8/z581BJgGq1Kp1ORwzD0Isi81uPcSIRAAAA5oV7AvhJ+raR9OWbp5ubG1lZWXH+z/v6ABANCQEgR9hf82c4HEq9XvccYHhvb08ajYb+dCJETQAsIqA+TaJgEcsLAAAg3BMgQNK3jaQv37yxPgBMioQAkCPsr/nmF8BOQldCURMAEnMrAAAAgLzgngBekj6gsLDtjmB9AJiUKyHw4cMH+fTTT/V5AnEAAtKD/RXD4VAePHgg/X5fLxKZY3JgkgQAteoBAACmxz0BvOzs7MjBwYHI7YDCZ2dn+iwjhsOhvHnzRt68eSM//PCDDAYD+Yt/8S/OrGtStl031geASZEQAHKE/RUyphshm2EYUqvVYksMkAAAAABIBu4Jsqvb7Uqz2XSut6NcT0cZUPj09FTq9bq8e/dOLxIRkVarNZOkANuuG+sDwKRICAA5wv4KL35dCc1blBsW5FO/35d6vS4iIo8fP5ZarabPAgAAxuCeIHv0RIDKMAwxTVN/ekSU7eJnP/uZvHnzRn/aEfYzo1paWpLhcCgiImdnZ7K+vq7PMsK+fvRaN36KxWIqrjWj/GYAoLITAh/pBQCAfKhUKnJ2diaWZUmv1wt1YR2HYrEonU5HLMsSy7Lk4uKCZAAC2Tdzl5eXUq/XEzsoNgAAwLw0Gg3Z3t72DXjbAfQ4bWxsOI/v378vtVpNDg8Pnedm8Zlye99iazabrjI/UZMBIuJca5ZKJWm323pxYqhjqUX9jgAgIiQEAAC/SQ7MIjFAAgDT+u6771z/N5tNkgIAACA1ut2ulEolKRQKzlQqlQK78gzSaDTGBsar1ar+1NRarZZzTf/69Ws5PDycS236x48fO4+Pj49dZX7068cokl4J5f79+87j09NTVxkAhEFCAADgUFsNxDWRAMC0dnd3xTRNKZfLznPNZnOqG2kAAIBZ6/f7UiqVPGvy20HnqPRkgGEYI2N/lctl6XQ6rufSbJIKS7u7uyP3Jfb07NkzZ77V1VWxLEtM0xy5Z2k2m7K/v+96Lgm+/PJL5/GrV69cZQAQBgkBAACQeIZhSK/XcyUF7BtpkgIAACCJvBIBqqhd7OjJALl9D3tQYLlNBvR6PVe3MrM06651Li8vR2rB660tora4+KM/+iPnsd36wDAM6XQ6npVQkkbtuklfNwAQBgkBAACQCnZSQK29NRwOpV6vz/xmFAAAIIpGo+EK1FerVTFNU6wJB4H1SgboqtXqXJMBogXM9W6K7BYSUQP2p6encu/ePed1m5ubrnKvJEvYFhfHx8fy7t07kdtrS32Z7etNW9SkzTyoXQZ5rQsAGIeEAAAASA279lar1XKes5MCSR8ADgAA5IMevK9Wq3J0dDRxoF5/P125XBbTNKf6jEmpSQ+1m6JutysPHz50AtZRWnbu7OzI+fm5/vRYepc/Xp4/f+483traGuluSbRBe5Mo6csHIPlICAAAgNTZ3d11JQVEudEkMQAAABal3W67gvfT9uevv59umi6C1GD+JPTrLXsZ2u22bG9vy83NjavcrsQxjtolTrFYlI2NDfnss8+c5zY3N0fGBbAsSw4PD515vLx79841KLHfwMP69wKArCEhAAAAUskebFivDUZiAAAAN7Wf8WKx6CpDvPRkwKTBeptfMqBcLsvR0ZGcnJxM/P5Pnz51Hk8ycK/eCsLredG6uAnTBc+zZ8+cIP/FxYW8fPlSXrx44ZS/fPnSNX9Y6tgBGxsbvt/Z73sBQFZMnBCY9IQDAAAQF3UAOBIDAAB4+/77753HaQ1wdrtdz8Fk7X7mk3KuV2vdT5sMEO39VldXZXd3Vy4uLuTk5GTq31INsu/t7bnKwvDqLkgfO8E0TXn9+rXz/6T8gvdRqN0V/cEf/IGrzKYv/zStOwAgqT4SEfn444/15wMNBgMnq7u8vKwXAwAAzFWYxECj0XA9DwBAXqjdpHz99deusiQ7Pj52kgDb29u+A6iqlQDC9FHvp91uy+bmpjx58iRUTfZxpk0G6EmOq6srabVasbXyUAPflUrFVRaVYRgjYx1Uq9Wp10Gc1C6M9O9rJ5ySvPwAEJeJWgi8efPGeRxHlhYAACAOQYmBZrNJUgAAkEtq4FftviXJBoOBa1DaMOzEQFR2MLher8vp6ans7+/LvXv3XLGPaeitG1R60F+lB6eTTB/rYNqxE2bNblVi/zZ6winpyw8A05goIaCO9k5CAAAAJI2aGCiXy87zzWZz6tqDAABg9p4+fTpSS79arYppmq6BZPVKAMPhUPb3912vC2IPgKsnHt69eyc/+9nPIr2Xzk4AeL2/rV6v+35Gmrqu0ZMBcXSXFDd1eezkkddvU61WE7n8KnXZph0cGkD+TJQQ+OGHH5zHX3zxhasMAAAgKQzDkF6v50oK2DeAQTXyAADAYqkVEYvFonQ6HTk6OhoJ0tqVAB49euQ8pw9qG0Sft1wuu7pG1svH0ZcvjDCf4fe+/X5fNjc3517ZQb+OinvshFkYN06CnXDy2s6SZmNjw3msdgkGAGFMlBA4PT11HtNCAAAAJJmdFNBrDzLgMAAAyfXll186j8N0BdRqtZzHessCP/oAsqZpjgw2G/a9bH5BZ711g2maTtA5aqsGW7fblYcPH8rp6enY9RO3oCSGHkxPyrXW7u6uZ6uSNCUCbN98843zWB00HADCKFxdXVmFQkHu3Lmjl/lS+7yzLMtVBiB52GcB4Nf29/flyZMn+tNSLBbl8ePHUqvV9CIAAFIvrfcDa2trroB9q9WS3d1d1zy2fr8vX331lfP/uO/pNQDut99+Kw8fPnQNPish3mtSOzs7cnBwIHIbRDdN01Xu97t1u11pNpsjXd1EWc7BYCBra2vO/1FeK9qyqarVqhwdHbmeU39Hr/Kw/NZHHt3c3MjKyorzf97XB4BwTNOU9+/fkxAA8mBpacmp2XJxcSHFYlGfBQByw24d4NW0vlgsSqVSkcePH8vq6qpeDABAKqX1Hl4POnsFzW168iDoe7bbbVeNervP+1Kp5Nkfe9B7TWM4HMrS0pLzv/45Xr+bnsiw1Wo1OTw81J/2pSYj1tfX5ezsTJ8lkP7bSMDYAeq8asuIqLzWR56xPgBEZScEJuoyCEC63L9/33msdvkFAHlk9zWsNxeX2y4JDg4OpFQqTdR0HwAAzI5X9z39fn8kkD+uxZ/XALj7+/ueyYBZ0lsiBOl2u57JALu7myjJABGRFy9eOI/9ujmKyisZoBtXDgCYPRICQA6o/W++evXKVQYAeRWUGBgOh/LkyRMpFAqMMwAAQELZfeirXedUq9XA4Hi73R4ZAHd/f38k0G6rVqv6U7F5+vSp89hrfEY1eL69vT2SyJim33t1HVQqFVfZOH7XRZMsBwBg/kgIADmwsbHhPKaFAAC42YkBy7Kk1+uN3JDbAxmWSiXZ2dmZe+1BAADyyi/A3O12pVQqyfb2tquWfbValU6n45pXpwbVV1dX5fPPPx8JtKvGvd801Fr66j2bza/mvl/XPPPilTzxS5z4JQ8AAIvDGAJADozrmxIA8BtBYwyoGIgYAJAWab2H39/flydPnrieKxaLI4PpSoQ+9L36vrfZgfaw9079fl+ePn0q33777UhrwzDUZfEbH0FfB3bSY9pkwDTbhNc69BsbIK4BhWXKZc4i1geAqBhUGMgZ9lsAiC5McoCBiAEASZfme4GlpSXPsQNsUQPkfu+nvo86T6vVkt3dXde8/X5f6vW6k5jwC+YH0Qc2ljn/NtNsE14JAb/3UOf1SxqEoa8vv8/Lk2l+QwD55BpU+Mcff9TLAQAAcm9cd0KiDES8trZGt0IAAMTMr9scezDdqH3oe71frVZzvY/a+q/ZbDoVA+wBjL/66itXKwWvBIMf+z30ZECaWhzq6zto2dV59ddFoXZT5Nc9EQAgnMLV1ZX14cMH+fTTT/UyX2QhgfRhvwWA+IRpOSB0KwQAWCC9FrsuTeco9V4maouASQyHQ1lZWQkd6A/bXZFoXejYpqk5P6lp7g/VbozGfXd73nHzBdFbByxifSXRNL8hgHxydRlEQgDIPvZbAJiN4+NjaTabcn5+rhe50LUQAGCevALPXtJwflrEvYzed7+XqEHuRqPhOSDvvL6TahHrdBL9fl8ePnzoDB497TgEWZKW3xBAcri6DAKQfWoNCvtiCgAwvUqlImdnZ4HdConWtVChUKB7IQDATIU9v+hd37XbbX2WXNrd3ZVWq6U/LXKbCLAsK5ZkQBK6vxnX4nGR6vW66/610+m4ygEA0ZEQAHJCDVC9efPGVQYAiIeaHDBNU7a2tvRZHHYAhsQAAGAW1ApB19fXrjK/c9Tl5aXU63XZ39/Xi3Jpd3dXLMsamaIkAuwxA7ySAeVyeWEBbnX70MczSJLvvvvOeVyr1egqCABiQEIAyIn79+87j8d1awEAmJ46IHFQ64HhcEjLAQBA7OzBc2u1miwvL7vK1HOU1/mp2WxyHorJ9va27zgOvV5vYQFudXBlr+RQUqhJmSiJGACAP8YQAHKi2+3K9va2yG0N1l6vp88CAJgjxh4AAMzTuPt4fSBdwzBkb29Pdnd39VnnbtyyJ5U+GK6KvvAxrbTuFwAWhzEEgJxRa/2MCz4BAGbP7l7Iq2amiq6FAADzYBiG1Go15//hcChPnjyh+6ApqN0E6WMFLKqrIAAASAgAOaEGm/yarAIA5k8dd8Cv6wbx6VqoXq/L6empPisAABN59uzZyHnIq+97jNdut11J/GKx6CpfVFdBAADQZRCQI+y7AJA+YbsWUhWLRSmXy/LNN9/IxsaGXgwAyKEo9wLD4VCWlpac/8fNP2tRlj0p1tbWfFv10V0Q4pDG/QLAYtFlEAAAQAqE7VpIdXl5Ke12WzY3N6VQKIxMdD8EAAhC7fXp6K0DVOVyme6CAAALRQsBIEfYdwEgO87Pz+X58+dyfHwca1dwtC4AgGxaWlpyBgy+uroaO1B9ku4dkrQsYfi1DiiXy9Lr9Ui4IBZp2y8ALJ7dQqBwdXVlFQoFuXPnjj6PL/VCgoMOkB5cMABAPswqWSC3CYNKpSKPHz8eG0wCACTHV199Jf1+X0REDg8PXQMIe0nSvUOSliUMdXlVpmmSDEBs0rZfAFi8ibsMGgwGTjJgeXlZLwaQYOrF583NjasMAJAd6+vr8uzZM7m4uBDrdrBidYrS/ZDu8vLSNbix3QURAxwDQLJ98803zuPvv//eVYbZq1arJAMAAIkQOSHw5s0b5/GkN5IAFkPdZ9V9GQCQL/a4BHqiwLIsOTs7k0ePHkmxWNRf5ivMmAUkDABgsSqVivM4zcfjbrerP5V4jBsAAEiSyAmB8/Nz5zEJASBd7t+/7zxW92UAAGyzaF3glzAgUQAA8xOlhb9X//ciIv1+XzY3N6XdbutFM6XWrK/X64lPCugtARg3AACQJJETAj/88IPz+IsvvnCVAUi2n/70p87jP/mTP3GVAQAQhlfrgklaFUhAooCkAQAs1tOnT53HahLYPh7X63XZ3993np+1vb095/FwOJR6ve4qTxp1eWu1GskAAECiRB5UeGVlxel7/O3bt3L37l19FgAJdX5+Lvfu3RO5HRTy4uJCnwUAgNjNcpDjcYrFopTLZfnmm29kY2NDLwaAXCmEHIR0bW3NaSXQ6/Wc7oZ2dnbk4OBA5LYWvGmartfN0v7+vjx58kTkNsh+eHiozwLkStj9GQBs9qDCkRMCHHCAdGMfBgAkxSITBYtGogLAIoS5FxgMBrK2tqY/7cnvPQDMllrZb3l5Wa6vr/VZAGCEnRCI3GUQAAAAEIdx4xVM0x1R0oXpLimuiW6XAPjpdrtSKpVcx4ywyYBqtao/BWBO1HM6FQsAREULASBn2IcBAHmS51YIwDzR6sVbVo9B1WpVOp0OfeMDC/LgwQM5Pj4WEZFnz57Jo0eP9FkAYARdBgE5xT4MAMDiZTVICCBbCPwDyaSO73l2duYa/BsA/JAQAHKKfRgAgHwh+QAgiBr0V+8VTNMkEQAkFPf1ACZBQgDIKfZhAAAAxI3Ek7fV1VWpVCqJ6Uop6F6g3W5LvV73LQeQHEH7MgD4cSUEPnz4IJ9++qk+jycOOkC6LS0tyXA4FBGR6+trWV5e1mcBAAAAoFCvoVutluzu7uqzpELQ/fza2poMBgOR21YDR0dHrnIAyRG0LwOAHzsh8JFeACDb1L4F37175yoDAAAAMKpWqzmPm82mqyxN1C6A1JYcg8HASQaIiHQ6HecxAADIFhICQM6oCYHz83NXGQAAAIBRrVbLeWy3FEij+/fvO49PT0+dx2qSY319nbEDAADIMBICQM589tlnzuNf/OIXrjIAAAAAo7ISIP/yyy+dx69evRIRkUajIe1223l+b2/PeQwAALKHhACQM3fv3nUe02UQAAAAkB/qwManp6fSbrddrQPK5bJUKhXnfwAAkD0MKgzkzGAwkLW1NRERWV1dlaurK30WAAAAAJos3AsPh0NZWlpy/l9dXXXGDiiXy9Lr9TLTGgLIsiwcjwDMnz2oMAkBIIdWVlbk5uZGRESur69leXlZnwUAAACAIiv3wur3UJmmSTIASImsHI8AzJedEKDLICCH6DYIAAAAgIpkAAAA+UBCAMih9fV15/H5+bmrDAAAAMAoNWC+v7/vKku7Wq2mPwUAADKKhACQQ5999pnz+Be/+IWrDAAAAMAoNWiuDsSbdrVaTQ4PD/WnAQBARpEQAHKILoMAAACAaFqtlvN4OBy6ytLKsiySAQAA5AwJASCH6DIIAAAAiIY+9gEAQBZ8JCLy8ccf688DyLDV1VXnhmYwGOjFAAAAAAAAADKIFgJATmWlmTMAAACA8NSWDpeXl64yAACQfSQEAAAAAADIifv37zuPT09PXWUAACD7SAgAAAAAAJATX375pfP41atXrjIAAJB9JAQAAAAAAMiJjY0N5zEtBAAAyB8SAgAAAAAA5ITaZRBjCAAAkD+REwLqAEQAAAAAACA9uKcHACDfIiUEBoOBDIdDERFZXl7WiwEAAAAAAAAAQEJFSgi8efPGeby+vu4qAwAAAAAAAAAAyRUpIXB+fu48JiEAAAAAAAAAAEB6REoI/PDDD87jL774wlUGAAAAAAAAAACSK1JC4PT01HlMCwEAAAAAAAAAANLjIxGRH3/8UX/e083NjfP47t27rjIAAAAAAAAAAJBckVoIAAAAAAAAAACAdCIhAAAAAAAAAABADpAQAAAAAAAAAAAgB0gIAAAAAAAAAACQAyQEAAAAAAAAAADIARICAAAAAAAAAADkAAkBAAAAAAAAAABygIQAAAAAAAAAAAA5QEIAALBQ5+fnsrOzI6VSSQqFQuSpVCrJw4cPpd1uy7t37/S3BwAAAAAAwK3C1dWV9eHDB/n000/1shGFQsF5bFmWqwxAurA/I27n5+fy/PlzOT4+lsvLS704EYrFoty/f1++/PJL2djYkLt37+qzAAAA+MrKNXRWvgeQV+zDACZhmqa8f/+ehACQV+zPmFQaAv+TImEAAACCZOUaOivfA8gr9mEAk3AlBAqFgty5c0efZwQHHCA72J8xzrwC/6urq1KpVOSbb76RjY0NvXis8/NzOT09lVevXsnp6anc3Nzos8wMCQQAAPIlK9fQWfkeQF6xDwOYROSEwPn5udy7d09ERJaXl+X6+lqfBUCKcAEBVRzB/2kD+/Mw7+QBCQMAALIlK9fQWfkeQF6xDwOYROSEwMHBgezs7IiISKVSkV6vp88CIEW4gMinm5sbOTg4kOfPn2c68D8pEgYAACBIVq6hs/I9gLxiHwYwicgJgQcPHsjx8bGIiDx79kwePXqkzwIgRbiAyL5pg/9ZDvzHZR4JBJIGAAAkR1auobPyPYC8Yh8GMInICYGVlRUn0HF2dibr6+v6LABShAuI7Jmm2x+C/7NBwgAAgGzJyjV0Vr4HkFfswwAmETkhwMEGyBb26XSbpvZ/sViUvb092dra0oswZyQMAABIl6xcQ2flewB5tbS0JMPhUERErq+vZXl5WZ8FAEaQEAByjn06XSZNABD8T79ZJw1IGAAAEF5WrqGz8j2AvPrZz34mb968ERGRk5MTKZfL+iwAMIKEAJBz7NPJNkkCgG5/8omEAQAA85OVa+isfA8gr3Z2duTg4EBERFqtluzu7uqzAMAIEgI51u125fnz5/Ltt99SazjH2Ken0+/35enTp7HuR91uV5rNZugEALX/EcasEwYqkgcAgKzLyjV0Vr4HkFfdble2t7dFRKRSqUiv19NnAYARJARyqt1uS71eFxERwzDENE19FuQE+/R01tbWZDAYTLwfRQ3+CwkAzMgsEwarq6tSLpfl66+/lkqlohcDAJA6WbmGzsr3APLq/Pxc7t27J3J7n3hxcaHPAgAjSAjklB3EFBGpVqtydHSkz4KcYJ+eziTrr9/vS71eD50EIAGAJJhFwqBYLEqlUpHHjx/L6uqqXgwAQGJNcg2YRFn5HkCesR8DiIqEQA6prQPkdiMwDMM1D/KDfXo6k6w/NSHnp1qtSqfTYd9EKkVNHhiGIVtbW4x7AQBIjUmuAZMoK98DyDP2YwBRuRICHz58kE8//VSfx4UDTfrROgAq9unpTLL+1NcIwX/kwPn5uTx//lyOj4/HtoxZXV2VarVKqwEAQKJNcg2YRFn5HkCesR8j625ubuTg4ECeP38+cj9JjwqTISGQQ+pvOK51AAMPZx/79HQmWX9LS0syHA5FIrwGyKLj42NpNptyfn6uF4lhGFKr1UgMAAASaZJrwCTKyvcA8oz9GFkVdszFScd0zDM7IfCRXoDptNtt2dzclP39fb0oUYKSAe12W7a3t+X09NTVxRCA6ezt7YmISK1W04uAXKlUKnJ2diZnZ2fy6NEjKRaLTtlwOJSDgwMplUqys7MztpstAAAQjZqQX15edpUBALAo3W5XSqWSbG9vj00GyO29Y5r1+30plUpSKpWk2+3qxTNFQiBGdh/9p6en0mw29eLUUJe9Uqm4ygBMbnd3VyzLksPDQ70IyKX19XV59uyZXFxcSK/Xk/X1daeMxAAAALNxenrqPGYMHwBAEtiVk/VEQLFYlE6nI5ZlOZUsbdVq1fV/mnS7Xfn666/l8vJSLi8v514hO1RCgJvwcNRA+nA4THwrAT/q793pdFxlAADMgt1qgMQAAACz9erVK+fxl19+6SoDAGAR9IrV1WpVTNOUi4sL2drakkaj4ZqnXC6nLmZpt4AoFAqyvb0t//pf/2unbN7dtYdKCDx9+tR5rN6kp53aNKPdbuvFkbTb7ZEghb4xL5K+bGG9ePFCfwoAgJkJkxhIa8IdAIAkoIUAAGBRvLrJaTQarrilaZpydHTkdHfulQzo9XqB3aEnxc3NjTQajcCukKrV6tx7kgg1qPDa2przw/R6vcx0I6N+LxGRVqslu7u7rnnC0t/LlpSBXXZ2duTg4EDkNqlzdnamz+JQBz41DEMODw/nnqnC7DEA0XRYf8B8+A1AXKvVZG9vj4GHAQBzlYVrwCx8BwDsy0gnNX5qGIY8fvzYFeyvVqtydHTk/J/GZMDNzY0cHBzI8+fPPRMAqv/sP/vP5I//+I/n9n3sQYVDJQSyeJAZDAaytrbmem7S0am93suWlPUVJamzv78vT548cf6fdL0g2bK4X88T6w+YL6/EAElrAMC8ZeEaMAvfAQD7MtJJ3W7/wl/4C/K//W//m/O/Guy/ubmRZrPpVG7Wy5Oq3W7LkydP5ObmRi8SEZGf/OQn8m//7b8VWdD3sRMCoboMyiK1GyTbcDgcqYEYRhq6VFJbLwQlA+R24NNWq+X8n/ZRuwEA6VepVOT169euc9hwOJTt7e2Jzt0AAAAAgPipfeUXCgWneyC9u/Z//s//ufNYDY63220plUqpSQao3QLV6/WRZIA9MPKjR4+cZMD6+vpCv09uEwJq3/jFYtF5PEm//+p76SNep5WaFKjVanpxLOwDhNpvGAAAfgzDkF6vJ71eT+7eves8P8m5GwAAAAAQr0ajMdJX/uXlpdTrddd925dffumqvNzr9eTFixeeQfUkJwPs5EWz2XR9ZzsJYFmWMzCyHj9e5PfJZZdBehc/Z2dncu/ePef/KGMJ6O9lWVYi11eSlqnb7Y7sKHRLNH9J2ibSiPUHLNb5+bnr3L23tyeNRsM1DwAAccvCNWAWvgMA9mUki1cXP6pareZqIfDJJ5/Ir371K+f/w8NDqdfrzv9yG1Tf29tLbBex+vgGtmq1Kp1OZyTgn4R9NlKXQeoXyEJtbr2Ln/X1ddfG5fVj+tHfS7T1RTcGv3FzcyM7OzsjmUIRSezODQBIJq9zNwkBAAAAAJgftbscvYsf0zTFsiyxLEt++tOful6n9kZy9+5d11imchtUtwcctrseUrsfWjQ9GaC2CDg6OhpJBujdJS1a4erqyioUCnLnzh29zLGzs+P6UdNcm3swGEipVHL6xbcH2B0Oh7K0tOTMFzZT4zVY78OHD51mIJVKRXq9nvaq+Vt0FspvUA2/rBlmb9HbRNqx/oDFGw6H8uDBA+n3+85zZ2dniR3PBwCQflm4BszCdwDAvozF84v1eXXxo8ZPq9WqHB0deZaFsei4dLvddrVm8Pq+uqDv76Xf70u9Xh+pUC1TtpywWwiESggMh0Op1+uuDExaDzZqcmN9fV3Ozs6csqWlJSdRELbrAa8DsN6NQRLWlddyzou+o0jInQWztchtIgtYf0AyDIdD+eqrr+T09FQkQYl4AEA2ZeEaMAvfIc/0INE0gSGkG/syFkmvIS9jjkfq9mqapiseqMZjw1rkNq8G98PGN4O+v5dxSZJJkyKRuwzqdDr606mkD+CgUpurNJvNibv7oWbibwwGA9nZ2XH+t5vQnJycjN34gaSyA4+iDUoOYP4Mw5Bnz545/x8fH7vKAQAAsqLb7crDhw89B+sEgHnRkwF2rM8ePHccPR6ox2fHUeO3ceh2u7K5uRm6KyJ9MGT9++j0wP64+eW2K6YgURMoulAJgSxRf4RKpeIqa7VasrGx4fyvZ7oQXbPZdDbS9fV1efv2baiDA5Bk33//vfO4Wq26ygDM3/r6uuuiatKEPgAAQBKp4/F5BYmmDQwBQBj2sUiNl5bL5aljfbu7u2LdjjVgT4eHh7K8vOyazx6X4PDw0PX8NNrttmxvb8vp6Wno5Kp67xkmuO81/uw4dpKkVqu51kuYzwsjdwmBIFFrGeoZHri1223XoBl7e3uBG646EElBGSwkaQNvAOqx4euvv3aVAVgMNclPQh8AAGTF8fHxyGCdOiopAZi1drs9ciwK211O1Lheo9GQer3uSoCG/awo+v2+azBjveK4HzVYH0ZQbzV+7CSJnvyI+tl+Qo0hYEt7/2SDwUDW1tac//2+Q9jvGTQeQdj38KL2CRjU/1YU0yzPJPTBm8vlspycnOizOfwGIrG1Wi3Z3d3Vn8YU5r1NZAnrDkgeffwezhsAgLidnp7K5uamyG33CBcXF/osqcC1bLro/UjbQbGlpSXnuTD9USN72JcxDzc3N9JsNkeSklEC9GEH1O12u9JsNl3dosUVF/WiH19ncSwNG4uel0hjCGRF2CYa6o8fNLDwJBmecfr9vqtPwLT2B/j06VNXV0FBAzzagw77JQOE2p4AgDHW19ddF4mcNwAAcaPbSCyCGqzyG49P/x8A4tDv90daBUwyNqh+HNN1u10plUqyvb3tSgbE0R1REHW5arVa6O8TRdhY9LzlKiEQNoAfdnDhoPEIJuXVJ2Ac/QGqG/X+/r6rbBb0de23U/kNOmxZliszNxwO57LcAID0UptTxnHuBABARbeRmDe9guKsgmIAZsMOdNvdYgdNpVIp9KC28zAYDOTBgwcj3fZMG6DX44ONRmMkESC3ifewLRDioHfNExc9PpoUobsM6vf78tVXXzn/L7qJwyTCNqcaDofy1VdfyenpqchtsF+v4T6uyUfYz1LZNeW9hHkPv6Y1jx8/ll/84hdORs8wDDFNU3llvMatG1W9Xnf6EltfX5fXr1+7dna1W6ZZL3feTLKN4tdYd0ByLS0tOcmAq6srWV1d1WcBAGAiWbkGzMr3yDo9PqB3s8HvCLaBxbu5uZGDgwN5/vz5SEB7EkmKe6nxutXVVWm1WhMnAtR7NHVb1Y9zcnus63Q6c0kEzGMfmsdnRBG5y6Dt7W3X/0nLXMXJCDG48CyafPh1bxCmOapfRs3uckjNSM261mTYddNoNMYOOtxqtZzHs15uAED6bWxsOI+9zt8AAABpoMYHyuXySDcb+r0zgNnTa/yvrKyMVMydxqQB97jp8brDw8ORZdPXhT15xYv9BsJV44flcllM05SjoyPf45v6mV6fE4Xa60suXV1dWYPBwBrHMAxLRDynYrFoHR4e6i9JHHWZwwiaf3V11Snr9Xp6ceBrdScnJ1axWBxZryJilctlyzRN/SUue3t7I68bN83SuHVjeSxzuVzWZ3Go216r1dKLMaF5bQ9ZxLoDkqvT6Tj758bGhl4MAMDEsnINmJXvkWVXV1eu38krJtBqtSwRsWq1ml6EHDg7O3O2j+XlZb0YMQiK1UWZfvKTn3juw0l1eHjoWn47XtfpdEKvD8Mw9Lf1ZMcGK5WK5zoa95lhP8fLo0ePnPdZX1/Xi2OjLm8SfPjw4dfnmLAJAftkM24qFovWo0ePrKurK/0tFurly5euZQwjKBA97gcdV65SA+jqFCYZ4LWj2q8xTdPa2toaed8wyzSNcZ/jlQwI+p7qTjrNzg63cb8T/LHugOS6vr52nb/Pzs70WQAAmEhWrgGz8j2ybF6BKqTXs2fPnG2kUqnoxYhBUCBanYrFotXpdJzX6XG6arXqet+k02OU+v9hp0lcX19be3t7odf9NAnRMJWZ4zDtOombnRD4SETkxx9/1BsOjNjd3RXLssSyLFc3LrrLy0s5ODiQtbU1pwnHzs7OzJti3NzcSKPRkM3NTc8mI99//73zOEwXPOIxuLBNbTYTB30QYbltKhNm8Ay9GaH6GsMwpNPpyKNHj5RXLFaj0QhcZi90GwQACGt5eVnK5bLzv193fAAAAEmV1EEokRyvXr1yHn/55ZeuMsTju+++058SuY0pmqbpxEgvLi5c3enoMS+9u6+k0+O3+v8qdV1McqyyY7l2N0BRumAyDGOqgYDV71WpVFxluXB1dWX98pe/1BMGoQXVQlcnwzCsWq1mvXz5Un+LyMJkjHRq5uf169d6sSfTND3fU30vv0yf1+v8eLW+CKoxrwrzGq/faJb8PidqywCV33ticqzTybHuks+raWFaurfD9NQm1OynAIC4ZOXckpXvkWXqb6TWPAZsy8vLzjZCi9jk0FsHhI15JUlQl/HVatXzO+nxPr9Yqdd9epRJX7ZpxPU+40zyOScnJ9bGxsZI/EKPh+utU8JwdRk0TUJA1+v1rPX19ZEfbZ6TV3MptTwKr9epz3ntCJbP68aZ9WuCukAax94Yw2xoXsukHxyiJAMsn/fEdFink2PdJdf19bWribXXFPX4h3RiPwUAxE29n0paF7lR5OUcqff/nabKIeq2Rre58JKX/ThtwlQgnhc1eBwlcKxWWg7zOj0Josf79GPxuCnoM9X5pukuyJrjPjTJ50RZX1HPETNLCOjmmSAIu9FEoQfR9Q3dzyT9F4d5X12U15TLZWfeqBuMfVAzDMN3Hdv0ZZo2GWBp6xPx0H8nhMe6S6bDw0NXTRm/KerxD+nEfgoAiJt6P5WWwLKXPJwjO52O73Xh3t6ePnvi6L0IpCmZgfnIw36cRurvEjXuFYegGvizuA++urpyxeu84n1+y2NPQbFcVdh4bBhxvtc4k8Qzx1VyVKeoiZG5JQRsZ2dn1qNHj8ZuCGGnsBuMTX1tFPqAtmGzfdVq1ZnPq8WCl0mWUX1N0PrQg/JRPsPSPmfcQUTd2PXJ6+AQhn1BFHVDh79JtwVMdkCfFb8TftRjZNp5HeP0QdbZ5vNF3U8vLi70YgAAIut0Os65ZWNjQy9OjaxfE3ldF+pTUItR9fp6kYF4r4DQIpcHyZL1/TitJv1dovTKodK7kBk3xa1Wqznvvb6+7hnv0xOc9hQlZtHpdKyf/OQnzmu/+OILfZZIwsZ24zBJPNOr6/dJ1puXuScEFk1deVGYpukb4Pba0G2T9F8cdX4rRFNCv2BhlA1Rz5yNWz6vCxeZIhmA2Qj7e8Lt6urKWW/Ly8t68Vz47df6ZBjGQm8YgpazWCxajx49sjY2NgJvyMLQb/r8TpDqPMi+jY0N5/f22h4AAIjq+vo6E9cTi/4Okwa+wvC6d63VapZpmqFazOvXlfbkd32pOzw8jOX61goREFrkdT4WT90ekByT/i5qrxxhBN1rB01x8fr8R48e6bNFpp4fvD7DnsKuJz/qe+UtTpmrhIAawJtkB/ALcI8TZV5rgvmtgEyb3zRJUP7u3buu9xiXTPC6cPEbeASLo/4+CK/X6znrbd41w6L2vWdPi2gW7Xcz5TVNczLXb/r8jnEnJyeu+ZB96ja4tbWlFwMAMJG0X0+oFdcWVbklauArrJOTE1c3Qfp1oWmaTkt+r2uDcdev45ZXvS4dN28UXvfX9hQ2UYHsUbcDJMekv0uY1wUFyNVJjb/FXRM+aBniOO6pyxs0jYtLjqO+V97kKiGgBvTX19f14rH8WgmME2Vea4L5bX4JC32aNCivNgGadqdDcky6veWdeqMQRwY8Cr+To75veyUKg2op2Sf1uG4o9CB9mGkSYfortOnrDtn38uVL5/cuFot6MQAAE0n79cSzZ8+c5Q/btW3cZrUO9es9v+tCL3oyoFwuW9fX1yOB+CB6kCxufomBOIJwSJckJPbgbZJjwLhKzOMqBvrdx+vHtSjHRC/6+3lNQXGHINfX16Fjm+KxjqKK873SJlcJAfXCoNfr6cWh6AG2MIHxqBtY1PltfhcG9qQHCwFriu0t7yqVirPejo6O9OKZ0hOTQfu1OWGzaL/5olCPuX5BevUzJ90Gw/RXaHl8xzDHb6SfybgRAIAZSPu5Rb2WffbsmV48F5OswzDdDE16vadfK6rXr3pZkCjzTsPr/n/SIBzSKQmJPXib5BgwrhKzXzIgKNanV9KbpnWAX0JidXXV6nQ6I2OvRnV4eOg7CLz6HdXnpxXne6VNrhICi/qh1eBdmBP0opYT+cT2Nhn1RPX27Vu9eKbUxGSY7orGBUT1mxaJePPkRb/w8LpA0WtAeC3bOPrn+CV79e84zYUQ0meabQwAAC9pP7eo17JnZ2d68VxMsg7DdDM0yfvq14pByYAw15FhlsGvyw2/Wr5+pg3CIb2SkNiDtzDHAN24SsxqHCAoCWCL0pI+DL31lb6s4+IOQfTjrN/31GMI0wrzXnH3pJAUJATmIOoJWt1h98b0+d3pdMbWkACCLGq/SLtFr7cwN0Mqv+XVT7zTXiRYHhcefjdNXk0Bo9A/p1wu67NY1oy+I9Jl0m0MAAA/aT+3JGH5J1mGMK9Rrw/DBHD0CiZByYCw15F+y+mXBNCnsNf41pRBOKSbGqBdVGIP3oL2Sa/jgP5/HMK2pB/Hr2WAeNyDR/0Ofu+tJwJs41pRRBW0vF6/U5Rjc9KREJiDqCdoPUjmlRTQN8wsbZSYryjbJn5j0est6ud7ze9383N4eGhtbGyEatHkRT9Je53ILZ8aBlGE+ZxJb+KQLZNuYwAA+En7uSUJyx91GfTrOj/6/fS4e2Wvbi71+221bBz9GtumL3/QFLW1rtfnIdvUmtKMH5A8+j7pdUwJmqalH2+8WhyEoQ/SLmOOhVG/gx4TCHpvK0Qriqj8enTR1589RT02J5krITAYDPTyTIm6YcbJbyPzYmp9foeZ/GrgAuMscr9Is0Wvt6ifr8/vVbveTgbYz427efIT9iStLlOU72J5LL/+OV6DEY27uEB2qdvKxcWFXgwAQGSTXL8kSRKWP8oy6EH2oNeYHn3r65Xs7LEIqtWqa77Dw0PPoF2U60j1Wti+T/cLLvnVgo1KfU/kQ6/Xc37zMN3IYr7UfdLrmDJumoZ+vNRr8UehL/u4Y2HU76D3LBD03tYE7z+OHjPwm8IsW9qQEJgTvdugw8NDfRaXKEmBLG6YmJ9F7hdppp64FiHq76bP71e7Xs/QTyLM6/WLlHHz6/Tlt/nVvBh34YJs29jYcLaFcd0GAAAQxiTXL0mShOWPsgz6NWqY1+iBHjUp4PV+flPU+231taZpjiQD4r4u1d8f+aD+7o8ePdKLsWD6cUSf1OOKOjaATNkVjl5xbtrjTdRxC9TvEYb9/mFr3kd9/3FM03StL32adv0lGQmBOfHayMb1Z2h61GxQpzA7IzDOIveLtEpC88yov5s+v18tfnW+sO+tG/d6/SJl3Pw6/fX28us3Q/aU5ZM4wlG3ja2tLb0YAIDIol6/JE0Slj/sMqjX3mFfY/lUsrNb6/tdi6rTpPfb6nvo16dxX5fqlWzoOSA/1AGFj46O9GIsmH48GXdM8bs/V+mV34rFoquy8fX1tavVk1+3urOiH49mYRbvrydk7Cno98oCEgJz5LWRTdolBxCXRe8XaZSE5plRfzd9fv1/r/n0srDGvV6v3T9ufp1e28urRYD9fFDSFfnx8uVL13YBAMC0ol6/JE0Slj/sMqgDY4Z9jU1PCtj331735vY0bRBIfz97ijsZ0Ol0XH17x/3+SDb1t3/79q1ejAXTk47jasCr83rRg+3qVCwWrYcPH4709e+XWJgVr+7S4jZuPSE8OyHwkeSAYRj6U3O1u7srpmnK1taW85z6GEA6nJ+fO4/X19ddZWnQbrf1p2IT5r1fvHjhPN7b23OVhaG+XkTk8vLS9X+5XBbTNOXi4oJjLERE5P79+841wOXl5cg2AwAA5k+9P9/f33eV2drtdqjrSz+GYUiv13M+azgcyv7+vuzu7srq6qozX6/XE8uyxLIsOTo6ij12UC6XXcsxrXa7Ldvb23Jzc+M8F+f7I9nOz8+d3355eVnu3r2rz4IFq9VqzmPDMOTw8NBVrhoMBvpTI54+fao/5bi8vJSjoyPX8aBcLkulUnHNN2vq9+h0Oq6ySfT7fSmVSlIqlaTb7erFiEkuEgJ24EndMefNMAzpdDrOxUbQQQHA9M7Pz2VnZ0dKpZIUCgXXVCqVJrrB+OGHH5zHX3zxhassifTvuLOz4zyuVquusmk1m03nsdd7t9tt14XCJBcpQRdM1WqVmyGMMAxD7t+/7/x/enrqKgcAAPOn3per15Aq9flyuewqC8swDM/PmvaaNKy4kwHdbleePHnieq5Wq8X2/kg+9Vp2Y2PDVYZkaLVazuPhcOgq06nBfrvC4c3NjTQaDdnc3JRutyvffvutyO2xyjTNkcrGtkKhIL//+78vJycnetFcTXo86na7Tuzmq6++cipz1et1fVbEJQ9dBgEYlYYmVxcXF1an07G2trZ8u4eJYwrbxUwSmmeqy233hepHbbr32WefOY/1PgW9miFGpb7Wq8myVzPCqJ+nL+O0zbqRD4wjAACIU9Trl6RJwvKbpjl2OdTyi4uLsfP7MbUx/fQug+KiX0/r19vT0PsPt6e43h/poY4f8OzZM70YCaEec9RBzXXqPfL//D//z9be3t5I9z9e9LH11Cno82ZBP/aFcXJy4nlM85rsLpeifgb85WoMAQCjZnVAnVcQP+7JMIyxSQF1/kXRl9mPPpDZnTt3nMd6n4Lqhcik3y/otfqAcPbNS9BrvESdH7AYRwAAELO0X48kZfmDlkMPMOnjUEWlvl4PosVFv57Wr7fDChsoG9cvObJJ3c7Ozs70YiSEPvbd119/rc9iWdpxUE8EiIhVqVT0l1iWNr5KqVSy/vyf//Ou1xWLRevRo0fW1dWV/tLYeVX8GyfMMU6045z6PKZDQgDIubAH1Ovra2tvby/0QTsp0+rqqlWr1ayXL1+6vo9pmtbW1tbI/DImwG5FWGezpC+zVw0APRlQrVYDl11/T695xgl6rXrBot7EBb3GS9T5AStkLUQAAMLSa5unTVLOiX7Lodd8rVarroDTJIF2/VrA77Onob5nuVzWi0Mbd89FC9n8UitZLS8v68VIkD/+4z+2lpaWXPuu1/lC37/tKagHA/1ev9frjQyibk+GYXh+bpzUzwt7bNJbatlT0PFNnQ/TISEA5JzXAdWvOeqiJsMwrHK5bLVaLev169eu5Y+DfiIaV9NGnXdR9HUkWlJAv0Aol8sjN0E6/f285hnH77X68qg3cX6v8RN1fsDGtgMAiIte2zxt1HOiV6WfoEBUnNTPVD9Pr0gy7jo2LPU94ng/nfqefgGtMPT7E3sKCpQhH3q9nrM9bGxs6MVIiJOTE8/a/ur54uzszLOS4rjjr35vrSYfgyo+elUijIv6ObNycnIyl8/JCzshULi6urIKhYLcuXNHH14AQIYVCgX9qVgYhiEbGxvy5ZdfysbGhmtAz7RT19mvz33zF+V3Uwcy81v2drvtOVBP1O+3tLTkDJrUarVkd3dXGo3GyIBw6iBHfsvkJ+r8gI1tBwAQl+FwKEtLS87/ST6vnJ+fy/Pnz+X4+FguLy/1Yl+GYYhpmvrTsVKvHe3P068de72eVCqVWM7jftfQk76fLo5lBIKo+8ejR4/k2bNn+ixIgFKp5Hm83draki+++EKePn3qWd7pdDwHC7bpx8egQcuPj4+l2WzK+fm56/lisSiPHz92DbY+rXkc+9bW1lyDwc/qc/LCNE15//69fKQXAMgHrxOHn2KxKJ1ORyzLGjuZpiknJyeyu7ubqWRAEpXLZf0pR9AFgkq9qJiGelHx5MkTKRQKnhcstkaj4TwGAABIC8MwXNdXpVJJut2ua55Zu7y8lG63K9vb21IqlaRQKHhO9+7dk4ODA8/gU5CgoFRc9vb2nMfD4dDz2rFSqTj/T6PdbutPAanzww8/OI+/+OILVxmS47vvvtOfkt///d8XEZF6ve57PPY77vb7fSmVSiPHx6B7/UqlIq9fvx6JF1xeXkq9XpdCobCQc9ckGo2GKxkQZzIjLv1+XzY3N1OxPl2urq6sX/7yl3oLAgAZZA9SVSwWrd///d93NbuyJ5qj+lPX06Koy+DXLNDrN/Rbdv21XvOEYZrmyCBt9mR3W2TTB4oL+3lR5wdsbDsAgDjpA0YahhHYzcOkzs7OrEePHo106xPXNK57ilkLe+2olo3T6XSsjY0N1/fSB72cxTgQUZYRmITaDc3bt2/1YiTQ4eGh5/HbHu9w3HGj0+mMdD+kHx+D+MUL7CmObu/U94v7fKLHDcIOWjxv9jkmjvU5D64xBEgIAPmgnozScrBKEvVktCiTLoPX6/Q+CL3micKrz1M9OaEPFBfl86LOD9jUbe76+lovBgAgEq8gS9SkwPX1tWcf/nFOdtDp5cuXzueq5YsW5trRijCQsxo8su911IFY5bZCjT4OxOHhof5WzthqYZMmSVqvyJ6zszNn+2JA4eS7vr4eSRzbkx3Q149NOj0YLj7Hx7C8zlvjxlAMQz0+xx1jUs+PURIh8xb0OyYRCQEgh/SLbkSThHU36TKoJ+qtra2Rm89qtTrxe0fhd2EURtT5Adv9+/edbWcWA5QDAPJJv7b2SgrYgWX92meayTAMq1wuW61WK/J5TX2ftNAD+H70lgCWxyDF1piWrV5T0Gfa1PcD4vbs2TNn+6pUKnoxEsJO9Oq1+r2Ss+pxzT42qfTzRhzB+1lQz4NxL6NdgbFSqSQ2GaAnbtKAhACQU2k7WCVJEtbdpMvgF4gXJduuPqffzMbBr3VA2O8SdX7dycnJSBNy5IMaDPCqBQgAwKT0pECck1cQaVrq+6eFfp3q5Q//8A9d85imOdIattfrOfNH+d3CBLns9wszLxBVpVJxtsdnz57pxUiAw8PDkUSABNRsVxOY6rHJloZgeBap3WyHiRt4JaKTjoQAkFPqyQnRJGHdTboMpmla5XLZ9Xr7pGVfYMyyuZ8VkJTwqhHhRV2+s7MzvXistPXth/iotaoePXqkFwMAMJUowWV1ChtwiJP6+WmiXgfu7e05z/t1zaEnA8rlsuv9LJ8uNNRpmu45gDipQcdJ7oMwW/rxRkIc39V5kRzqvjYubqC3DkjL+cJOCHykDzIMABh1fn7uPF5eXnaVpYFhGNLr9WRra8t5rlarydHRkRiGISIie3t7TtlwOJRCoeCaSqWSdLtdZ56oXrx4oT8lon1ukEql4jxuNpuusnHa7bYMBgOR2++GfLl7967z+N27d64yAACmtbu7K61WS3/aUa1WxTRNsSzLNV1cXLiuzeCvVqs5j5vNpnN9urKyIgcHB6557Xls5XJZer2eq1xur487nc7I72JP6nUysCiDwcC5j1leXpb19XV9FixQo9FwHW+KxaJ0Oh2O7zPU7XalVCqNxCv0KWr8Qo0ZiMjY30/93avVaurOF4Wrqyvrw4cP8umnn+plADKoUCg4j3+dmEYYBwcHsrOzI3IbmPa6qZiHpaUlJ6DdarVkd3dXn2UqOzs7njdVNsMwxDRN/elQ1G1PFXY7PD8/l3v37jn/h32diMja2ppzcq9Wq3J0dKTPggwbDAaytrYmIiKrq6tydXWlzwIAQC6k9V5gOBzKgwcPpN/v60WB7GRA2gI1gO34+FgePHggIiIbGxvy8uVLfRYsSLvdlnq97vwf5XiT1mPxPHW7XWk2m3J5eakXhRYlfhE1ZqD+hqZphvrdk8A0TXn//r3QQgAAQnj16pXz+Msvv3SVzZNeOypurVYrMBMeVBak3W7rT0W2vr7uOsmqrTaCNBoNV6a/0+m4ypF9q6urzrajbgsAACAdvFq72orFovz2b/+2/nSk4ByQVOo9D60DksWrJRLHm8n0+/2RWv/b29tTJQNERP7sn/2zoVsJRIkZNBoN1/9p/N1JCABACKenp87jjY0NV9k8qc3RZ9H1zbim04eHh/pLxhoMBk7rCrkNztqKxaLzOIyo3QbpTTjT2JQP8ZjF/gIAyJd+vy+bm5uhgwuIl9916sXFhfztv/23XfNWq1WCc8iEH374wXn8xRdfuMqwWDc3N87jqMebSSq6ZVW/35eHDx9GCv77dcWnTqurq/Iv/+W/dLXi8KNXYAz6Ldvt9kiMIY1ICABACOrJfpE1M4JOTEnVbDadYOz6+rqUy2WnLOrJ8/Hjx87j4+Pjkcy8Sk8GlMvlsZl+AAAAP9vb23J6ehoquID52t3ddQWC6P8fWaFWTFvkfShG2WPh1Wq1yMebqBXdsqxer7viLSq/wP+4Y3zUMQSjBPizEmMgIQDkjHrQjJKBRXKkqTZBu912Zdv39vZcfb9+/fXXzuMw1tfXXU3Fm82mlEol12fYgwzpJ+qotTYAAABUanBhf39fLwaAWJ2fnzuB0uXlZbl7964+CxbITkRO0oper+iWZ999953zuFarBQb+w7bUixLgF627oDdv3gS+vzpvmmMMDCoM5Mzm5qZTy6DT6Xj2w4lRSRr05+HDh/LixQuRBQ9wHIY6ME+5XJaTk5Op12XUQeVIBkAStg8DANJJPZcYEQYqTBLOh0B6HBwcOF2vJv2+D9FxPI7G7lro5uYm8BysD/YcZsDfpaUlV0sCv/fX3zuNv5trUOGPP/5YLweQUeqAuOpAuUiPNNUm0LPncTACBpXT0X8sbOo24NckFQCAsMJ0QQAA01Dv19X7eCCPtre3nfu4oHOw2jrg448/ls8//zywxr8o3T/Z/GINUVseJBldBgE5ow6Iq/ZHiPRIS9+RXgPzqAmCaRi3g8qZpul5srb7GtSbGCK/1P3mzZs3rjIAAKKq1Wr6UwAQm+Fw6LpfV+/jgbxRxwQQj3Pwzc2NNBoNKZVKrvl+/PFHuby8HDv2jz4OjVc3UI1Gw/XeaR07wEZCAMiZ+/fvO48ZQyC91CB3Uvuw9cqeq8/FkdiwEwPqydurr0FAPfYlfewNAEDyeQULACAux8fHTm3oYrEYy70TkFZqHOE/+o/+I+n3+1IoFJxpZWVFms2mb4zLqxJhFO12eyS+kfZ4AwkBIGfSftDCr6kZcfXElCR69txrgGFgXn760586j//kT/7EVQYAAAAkyR/90R85j9VBV4Gs6/f7UiqVXAF/Nbbwf/wf/4dv4N9LrVabOomvxlzK5XLqWweIPahwoVCQO3fu6GUAMorBa6JL2jobDoeysrLi9J1XLBZlb29v6sx3nPR15jXAMDAv5+fncu/ePZHb/eXi4kKfBQCAQOqgg2dnZ6mssatfnwFInnfv3snnn38ucluh7+LiQlZXV/XZkHIcj72VSqVIAX+bHRPZ3t52notrvaq/VZhBipPMNagwACBdDMNwtRII0y/eos1igGEgLDVoM8kFJgAAlUrFeZzUFprjpDmIAeSF2jqgXC6TDMgojsfexrWIKRaLnt0GX1xczKSCpNfYiFlAQgAAUqrVarlOeLM4+c1KVk6iAAAgPx4/fuw8Pj4+dpWlwWAwcFo4LC8v68UAEqLb7TqPxwVHkV52F7r6ALl5pw/wq4oa+Ff3Jbntjujzzz+X3/3d35VSqTRS7kUfOyAr6DIIyCGapkXHOotOXWfFYtFVK5t1iEVgPwYATCvN55Lj42N58OCBiIhsbGzIy5cv9VkALJjazeXy8rJcX1/rswC5EvW8q3bvZxiGmKYpcpsMePDggVOml/tR3y/t3QUJXQYBAOZJTQZkKasOAACQFufn587jNI5/AOTB6emp83hjY8NVBuSRGoBvNBquMi92ywu5HXtRbpMBf+Wv/BVXMkBC9rKgtuRIezJARUIAADA31WpVOp2O/jQAAABm7IcffnAef/HFF64yAMnw6tUr5/GXX37pKgPySO1Sqdlsyv7+vqtct7u7K61WS0R57fb2tvzbf/tvnXn+3J/7c2KaphweHjrP+bG7MAozb5rQZRCQQ1GbXIF1Ngm1aZ3cnoyzdhJFurAfAwCmleZzycrKitzc3IiIyNu3b+Xu3bv6LAAWbG1tTQaDgYiInJ2d0ZoHuTccDuXBgwfS7/dFQnbzo2q321Kv113Phe36p9vtyvPnz+Xbb78N1ZogDegyCAAwU2pTPZIBAICk6Xa7srm5GWpAOSAL7GSAiJAMABJoMBg4yYDl5WWSAcBtAqDX6zkB/OFwKKVSSdrttj6rJ3VQYJtfMqDb7UqpVJJCoSCFQkG2t7fl9PR0JKGQBR+JiPz444/68wAATMVuWpfF5nUAgHRrNBqZvskDAKTPmzdvnMckA4DfMAzD1XXQ5eWl1Ov1sd0HtdttJ8mm04P/dgJAHf/QVqlU9KdSjxYCAAAAADKh3+9LqVSSUqnkW/O/0Wi4aotl8SYPAJA+DPwN+Gu1WiPd9njV/lf5lQcF/3VZHQeRhAAAAACATLBv7uyaY7p2u+26OSyXy5m8yQMApA8DfwP+DMOQTqcjpmlKtVoVuQ3We7Fr//u1DghSrVbFNE2nt4OjoyPfLobSjIQAAAAAgMTr9/tj+/xXb/zUWmQ3NzfSaDTkyZMnznPlctnVJ21c7JvQoFYKAADoTk9Pnce0EAC8GYYhR0dHYlmWU6nDbiE6rusfnR78z3ICQFe4urqyPnz4IJ9++qleBiCjCoWC89iyLFcZvLHOgPRbWlqS4XAoIiLX19eyvLyszwIgwdbW1mQwGIhhGGKapl4s4nO+7vf78vDhQ9eAqiIipmnGfsOnd0cUtKy2brcrzWZz5Ma1WCzK3t7eSPN4LJbXNpYWaV52IOvOz8/l3r17IrcDCl9fX+uzAPBhXyOGkffzn2ma8v79e1oIAACAfFBrWr17985VBiD57Bs9O7EXxmAwkAcPHowkA2q1WuzJAL07ItFaKajsFgulUsm3Fptft0cAgOxRWwdsbGy4ygAE06/z5Lb2v36t59fFUB6REABySD0oeh04ASCL1ISAOmgbgOxqNptOAmF1dVU6nY5YliWHh4f6rFPTxyYwTdPzc9rttpRKJc9WAbooyQ8AQHq9evXKefzll1+6ygAE29vbE7mt8KF2/WM/b1v0uFF2t5J210aL7F6ShACQQ9SSBZBHn332mfP4F7/4hasMQPKpFRr29/ddZV52dnak3W47/x8eHvrW2I+D2lTda2yCm5sb2dnZkXq9PlIhQ+/DFpgFfZsEkBy0EAAmt7u761nhY3d31/X/PM6DaitQO/DvN7bBIluDkhAAcqhYLDqPx9VMA4CsuHv3rvOYZCiQPrVazXncbDbH1qg6ODhwHpfLZalUKq7yODUaDdf/emtM+8ZQXaZisei0WFAHsFOTGEBcBoOB0+KEMXSAZDk/P3cSxcvLywwoDKTI+fm57OzsOAmAlZWVUK1AbbOsrBKEhACQQ2otWYJiAPKCLoOAdGu1Wk7QfDgcyvb2tpRKpbEB9HK5LL1eT386NvrYAWr/tGr3QGqrgHK5LG/fvh25CRwMBrKzs+P8T1+3iMubN2+cxwQbgWShdQCQfHrg357u3bsnBwcHoRMAaoUQr1YN80JCAMghtZYs3WYAyIvV1VUnmKh27QEgHQzDGOkL1m5qvb+/77lf//Zv/7acnJzI6emplEql2Ptq1QP45XJZOp2Ob/dA9k3gycmJZ7P1p0+fOrW419fXF97XLbJDTYSTEACShfEDgOSII/BvX+/p13q1Wk0uLi5GKoQsAgkBIIfoMghAXjFAJ5Buu7u70mq19Kel2WzKf/Vf/Vf60/Jf/Bf/hXS7XXn48KFcXl7G3lerHsDv9XrOgHFe3QMF3QQOBgNXa4e9vb2RG0lgUj/88IPz+IsvvnCVAVgstQUPLQSA2fML+kcN/MttpbNarSYvX750av3b13tqRZZarbaw1gBeCldXV1ahUJA7d+7oZQAy6ubmRlZWVkRu+yi8vr7WZ4GmUCg4jxnsD0gv9mUgO+xug168eCG/93u/J//n//l/usrL5bL8x//xfyz/w//wP7iej/OGbG1tzWmZ0Ov15Pz83NV9kChdFo0L7u/s7DhJhPX1dTk7O9NnQQKk9TyysrLitFZ5+/atq8UwgMUZDAaytrYmwr05MBPqefvRo0dyfHwcOtivWl1dlUqlIt98802qE3emacr79+9pIQDk0fLysnNTqjZjBwAASAvDMOTo6Ej29vZGkgH/6X/6n848GdBut13dFA0GA1cyYFz3QCqv1gFIpnG/ZRLpA5aSDACSg/E9gHjptf9VYWr+e9X4tyxLrq6u5PDwMNXJABUJASCn6DYDAACknT6gr+1f/It/4UoGlMtlMU0ztmSAPnZApVIZGUvAa9BgP3rXQ5VKRZ8FCTAYDJzfaXl5WS9OLAYsBZKL8T2Ayd3c3Eij0XB1/ROmyx+/oH8WA/9+SAgAAAAASJ1//s//ufx3/91/pz8too2RFLbLniiazaYrgP+7v/u7I2MJhP28y8tLWgekRFpr8jJgKZBcjO8BhNPv90f6/F9ZWZFmsxkY/Lf9qT/1p5wkQF6C/kFICAAAAABIlX6/L3/+z/95+Tf/5t/oRS7VajVScD6MdrvtCuB/9tln8j/9T/+T83/UwYAfPnzoJBPu379P64AES2tNXloIAMml7p9pOq4A82InAr766qtQgX+/2v8//vhj7pMAKhICAAAAAFLj6OhI/tJf+kvyr/7Vv9KLHHYXQUdHR5GC82GoXRT93u/9nnz//ffO/+VyOVJAf39/36l1bhiGdDodfRYkSFpr8qpjhhFwBJKD8T2A8er1emAiwB6zKW9d/kyLhAAAAAAAERHpdrtOc+xSqSTdblefZeH+6//6vxbLsvSnXeJuFWDTBxL+F//iXziP7a6JwtIHId7b2yMYlHDU5AUQJ1rvAON99913rv9rtZqr5v/FxUXoMZvwGyQEAAAAAEi73Zbt7W2nFtbl5aXU63V9toW5ubmRnZ0d+fDhg1404vPPP3f1MVsqlVzd/ExKDeAbhiHv3793/o+ahNDHIdjd3dVnQcKoNe1J3gCYFuN7AOPt7u66EgCHh4f6LJgACQEAAAAggpubG2k0GiMDmyW5Vn0YarDblpQaV3b/sQcHB3qRVKtVMU3T9ZzetNxObkz7+6itA1S1Wi1SMqDRaDCQMADkHC0EACxK4erqyioUCnLnzh29DECGLS0tObXSTNOMdBObR4VCwXk8rpsCAMnFvoxJ3dzcyMHBgTx//nwk2KwzDGMkQJ0G6v6RpGuDwWAgpVLJuW4RpXsedRnV5Q8yze+jfkar1ZInT55IrVaLVFvt4OBAdnZ2nP/L5bKcnJy45kEypfUcol73p2m5gSw7Pz+Xe/fuidyOH3B9fa3PAgCxM01T3r9/TwsBIK/UZs7v3r1zlQEAgF9TWwM0m82xyQARcQWu0yopyQDRutZZXV2VTqcjJycnY5fR7mPWNE1XS4dJfx+9yyG7CbueDOj3+7K5uenZEuH8/FyePHni/B913AEgqsFg4Gzzy8vLejGABaF1AIBFIiEA5FSxWHQehwluAACQJ3oiQO07XG7Po51Ox9WnaZrpwe5ut+sb1J4nvWudw8PDUN0YqYF6wzCk0+mMTSCMo3apVK1WXWWq7e1tOT09HRl/YTgcyvb2thOcvX///kgrByBub968cR4zEDKQHIwfAGCRPhIR+fHHH/XnAWQcCQEAANzUJMDKyspIIkBNAlxcXLgC03pAPW30AW39gtrz1G63XUH4crkslUrFNU8Udj/9tVpNLwpFHT+g0+m4ylT2NjMcDl2DGTebTTk/PxeJMUkBjGNvc0JCAEgUWggAWCRaCAA59cknnziPf/WrX7nKAADIm3a77dstkJ0I0JMAqrC1x5PATnyoAyO/f/9en01EZKoA/LT0ZMC0Xev4dfETlhq8DwrkqwkHezDjlZUV2d/fd57f29tzdd8IzMoPP/zgPP7iiy9cZQAWR61wQLIOwLyREAByihYCAAD8+oZ8Z2dH6vW6b7dAQYkAua05Hrb2uJ9+vy+lUklKpdJMuunxav3glfxQVavVib5LHNrttmudxtG1zrTdIIVtYdBqtUa2F3Xb+r3f+72RFhnArKi1kAk6AgAAEZHC1dWV9eHDB/n000/1MgAZdn5+Lvfu3RO5vTk4OzvTZ4GiUCg4j9PeTzSQZ+zLsHW7Xc+AeLFYlL29vZGAbpCdnR05ODgQmeKcura25gTADcMQ0zT1WSZyc3MjBwcH8vOf/3wk4eHHsizp9/vy9OlT+fbbbyOti7io66NarcrR0ZE+ywi//fvm5kaazabzG8W5foMMh0PZ2tqS77//Xi9yKRaL8vjx47GJBiye3zaWZGlcZiAP2DcBLIJpmvL+/XtaCAB5pTZT14MhAABkWaPRkO3t7ZHzX7lclrdv30YOgL948cJ5bNcij0qtDR/1873YLQ68xkKQ2yC0OiaCqtvtysOHDxc6hkDUFhdeYziorSLsZIDMsRskwzBkZWVFf3qE3a2Q2qUQAAAAMCu0EAByTK19pwcD4EYNDiAb2JfRbrdHgtyTtApQxbFdxfEecpsIqNfrI8kOGfM91c/XTbM8k4q6PtRrmv/kP/lP5C//5b/s2SrCHotg2u6Hwmg0Gq5xEP7JP/kn8k//6T/17bJoXi0XMLmo22USpHGZgaxTW+svLy/L9fW1PgsAzAQtBADM5WYYAIAk+fnPf+763zTNsWMEBPGqmR6VWht+Wl7JgHFjIQR9h0V1YxP1GuX/+X/+H+fx//6//+8jrSLsdXBychL5vSehJwPK5bL8l//lf+m0yLAn0zSdQajVwahnPaYEAGBx1LE9NjY2XGUAMA8kBAAAAJAb6o13rVabKjg8GAxkZ2fH+V8N6Ebx9OlT5/G0g35+9913rv9rtZpvIkBuu9X5G3/jb+hPS7lcFtM05fDwUC+aizAD+NpdAv3O7/yO/Jt/82+c59Va0MViUf7wD/9QRESazeZcguteyYBer+eax2YYhhwdHYllWa6ukezEjt2dEDCJ8/Nz5/Hy8rKrDMDivHr1ynn85ZdfusoAYB7oMgjIsVKp5NQipAlxMJpbA9nAvow46YMJv379eqIEg9rdTa/Xm0sf93argCdPnox0q1OtVqXT6Uz0Xeal3W57LrtN7R5pVgM2e/FLBkRdl/v7+/LkyRPnf45XyZC2c8jBwYGTtKxUKr6JKQDztbKy4py/zs7Opq4MAABh0WUQAAAAMAV9MOGoQV+b2mXQPJIBjUZD6vW61Ov1kYC6aZpydHQ08XeZpW63K6VSSQqFgueyi4h88sknru6RGo1G7AM2+2m327EkA0REdnd3Xa9rNBqucsxfGmvbUwsZSJ7z83Pn/LW8vEwyAKnR7/dlc3NzLq0tMXskBAAgBPWm3CsAAQDIl8FgEEsgP6j//rjY/dEXCgUpFAquoLVukuD1LKlJgO3t7ZHxEVS9Xk8uLy+doL9eW79arc6sCyS9+6hpkgE2tbukZrMp+/v7rnLMVxr7/E7jMgNZx36JtNre3pbT01O6MswIEgIAEIJac+Pdu3euMgBA/sTV778esJ4Fr4GGbeVyWX8qEewkxrgkgK1cLruSMnoyoFwuu/roj1uz2ZThcChyuz1MmwwQEWm1Wq7fJyiRg9lLY217tRLLNMcpAPFJ47EEEKVFq329g3T7SETk448/1p8HACjUmyi1yTgAIJ/07oImpbYymFXAWh9oWG6TD9VqNbF9ivslMarVqvzDf/gPXc91Oh05OTlx/o+z654w2u22q6XHNN1HqQzDkF6v5ySKZpUwQjjU6gUQB44lAJKgcHV1ZRUKBblz545eBiDj1EH2TNOM5eY1q9RB2R49eiTPnj3TZwGQAmkbEBLJFce2NBgMZG1tzfl/0veZVhzfJW7qoLr6IMfq9Uu1WpWjoyPXa9XyWScDBoOBlEolp7ZcuVx2JSeQHUncT8ZJ4zIDWcd+ibRi280GBhUGIKurq85jusEJdvfuXecx6woA8i2ufv/j6nYoi3Z3d8WyLLEsyzXIcbvdDmxVoZfPMhkgPl0FAQAAZElc175IDhICQI4Vi0XnsVezfPwGXQYBAGxx9fsfV7dDeaKvez3YP648To1GYyZdBQEAACSJfn2F9CMhAOQYCYHwVldXnZt8teYhACB/gmqoR6G+jzogLvyp60wfjLHRaMT224zjNWgxvyGSRK3Asry87CoDACCKeV1fYX5ICAA59sknnziPf/WrX7nKMMruEgAAANukNcKTlFxWv8P+/r6rLGnUZa3X61IqlZxBffXaa/pv0+/3ZXNzU7rdruv5qPTPsscpAJKEgUuB5FH3S7VyHpAm+vUV0omEAJBjtBAAAMBft9uVUqkkpVLJCSL3+319tokkafyAWq3mPFYD3Umkd610eXkp9Xpd6vW681y5XB6pvdbv9+Xhw4dyenrqmncS6m8360GLgUm9evXKeay3pgGwGN9//73zmG5XkBZJqsSC+JAQAHKMhAAAAG43NzfSaDSkVCrJ9va2XF5eOkFnEZHt7W39JRNJ0vgBrVbLeZz01nC7u7uu5fXS7/dlaWlJCoWCM3311Vdyc3MjEsN3/Pbbb0Vuu3kiGYCkooUAkDxqpYKvv/7aVQYkVZIqsSA+haurK6tQKMidO3f0MgAZNxwOZWlpSeS2b9Hr62t9FigKhYLz2LIsVxmAdGA/RpB2uy1PnjxxAseqWq0mh4eHsrS05ASU7ecmkbRtMWnLE8ZwOJR6vR65C6BpfjfkV9r2kbQtL5B1l5eXUiqVRLj3Rsqsra05rQR6vR5jJqWcaZry/v17WggAeWYYhqyurorc1oj0CoAAQJZQkxe6fr8vn3/+ufzu7/6u1Ov1kXNhtVoV0zSdALJdm5+g8uIZhiGdTse5lgmD3w0AsAhq6wBa7WRPv98f6WYyK9Qug6ZNBtjryW7BmcX1lRa0EABy7mc/+5m8efNGRETOzs5oAhaAmlZAut3c3MjKyooINbOg+NN/+k/L//f//X+u54rFouzt7cnW1pbr+Tgl7ZyStOUJq9/vy1dffeX8b5omiT/MRNr2kbQtL5B1Dx48kOPjYxERefbsmTx69EifBSmm1qI3DENM09RnSa04zyelUmmku+qsra+ko4UAABHGEQCQI+/evXMe371711WG/Ol2u/I7v/M7I8mAarUqb9++nWkyIInSGkTXBwhO6/cAAGQb43pkV6PRcNWin3asoiz77rvv9Kdyd82dFB+JiPz444/68wBygoQAgLw4Pz93HtMaKp/UZsrb29vy//6//69Ttra2JqZpytHR0cyDyu12W39q4dSukNJEvbFM27IDs6Ke75aXl11lABZD7ZKQ69DsaDQa0mw29aczQ010xGF3d1csy3JNcXbl2O12XV0S2d0SJfHae9FoIQDk3CeffOI8/tWvfuUqA4As+cUvfuE8/uyzz1xlyId6ve6b/P6//q//a+aJAJt641itVl1ls9bv92Vzc1O63a6rz1b7Bi3Om7J5UG8s07bswKxQExkAZq/dbmc6GSAi8vTpU+dxUhNZx8fHrgo/+rX+5eWl1Ot12d/fdz2fdyQEgJyjhQCAvKDLIHg1U5bboPw8a9Gqta06nY6rbNa2t7fl9PRU6vX6SHc7ALLh1atXzuMvv/zSVQYAmN5gMJCdnR3n/3K57CrPihcvXjiP7dakSTIYDOThw4ehYllZT95ERUIAyDkSAgDywh5AXRJcwwWzZdcmX11ddT0/76C8al6tEmx2lwXD4VCGw6GrSbXdrFptOQAgfWghAACz9fTpU2esgPX1den1evosmaBWYqlUKq6yRbu5uZGdnZ2RMRuq1aqYpimWZbkGK9bnyzsSAkDOkRAAkBdq3616QBj50W63XTc3tVpt7kH5RRrXz77drBpAetFXOZAsjOuRLYPBwNUn/d7eXq6uJZPAHhdMbcHQ6/XEsizXeGD8Lv5ICAA5ZxiGExi7ublx3UAAAJA1ev/9eet3vtVqydbWlv60y7hyAAAQHq12FkMdNylOeuuApNWcz7rBYCAPHjxwxa7K5TK/Q0QkBADQSgAAkBuL7L8/CQzDkE6n4wzE6zXlLUkCANOwg45qjWFAxbge89fv9+Xhw4fOuElx8WodkBXdbtcZnNeekkbvJmh1dVU6nY6cnJzos2IMEgIASAgAAHLpxYsXnjc/QRN97AMAVPV63Qk67u/v68UALQTmzE4GqOMmxSWrrQMajYZsb28nOh7k1U3Q4eEhLVsnREIAAAkBAEBuqH2Jbm9vR775sfvYnyYpQH+mAJAdakBQ7ZYOkNvxA+zA9PLyMuN6zMH29vZIV8hxJOuy2DrADrIn/dhFN0HxIyEAQD755BPn8a9+9StXGQAAWRLHzdtwOJyq+bm9DOMG+AUAJF+r1XIex1kTGdlA64D5U7uHtMUR8M5i6wC9Yky5XBbTNMWyLNexTWJKqti63W6k8R2azeZE3QTpXbmVSiVa+94iIQCAFgIAgNzY3d0ducGpVqvOzU/QFFfQZ3d3l776ASAjaPWFIIwfMF96ANg2zXWbZLR1QKPRcCVPqtWq9Ho955i2u7urzB1PUkVuf6Pt7e3Q4zu0223Xuo/STZC+zJeXl05r37wjIQCAhAAAIFfsgLw9HR0dhQro6DdGAPLh/Pzceby8vOwqS5o0LSuQB7QQmJ/BYCA7OzvO/9Vq1XV9N00N90W0DtDHuYqzZnu73XYFy6vV6tjr4WmTKjb1c8OsR3X+qN0EebUWkRi/S5p9JCLy8ccf688DyBESAgAAjOdX6wxAtqUpoJemZQXyQO3znPEDZksP2nc6HVf3jHpt8bAW0TrAa5DfOGu260H2TqfjKvejJp0n0W63XUH6MJ+rzt/r9VxlQRqNhv4UFLQQACCGYcjq6qqIdsECAHl3c3MjjUbDqZ0TZ80cpEu/35cnT544/1erVVc5gOxKU5cfaVpWAIjTixcvnMd7e3tiGEYs3T3qiYYoNdQn0Wg0fJMXk34HnR5kD2oZoPJbrrD0VgnjPlevjDNufrm9f9vZ2RlJejx79sw1X94Vrq6urEKhIHfu3NHLAORIqVRyss+WZenFEJFCoeA8Zh0B6RN1H2632/LkyZORRKlhGGKapus5ZN/a2prr5sk0zVA3JQDSb2VlxTkXnJ2dJbqWb5qWNUuiXmMgP9g25sdvXS8tLTmB9L29vcg1x9VrwF6v55sQ8Pv8sG5ubqTZbMrBwYHzXLlcll6vJ0tLS85zk7y3LuyyqvPZguYfR32/w8NDVwsOL+q6t7s1CuJ3/2aappRKpUjvlVWmacr79+9pIQAAAKBrNBpSr9dHLiYlxpo5SI/j42NXMqBWq5EMAHIkTV1+pGlZAWAe9G6DonZ7o14D+iUDptVut6VUKo0kA77++mv5/PPPXfNOS691P0/q9fPOzs7YZQnbvZDdKsDv/q3b7YZ+r7wgIQAAAKDQm+kWi0X6Yc6xwWAgDx8+dD13eHjo+h8AAEDHIN/zo46foo6RKCLSarVc1/JRur3xG5Q2Tl4Vkcrlsqyvr0u9XneNIxBHl5V6tz3zpI6/MBwOpV6vO92yjksO+FXG8UqmFItF2draErlNCOnf2e+98oSEAAAAwC09GVAul+Xt27fy7t0757l5XzhjsZrNpqtVyLimzQAAAMIg33P1/fffO4/1a3XDMFz9xx8fH7vKgzx9+tR5PItWV/q9h63f78v+/r7ruWq1GkvN9ig15eMOnO/u7rrGdbDZAybr33kcv2TK27dvpdPpiGVZ8tOf/jTSd84LEgIAACD3/AafsgfZyvpF5HA4lNPTU9nf35eHDx86gyjPYiqVSrKzszOXGlfT6Ha78rOf/cxVW6nX69E6AAAAhMIg3/MxGAyk2+06/3/99deucrkN5qvB7TDdBg0GA9d1oFq7PQ7tdtszGaArl8timqYcHR3FHqAf9356RZg4Elu7u7timqZTg18VtD70e4pCoTDSqrvT6cjJyYnre9E6wBsJAQAAkGtezUzVZIDO67mkChPoX1pakqWlJdnc3JQnT57IixcvXE2T43Z5eSkHBweytrbmJAjUm7gkaLfbsr29LW/evHGeK5fLM+s3FgAAW7/fl83NzcSdGxEdLQTm4+nTp05rzvX1dbl//74+i4jW/39Q4Nmmv2+c14GDwUB2dnb0p0dUq1Xfe5J5+Oyzz1z/q9fG0zAMw6nBb5qm06rDq3VHGHarAK8kQ9Yrdk2qcHV1ZRUKBblz545eBiBH1NHbr6+v6ePQQ6FQcB5bluUqA5B8S0tLzkW9vQ97NdPVkwHtdlvq9bpTntT9fzgcyps3b+TNmzfyww8/yPn5uauroyQzDENM09SfXhj1nGgzTTP0TQmAbEnTNWCaljVL4lzv9jnIMAw5PDz0DHAh+c7Pz+XevXsit+MHXF9f67MgJup1W6/X8w3cq7+J3Nb4bzQarnlUYd/XFuU4UK/XndYHq6urzufY3QLN8ppTXc5Op+N5jOl2u9JsNkcqCVWrVTk6OnI9N0v7+/vy5MkT/WmXcesszPfNE9M05f379yQEAPzaz372Myfb+/r1a9+sep5FOcEDSJabmxtZWVkRub0pu7i4kGazOTL41N7e3shFonozMO+LYD+zCP7fv39f1tfX5ac//Wlg7appHR8fS7PZHGmqnZTjqp4Aktvm0nQVBORXmq4B07SsWRLnelcrMCQtYY7wDg4OnBrglUpFer2ePgticHp6KpubmyK31/IXFxf6LC7b29uu1jetVkt2d3dd89ii7tdh59crJIVJNsRJPcZEMS7wnlR+37dYLMrjx49HukXKOjshQJdBAERuD4Y2PQsMAGmnBstXVlY8uwhKajPT8/NzOT4+lkajIQ8ePJDPP/98pIufoGTA/fv3nYD269evxbIsz+n169dyeHgotVptZskAub0pPjs7cw0olqQL8Z///Oeu/03TJBkAAJgbtZ9yr+sSpAPjB8xH0GDCXg4PD6VcLjv/6y2FberYAXHSxw1YRJeUUcdCqFarMxvDYB78vq89kHFSuzCdNVoIABDRstTjms7lVdiMP4Dk8ar1bdO7CFLpr5vHvn9zcyMHBwfyx3/8xyO16MeZVy3/LFObcNMyAICk7BowTcuaFVFrKCMfVlZW5ObmRkREzs7OZH19XZ8FMVBb8obt6WA4HMrS0pLzv9excpIWwmGOv+r7Bt2DzFocXfGkSZjvm5cWWa4ugz58+CCffvqpPg+AHHnx4oU8fPhQJMIJL2/CnOABJNPOzo6rRYAEdBGkKpVKTqupWR8b7UTAz3/+c+cGMgjBfwCYjzRdA6ZpWbNCTSTv7u66WsAhnxg/YH4mPeap3cjoXcfoFYLCjiMVZlnUecK+L+I3HA5lc3NzZJBkv98tS+gyCIALXQYByLIffvjB9X9QF0Gqb7/9VuS2m5u4uwsaDodyenoq+/v78vDhQymVStJsNkeSAevr61KpVGRvb096vZ6cnZ3NtYsfAACSrtvtSqlUkkKh4Jrm0Q3E8fGx8/jrr792lSGfTk9PnccbGxuuMiSD2l2l3XWM3UuC2qVPtVqNLWivd0MU1/siOsMwXN3CSsK6MJ0HWggAEPEYcJNaDKPCZPwBJJNhGPKv/tW/EhGR3/u935N/9s/+2UIuwu1WAN9//31gv/9hWi8AAOYjTdeAaVrWONzc3Eiz2RxpBaiadTcQeVvnGO/BgwdOoujZs2fy6NEjfRbEYJruuobDodTr9bEJwyi1+McdCybphiiIfV/x/Plzuby85P4hIrUboTx1E0oLAQAuy8vLzolOr50KAGnWaDScZICIyN/9u3839IV9XG5ubqTRaDitAPySAcViUTqdjlxcXHAxDwBAgHa7LaVSKTAZILeBP2CeaCEwH1EHFFYZhiGdTkdM03QNMqyL855BjbP89Kc/dZVFZR//ms2m08OD3dIB4ezu7oplWWJZVm6SASoSAgAcXCwDyBp1wHRbpVJx/T8rl5eX0u12ZXt727c7oPv37zs1Ul6/fk0iAACAEBqNhtTrddd5tVwui2mauQ3uhOXVvdI8ulbKi9PTU2e7LBaLDCY8I4PBwLXNTtpdl2EY0uv1PK+/4+5CRn2/ZrM50oXQOGoFI/34Z/P6HoAXugwC4BjXxC3vWD9AunglA2SG++9gMJB+vy+vXr2S09NT3/FYaM4LAOmSpmvANC3rpPQBP73Oq3F3zREkDeu82+26ahJ7mXXXSnnBINPzsbOz47QOWl9fl7OzM32WuRt3LBgOh7KysuJZEVMf2Ng2bt/1Ov4BQewug0gIAHCMO4HlHesHSA+/ZIDEvP+en5/L8+fPpd/v+3YDZOOCHQDSKU3XgGla1kkMBgMplUpOQK1cLkuv13N166EnDKL0AT6JpK9zfX34yVMf2rOib5+vX7+W+/fv67MhBmrSr9frza0FcJClpSVXsN/r2l/tt35a1WpVOp3OTI9vyB7GEAAAAJnUbrddyYCgfkEntb+/L6VSSe7duycHBweeyQDDMKRcLkur1aI7IAAAYtBsNp2A2/r6+kgyoNvtuoJt1Wo118GywWAgOzs7+tNSrVad7pXsiWTA9J4+feraPkkGzMZgMHCSATLH7kDH0Wv3e/Xpv7u7K6ZpTnxPYI83ZlmWHB0d5fr4humQEAAAAJmh3/jaNQfj8u7dO/nZz34mT548GWm6qycATNOUk5MT2d3d5YYQAJAL/X5fSqXSTPqkbzQarj639/b2nGCY/bnb29uufrU7nY7zOG9ubm5kZ2fHFaC2kwAEEuM3GAxGtk/MxtOnT53HSRqjodVqjQT69f9FGdDYTsaNSxCoCTwqGCEudBkEwKE2cbu+vpbl5WV9llxLenNgAKP9ib5+/VoMw5h6/7W7Bmq3266mwKurq1KpVOSbb76RjY0N12sAANkw7Tlknha9rGo3HnH2Sa93e1Mul+UP/uAPpF6vjyTobVG7wOn3+85n6N18BFn0OvfS7/fl4cOHruRIUrpVySr9GjQJfdpnVRK7CwLSgjEEAIz42c9+Jm/evBGhv0NPSbzYB/Aber+t6g3CJPvvzc2NHBwcyPPnz0eCDYZhyN7enuzu7rqeBwBkzyTnkEVZ9LKqn+8XkLcHyZSQgXf9/G63/vv8889Hzs8yRb/akyQzBoOBrK2tOf8vYp3r9PUlt+vs5OTENR/iRZB6PpK4zwFpwhgCAEaoze3Oz89dZQCQdHq/rVFvxG5ubqTRaEipVJJCoSArKyvSbDZHgg3379+Xs7MzkgEAkBNqYHl/f99Vht9Qu0sREc9kQKPRkO3tbbm8vPTsX9uLfn63xw347rvv9FmlVqtN3B2OWpt+XJLCNuuuS7rdrmxubkbqfkkdZ2F1dVU6nQ7JgBk7Pz93kgHLy8uRr0ER3qz3OSAvPhIR+fjjj/XnAeTQZ5995jz+xS9+4SoDgKR78eKF8zhsv63dbndsAkBub6hrtZq8fPlSXr9+LXfv3tVnAQBklDpQpDpoPdzUdVOtVl1lcpsM0NefWovdj35+t4P9u7u7Th/c9uSVhAjLvnbwa9ngRV+2OLXbbdne3pbT09NQiRPxGGfh8PAwdHIDkzs9PXUe04XkbM1ynwPypHB1dWUVCgW5c+eOXgYgZ/r9vnz11VciNCv1pI6xQNNEIHmCuklQy05OTgL7HFYVi8VQ3RkAALJrOBzK0tKS8//h4aErSZAkQefCWVM/2zRNVy19r2SALWg59bEDguZdhFmub7ULmmq1KkdHR/osLvo6jno/Z3fl5HV9tKjrIXtcB69lwuQW9XtOK+nHAyAN6DIIwAi6DPJ3c3PjJAMYbBlIHr2bgiBBN5bFYlE6nY5T0/Di4iJ1N0sAgHgZhuEKbtfrdboOGkNdX+122xWoHtfNh916r1Qqubrn82p1MEt6V4KlUinS9ca07GSAiEin03GV6fR1bI+zEMbNzY3s7Ow4XTl5Cdu9U5zsgZH9lgmTW8TvGYdxrZAAhEdCAIBjdXXVCXYPBgNXP5p59+7dO+cxXYUAyRPlBkHvc7harYppmiQAAAC+9K4pms1mpH7d80wPVN+/f9/5X00O2IkAdYyB9+/fO+XjguJxOj4+llKp5KoxbwdR55EY0N8/aEyEwWAgOzs7zv92MiDoNbZ2uy2lUkkODg70ohHD4VAajYb+9MzU63XuR2cobde77XY7UpIMQDASAgBc1IvyN2/euMryTG0xMa5WE4D5i3KDoPc5POnggwCA/Njd3XV1gzMcDlNZw3ZW1POwajAYuMp6vZ4cHx87/9uJFnWwYT/zOld3u13Z3t72DUbbiYFZBcf1AP+4ig5+gy4HsVsF6EH3crnsVJKwp0ePHjnlzWZzbi3J1QoctVrNtUxJmp49e+YsZ6VSGSlP6hR2nIyk0Cv/jNvGAQQjIQDAhW6DvKmDLKuDLwNIBvWmIEwtNwAAojIMw9VSIMyAuHnx9OlT57F6P6F3FWQYhitBUKlURvq+XyQ7MaEGyTudjpimOVKjelbLrAf4gyo6DAYDV2sCddBlP16tAuwuE09OTkZe32q1XAPlzup769QKHEkOXr969cp5/OWXX7rKEB99nwQwHRICAFy++OIL5/Gf/MmfuMryjC6DgGRTB3ec140qACB/GEvK24sXL5zHdtKk3W6PBKt1Xn3fm6bpmmde9GWR2+uLra0tMQzDSQyUy2XXPHHT16UeoFfpyYNKpaLP4ghqFfD27duRhIfNMAxXLXi1hQdETk9Pncdq4gTxso8ftVotcJ8AEE7h6urKKhQKcufOHb0MQA69e/dOPv/8c5HbmiIXFxf6LLm0srLiXDhfXV3J6uqqPguABRoOh7K0tOT8b1mWq7xQKPiWAQAQ1tramlPDvVqtytHRkT7LQi3qfKd/7mAwkFKp5ASry+WynJycyGAwkLW1NWdewzBc89jd3ajvZ5v191F/26B++IfDoaysrIy0EIlr+fR1GURd5l6v55sQsAfoVRMBxWJR9vb2fBMBuijLlRT9ft/p2ivKdw3r/Pxc7t27J3KbLLy+vtZnAYBEMU1T3r9/TwsBAG537951LnyD+vDMG/XimWQAkDyGYbhu2mfVry8AIN/U7m7oHsSfXnO91+s5z6v0efQuheZFH7DULxkgt9ccasvERdK7X/IyGAzkwYMHkVoFeFHXx/7+vqssqdQBqmcx5getAwCkFQkBACP02i4AkAZ6t0GMgwIAiJsaFK3X61IqlVzd4iRJo9GQzc1N6Xa7etHM+XV7oz6vUudRkwYfffSbkMUsk/1RByxttVojXQfN+7ojzHZndxNk39+trq76jhUwjn6dlXT9ft+VMImS/AiL8QMApBVdBgEYkcbmoLPGOgGSbzgcyldffeXU1qpUKk6NRPZhAEAc9vf35cmTJ/rTUiwWpVKpyOPHj+femnQwGEi/35dXr175Bv9nfe5Tz7OHh4eu2tj2Z+vdBdns7oRsajc4//l//p/L//K//C9OWavVkt3dXef/uKjLb5pmqGC53nWQet0xjbDXLOO6r2q32/LkyRNXy4CgboXG0btnlAm6HZondf3ImHU5KbVb2bOzM9eA2gCQRHQZBAAAMsXwGPRulrUJAQD5s7u7K61WS39aLi8v5f9v735CG1nXxP4/ujOLMofk2uGGtiHcUTVDTt/Fj6NOAu2zmWNvMmoSuO6Q4ahXbUGgpUVIOyFpeWYhaZGRvWpfCFizknpl92zkuwiuTBbtk409i2A1IXRfwtAaBmIRAkc94XQVJEP9FtdV961X/2X9qSp9PyCQ6i3bUkklyc/zvs9zdHQkGxsbkkgkxDRNyefzgZIi09RsNmVvb09+9rOfycbGhmSz2b7JgEkDwJPSZ9t79HJBopUTkh6le/70T/80MBO/XC6PNDN+XGoC4OjoKDCmq9frYpqm/OxnPwskf2bRbLffcypaSdMvv/zSv+7dv17Ng+/yWtDLM8rt634WpXimQX0dzaLE08XFhX98k8kkyQAA0XJzc+P+xV/8hQsAHhHxL/g1jgkQHbu7u4Fz9vr6mnMYADB1tm13feaE6ZJMJt1arabf7ZnQ/7Z3sW3b32d9fb1rvNFoBH6Puk8mk3Hd2+NsGEbXY3vx4oV7c3MT+HnV999/7xaLRTeZTA49Hi9evPB/t2EYPfer1Wr+7+p3mQb1sRqGoQ/71Ps86DLocY+rUql0/f5cLqfvtnDHx8eB+zgLuVzO//2FQkEfBoBQ+vz5s3tzc+Mmbm5u3M+fP8v9+/f1XAGAJbWysuIvff3+++9ldXVV32XpqMdkFstNAUxPr9JB6qw9zmEAwLSdnZ0trH+NYRiytbUl/+Af/AP54z/+Y3/7PD/v1DI3Ku8+VKvVrpnkeqkgy7Lk8ePH/m21dE+/Uk3jMgxDbNvWN3eV/xlVLpcLrFiYxjFXH2sul5Pj42N9F5Hb+/zkyROxLEsf8mUyGanVal0z++NuWDmlaVD/xuXlpWxubuq7AIigTqcjR0dH8vr1a2m1Wv72RZYGnCZKBgHoS13ueHV1FRhbRo7j+P8cLNuXaSCKepUOAgBglnZ2duT6+lpc1xXXdeX6+lpevHghyWRS33Uq1tfXJZfLydu3b8W2bTk/P5fPnz/74/MuX9LrO/KgJrTpdLqr3n42mw3cVn9noVAQ27bvXKu+388bhiHFYlHf3FcmkxHbtuX4+DhwPw8ODgL7TaJQKPivo37JALm9z41Go+dj8u7fyclJz+cm7tRyQbVaLTA2DRcXF/7fSCaTJANGZFmWmKYppmkOLIcFzINXes80TUkkEv5lbW1NyuVyIBkgWmlA0zRnUr5unkgIAOiifqFZxCynsPnw4YN//cGDB4ExAOGUSqV6/oMMAMA8pFIpefXqlXz8+NEP7k7zcnNzI8fHx7K1teX/zdPTU//6OMHtadBrtGcymUAwWw3Qym1zWz1QPazmu2EYUqvVxHVdaTQaIyU9ksmk/zPukAB7v/4Qql6B9kGJj1lTj4l6WdZEQC+zOA5v3rzxr6t9MjBYNpuVVqsV6t4TiKdewf+HDx/K0dFRV+B/FN5rOMrJLRICALp89dVX/vU///M/D4wtI32ZGIBoOD4+DjQiBAAgztSA+l2ax06iUqn4gdGdnZ2Bs7IzmczQIO2gwL30WJHR7/Lx48exJgios/N7XXoF2tXHTnB48WY9a7fdbgcCgD//+c8D4+hPbXI9bnkuYFTTCP7ryWS3TyLaSwyo7zteY/ewJwtICADoor7JsUKAFQJAVHlL6fWkQKlUCtwGACDq9Bn482YYhpycnPhBEz1ort4elCyIIvWxx+2xRZG6SmMWCZrDw0M/mJ1KpSgXNAZ95dI0SmwBcptsKpVKYprmyMF/tfSenvztlUz2EtF6+TrHcSSfz/vJh6ishCEhAKCLmhAY9ia6DP7yL//Sv/47v/M7gTEA4eYlBVTlcpmkAAAgVg4PD/3r+gzGMPACgblcritZ4Om3HRhVu92eaf+AdrsdmAmsB7gxWKFQkBcvXvi3511iC/GgBv+H1f339Ar+9yq9NwqvVNuwEnMyoG9NGJAQAIAhWCEARFuvAEO5XJZ8Pr/wGZUAAEzDIvsHjMIrxTOoFJCaNAAmoSfGen0HvAt9dcC8S3PFQaVS8Z8Xx3GoSICRqaWA5hX8H2RQs3u18XxYJW5ubtzPnz/L/fv39TEASyyRSPjXXdcNjC2btbU1v97hzc2NrK+v67sACDn1PU1lGIbkcjl5+fIl5zYAILL47g6IbGxs+JM9Go3G1AP2s/79y+Lp06d+EnNnZ6drNS+WV6fTkaOjI3n9+nXfgH8/yWRSisVizwA9fsO2bfn06RMJAQC98U/Fb3AsgOhTz+OdnR05OzsLjHuSyaSk02n59ttvpzqDBACAWeL7KjDb8+Di4kK2t7dFbr8vfvz4Ud8FI2o2m/Lw4UP/9rSfK4RPs9mU169fy9nZ2diB/l4I/k/OSwhQMggAACyVRqMhjUajZ43lVqsl1WpVtre3ZWNjQ/b29igrBAAAsOTevHnjX59Fs+JlopdzomzQ4qhleLx6/LO4jNrodxC1FFCvpr8YDysEAPSUmOHsiqjhWADR1+88Pjs7k3K5PNY/IslkUnZ2digzBAAIhXa7LRsbG/5tvq9iWfX7vjcNarmgy8tL2dzc1HfBGCgbNHvTnpU/L8z+n61AyaBEIiH37t3T9wGwxGb5ZSpqOBZA9I16Hk/jizNfYgEA87S3tydHR0citzNvr6+v9V2ApTDq971JzPJ3LyO9bFCxWJRSqRTYB6O5S939eVlfX5ednR3KsoYACQEAA/GF5zc4FkD0TXIeT7J6wGMYhti2rW8GAGDqaHQKzL7G/yTfJTFYNpuVer3u376+vu5Z0hO/MY3JSyoC9cuHHgIAAAAD7OzsyPX1tbiuG7j06z+gYnUAAGBe1F43JAOwrGZZ4//i4sK/nkwmA2OY3PHxcSAIXS6XA+P4NbXO/zi1+NWa+/r/M97l5uam63nAcmCFAICemAHxGxwLIPo4jwEAccVnHDDbGv/5fF6q1aqIiBQKBalUKvoumBClg4ImXQFAyVKMipJBAAbiH4vf4FgA0cd5DACIKz7jgNmdB+12W0zTFMdxRGaQbEB36aBlSwqMkwSgxA/uioQAgIFm9YUqijgWQPRxHgPxZFmW5PN5kdsAAjPjsIz4jANmdx7QtHv2HMeRJ0+eiGVZ/ra49RNotVpycXEh3333nVxcXAwN/KtIAmCaSAgAGGhWX6iiiGMBRB/nMRBPpmn6/1QbhiHHx8ckBbB0+IwDZnce0LR7PhzHkcePH/v9Gra2tuTk5ETW19f1XUOr3W6LZVkTBf09BP8xayQEAAw0qy9UUcSxAKKP8xiIp4ODA9nf3/dvkxTAMuIzDstOrUO/uroq33//vb7LRC4uLmR7e1vktkb7x48f9V0wRXo/AcMwJJfLycuXL0ObGPDK/ViWJR8+fNCHR0ISAPPkJQR+pA8AAIIMw9A3AQCAGbEsS7a3twP1hPvRmzs6jiP5fH6knwUAxIM3q1xuZ5ZPy5s3b/zrmUwmMIbpS6VSksvl/NuO48jR0ZFsbGxIIpGQRCIhpmlKPp8PPOez1Gq1pF6vSzabFdM0/fvhXR4+fChHR0dDkwGGYUg6nZZKpSKXl5fiuq5/ubm5kePj46m+doFhWCEAoCdmGv1ap9ORtbU1kSnPNgEwXysrK34zuGV+TwOiwCvPYBiG2LatD/fUa6XAqD8LRB3f27Hsnjx5ImdnZyIi8urVK3nx4oW+y9hoJrw4Z2dnUi6Xpdls6kM9JZNJ2dzclG+++Ua2trbkwYMH+i4DjdPUdxDDMGRra8u/H7xeEEaUDAIwEP9Y/NrV1ZV8/fXXIiKyubkpl5eX+i4AQq7dbsvGxoYIiT0g9EqlkpTLZf/2ON9B9KRAsViUUqkU2AeII763Y9mtra1Jp9MRmWIzWpoJL964iYFFoNwPooaSQQAwAvXLxzS+WAKYv6urK/865zEQXnoyYNzyDIVCITArtFwui2malA/CUuH1jmXTbDb9ZMDq6urUvuudnp7614vFYmAM87GzsyPX19eB8jrX19fy4sULSSaT+u4zMajUD+V+EGU/EhH54Ycf9O0AABH51a9+5V//8ssvA2MAooHEHhB+ejIgnU5LrVYL7DOKSqUi6XTav91qtegpgNhT+13l8/nAGBB3s+gfUK1Wpd1u+7d3dnYC41icVColr169ko8fPwaSBK9evZKdnR1ZXV3Vf2So9fV1yeVy8vbt266Av23bcn5+LoVCgRJAiBVWCADAAGpzoHFrEQIIh3fv3vnXHz16FBgDsHjVarUrGdBoNAJBzlEZhiGNRkN2d3f9bV6jYSCu1NnLjuOIaZpSrVYD+wBx9d133/nXv/nmm8DYpA4PD/3r465Ww/ylUil58eKFNBoN+f7777uC+sMuzPLHMiIhAAADMLMYiD515hjnMRA+00oGeAzDkFqtJpVKxd+mJgiAuCkUCoFzxlsZQw8NLAO1NOS0ArrPnj0TuV0ZMMlqNQAIu8TNzY37+fNnuX//vj4GYInRnOzXM6xWVlZEboMLtm3ruwCIAN7PgPBSm37LbaOzuyQDgGWlN9X2VCoVKRQK+mYgFtTPkNXVVfn+++/1XQAACpoKA8AQlAsCAGC21LIMqVRKTk9PxTRNSSQSXRcaBAP9FQoFv9612kejXC5TPgixpa4OYBUoAIyOhACAntTZeWpDpWXSarX868lkMjAGAADupt1uBwKVzWZTstls4PNX5ZVBIbgJ9Of10fC+y3s9NCgfhDiivCsATIaEAICe1PqLZ2dngbFlwQoBAABm59mzZ+I4jr55IIKbwHCGYQQaDcvtSgFvpQ1JNcTFu3fv/OuPHj0KjAEA+iMhAKCnb7/91r/+5s2bwNiy+Mu//Ev/+u/8zu8ExgAAwGQsy5Kf/vSn8md/9mf6kIiIZDIZsW1bXNf1L2qDYLkNbh4cHAS2AfiNQqHQVT5IlJU2JAcQB5QMAoDJ0FQYQE+dTkfW1tb828vYiHN7e1suLi5EROTt27eBVRMAooOmwkB4WJYlT58+lU6nE9ieyWSkVqsNbCjsOI48efJELMsSuZ0Fbdu2vhsAhbeqZtL+G8lkUtLptHz77bd8F0ao0FAYAMbnNRUmIQCgr2UPoq2trfkBi5ubG1lfX9d3ARABy/5eBoSJaZpdPQL+9E//VP7gD/4gsK0fx3FkZWXFv805DYzursmBaUkmk5JKpeSrr76Sra0tSaVSsrq6qu8GDHR2diZPnjwRuS13+/btW30XAIDGSwhQMggA+lBnL5IMAADg7p4/f65vGjkZILerAgBMxjAMqdVq4rqu2LYtu7u7+i5z0Wq15OzsTMrlsmxvb8va2pokEomhF9M05cmTJ1IqleTi4qJrpRGWCw2FAWByrBAA0Neyz6pd9scPxAXnMhAuapkHmeC85JwG5qfZbMrr16/l7Oysa3VPmLEKIf6ePHkiZ2dnIiJycnIimUxG3yU0LMuSw8NDefbs2cIScQAgesmgRCIh9+7d0/cBsOSW/R/uZX/8QFxwLmOZ1et1KZfLfiAvmUxKsVhcaEBib29Pjo6ORG5ndV5fX+u7DMQ5DURbs9mUZrMp7969k2az6ffsWgQSB9G1sbEh7XZbRETev38vDx480HcJDe++GoYhr169klwup+8CAHNBQgDAUCsrK+I4joiIXF9fL91STAIOQDxwLmPZ6EkAnReQEJG5ByXa7baYpul/v2g0GrKzs6PvNhDnNLCcFp1IIHkQHlFrKKz+X60LQ6IewPKghwCAodR/0MvlcmAMwOTq9bqYphmoiVutVvXdZkq9D6ZpLrzBIDApy7Jke3t77q9h/Rza29vzZyougnp/stls32SAKI1F8/m8HBwc6MMzVS6X/aBIKpUaOxkAYHmlUinZ3d2VV69eydu3b8V13b6X6+trqdVq8uLFC9na2tJ/1UTG6X1Av4PZurq68q9HYdJasVjUN/larZbk83l9MwDMFCsEAPTVbDbl4cOH/u1lm4WnzuRYtseO2SmVSn0TbMViUUqlkr556nrdB8MwxLbtwLa4YDZx+Ogz2O8yO05dhj/r13Cn05GjoyN5/fp134B7MpmUly9fznXmfa9zWpXJZKRWq8nR0ZHs7+8HxuZx3DzVajUQ9JhkdYBwTgOYokWvOugnmUzKgwcP5NGjR/LgwQNJJpOyubmp77a01M+9Fy9e+KvewsxLxveawJDL5eT4+FjfDABTR8kgACNZ1n+6O52OrK2tiURkGSqiYVjQTmaUFBgliCkxPseX9X0sbCzLknw+3/c1OCgw7f2s3J4jauJgXs9vtVqV/f39kWd5zuJcVg07nl4SwDCMwHbHcWRlZSWwbZbHTaXWe06n03J+fq7vMpSeVJjXfQeAMCQPDMPoW3rmLhZZDqnVasnFxYV89913cnFxIa1Wa+hEgSg1FAaAMCEhAGAky9pH4OrqSr7++msREdnc3JTLy0t9F2AsehArnU5Lo9EQuf2nxrIsf2x9fV0Mwxj4j9CoBgUx0+l04O/GNbDGap9wME2zb/Da0+/5UQPJeuJATQjUarU7nzO6Tqcj5XLZb4Kr8oLulmVJuVyWZrMZGJ9VUsCyLHn69GnXee29r+hJAJ16zGTAcZ829e/atj30fvaivhYymYycnJzouwDAwoUheRB1+ue9KkoNhQEgTOghAGAky9pHQA3qLEsSZJhF1emeJb2Wv1r3ddqPUz1/1KCdYRjSaDQknU774+12eyr1REulkuTz+a6godwG0n7/939f3xw77XbbTwbMa6Ybenv+/HngdiaTEdu2pVKpiAxpbqvW5tcD/mpQ+a7njK5arYppmoFkQDKZlFqtJq7rysnJiRiGITs7O3J9fS22bQfO5V5JgmnodV5nMpmRkgGLovdJmeR+lkqlwGuhVqsFxgEgLMbpd9Dr8v79ezk/P5disSiZTGYpywXpn/eeTqcTmCRAMgAAJvDmzRv3z//8z10A6OX6+toVEf+yLF68eOE/5levXunDS2l9fd0VEdcwDH0okorFYuC1rV8Mw3C3trbcSqWi/+jYbm5uAr/btm19F9e2bdcwjK77MSn98SWTSbdWqwX28Z5TEXEzmUxgLC4ajYb/GLe2tvRhRMSgc6JSqQwcn5R+DomIm06ne56/Ktu23a2tLf9ndnZ29F3uTH3MuVxOHx5Kf1zzcNf3m+Pj48B9nuR3AAB6u76+dmu1mvvixYvAZ9g8LoZhuOl02q1UKu7l5aV+17pcXl76P5tKpfRhAMAA//2//3f3zZs3roiI+/TpU30cAHxqkPL6+lofjqV0Ou0/5vPzc314Kalf3KNODywNukwjAZLL5fzf1+8fl17BR5nwWOuPr1cQU/97+nhcqI/zxYsX+jAiQv0c6sULkE8SHNd9//33gaSw9EmoDRL2ZLp63+Z1/9S/N8n7jZpQ6PWeBgBYDur3XJLDADCeZ8+euSLi/ujHP/6xvmgAAAKWsWzQ1dWVf52SQfHSbrdlb2/Pv51Op8W27cAy7fX1dX/8ro3bqtVqoFRGsVgMjMuIzYZH1evx6WVE9L+XyWQmKt8RBe/evfOvP3r0KDCG6PDOm35lhQqFgriuK8fHx/rQWHqVCEqn0/L+/fu+pQt6SaVSXeccfuP09FTfNJBeKkh/TwMALI9f/epX/vWvvvoqMAYAGO7HP/6xkBAAMNTLly/962dnZ4GxuFJrM6vBYYzHsiwxTXOimvyD6vvrtajHUS6X/SB/KpXqGVhSA093pfcOUBNschuA1Pe5i2GPT08GpNPpWNfhDkty7y7nwrR592Ua59O8TCvgP4jX+Ft9/++VUBuVmryYVS+BKNF7PYx6HujvWXFOYAIAhvvw4YN/nf4BADC+H//4xyI//elPKRkEYKh5lxZYtGV5vLVazU0mk24ymXSPj4/14YBRj4n3O9X9pU/pnfPz8577jnIZt4SH26OUTqPR0HfpKqUjQx7vIKP0DuhVBmPSvz3s8emPLe5lN9Tjv7q6qg/Plfo89zoX5uX8/NxdXV0NvA5EZCq9MqLs5uYmUJZokvcX3Tx6CUxKf/7nQe/1MMp5sGzvWQCA4dTvVB8/ftSHAQADPHv2zP3pT3/qyk9/+lP3D/7gD/RxAAiYd+Bg0eb9eHsF0ZPJpPvixQv35uZG3/3Oev0972/2C4INOyb9fqd30Wt79wtMjnMZJaDk0QN+6XRa36UroO5dJqXWIdd7B/Q6Xl6ga5K/Pezx6Y9tGQJrYWoorDeMnhc16ZZMJvuec+OcS3Gk9/mY1rmh9xIIS+JFf/7nZZxmyCQDAAC677//3v9cWPRkDwCIIhICAMaiBrPCEtCYpXkFSsaZIT/KLP5R6EEW/dIvMKjuoxv2O3sFfkZ53JlMJhAAsm3b3d3dDewz6utRD873CiypM47Uy6TU36fO1teD895j9Uzytwc9vl7Jgl6PP27C1FBYnx09L/1e070uy0o/H/WVNXelvmf1e3+dt7A+9+fn5+7W1lbX58OyvGcBAAa7vLz0Pxs2Nzf1YQDAECQEAIxFDTaGJaAxS/MKlOhBj1EukyQGGo1G37+VyWS6guy99BvvlQzQA/m96AHSQasTdOO+HvWAeK+An17eZxpJMPX3qfQgrX68+v1cP4Men74SQU8WxNnOzo7/uE9OTvThuRv3eZ0GfWVCv0uvpN2y0Mt2TZtt24Hn4fr6Wt9l7vTnPyz090bvOVmW9ywAwGBqEn+Zv7sAwKS8hMCPPn36pPcWAIAulUrFv+41LI2zeTUsfP78uX89k8mIbdviuq64riuNRqNnE9RWqyX5fF5KpZI+1FO73ZanT59Kq9UKbE+n02LbtpycnEzcVFZv9qj+zmHH0GsS6jVt9h7XKMZ9PeqNdvXGvt4+nlQq1dUQdFpKpVKgafGox2uQw8ND//E9ePDAf3ylUkmy2WzguS8Wi3f6W1FycXHhX+91Li2DYrGob+qSy+Vm2qxXZ1mWbG9vS7VaXXiD42q1GjgfG41GYHwaDMMIvOdM8/0kbtSGznL7uThpU2cAQPz86le/8q9/+eWXgTEAwGg+ffok8nu/93vuv/7X/1pPGABAlzDOJpyFMNam7FUqR0acua7WxvYu+ox0d4TnVx/Xy2xMOotTv2+jGvVn9PvZa3VAr33sOzT39eiPTb+oZYJU4/xdfXWAYRhdqwK8yyxmP4fZOMdxHhZ1f/TVON6l1/vAPPR6baqXYrGo/8jMqDPS+52P06D3Elg0/ZiHxTg9BgAAyyedTvufE+fn5/owAGCIYrHo/t7v/Z6buLm5cT9//iz379/XEwYAEJBIJPzrv44nxNPV1ZV8/fXXIiKyubkpl5eX+i4L4ziOPHnyRCzLErmdeWrbtr6byO0s3HK5LFdXV/62RqPRc3Z8tVoNzM7v9fzqz//GxoY/szadTk88i1P9vdLnb+tGub8e/X6en58Hxtvttpim6c+wV/fRH/O4VlZW+q5g6HfM2u22bGxs+LeH/d29vT05OjrSNwf0+1txd9fnb5rGfV5nISzHY5TXbKVSkUKhoG+eOvWY2LY903MkLMdfJnzfBQBg0dTv9Tc3N/5KYwDAaGzblk+fPsmP9AEAWHbNZtO/HrYyI4ZhBAK7juPIwcGBvpuIiGSz2UAyIJ1O90wGiFbCIpPJBMZ60cvezDvYPM791e+nTi8n1GufSfUr1zKoDMbh4aF/fZTX3+npqb4pYNDfwvyM+7zGWaVSkd3d3cC23d1dSafT/u1FlNWZ9Tmi/v5+79sAAKC3Tqfjf69fXV0lGQAAd0BCAMBIvBnpy2CetSm9Wtr1el0f6sswjKH17fW62NInGC49gvuj9BPQA/KzDqSp9Mc26P7qx0C/n6VSKVCzfNr19b0+CfplUM8ANcDfL6GgUh+jGmT1elIM+luYn3Gf11kIy+vAMAyp1WqBc6JWq0mj0fATfMMSfVE07H0bAAD09+HDB//6gwcPAmMAgPGQEAAwkmw2q2+KrXl+2cxms3JxcTFyM13PsKa6erCpX9Bebwrcb79+0un0wID8LIxzfwfNytYfe68VFIuY0asG+PX7M4waZCUREJ4AuNzxeZ0WLxGhBqbDxDAMOTk58RMEcTPsfXtexklAAwAQFmFexQ0AUUNCAMBI1GBWWINJ06KW2Zn1l03vuI4bHBoW6Ox0OoHb33zzTeB2vV4X0zS7AuLjBOEWUZd+3NUM/WZlV6vVrsfeawUFM3qjq91u++fV6uqqPryUvBUrx8fH+hDmYJ7vlaK8zycSicBlmRL8AID4mOcqbgCIOxICAMYW92CSGkyPam1KvSRJPp/vCgi1Wi1/fNzg/rj7DzLq79Bn9A9bHSADZmX3Sgb0+l2VSsXfPqhfA8Jnnom9ebMsS0zTFNM0AyWvFkG9L1Gceb6IVUCzoicA9Pf5fra3t/VNAACEzjxXcQNA3JEQAIAIGhYELBQK+qa+Jmk6O+7+gwxbcTKN1QwqfZXBoMdi9OjXoB/7SfpAYPbiuqy8Xq/L06dPpdVqSavVknw+L6VSSd9t5rzz8vHjx4H7EjX6+T1L+nvHtHhJmVETALrLy0t9EwAAoRPX73YAsAg/EhH54osv9O0AgBDTZ8pPYpyms3oga9j+41DrasttwF4GBLkGzegfZH9/vyuxMMoqA32VgL7a4vHjxxP1gcBsvXv3zr/+6NGjwFhUVatVyWazXSXByuXy3Ga39zsvRWtqHRX6+T3LlQ76e8+05PP5rufC473Pq++zepmFKD5vAIDl0ul0/Ak9q6urkV3FDQBhkbi5uXETiYTcu3dPHwMAXyKR8K+7rhsYi5t5PtZJ/pZeOse27Z5B7Ul+dz8bGxuBWfV3/X069b4OkslkpFar9Xy8vaysrPTtzzBOYuHg4ED29/f1zV3uelza7bZsbGz4t0f5fdN8nuNkbW3ND5y/f/9+4UvLp/E86edhMpn0A8GGYYht28re02VZ1sDAcy6Xi2w5ub29PTk6OvJvz+pYqq+Bfu/bk1Dfn8Z9jwQAIAqurq7k66+/FhGRzc1NVrcBwIRs25ZPnz5RMgjAaNTgwrxmoi6bUY6rngwYZYb7NKhByEUYZzWDSu+l4Bm3TFKhUBDbtgfOpB1W+miYer0eqOU97aXQ3u+f1eznsFFn0S86GTANeqkr27bl/fv3/m3HcWby3HorArzSQCrvvIx6o+JKpRI4t72VAvrKqLvQf9eo7z2j8JpFu6479nskAABRQLkgAJiym5sbt91uuwAwyIsXL1wRcUXENQxDH44V73H+eiLvbKl/a9hxLRaLgf3T6bRr27a+m88wDH/fSqWiD/dUq9Xcra0tt1arBbarf3cWx0X//eoll8vpu4+lUqn4vyuTyQw8ZotyfHzc9bgbjYa+W0+jPC/qa2fY6ywuRjku83SX+6O/PjKZjD+mnuezeG6TyWTgb3uXu56Xozo/P+/5njQL6uecd0kmk+7x8bG+61jOz8/d1dXVns8fAAAYTv2MfvXqlT4MABjR58+f3ZubG5eEAICR2LYdCJLE2Twfpx586kcPCA5LBrgTJHHUv6HvP+r9nNQsf3cUrK+vT3yMhyV+9NfOsgQjJzmWs3SX+6O+PvRzX0149XsN3IX+++eVCHBvE5ReIF1/T5oF27bd3d3dwOP1LqMmBs7Pz/0kSjKZdGu1Wtf5Pey9GwAABKXTaf9z9Pz8XB8GAIzISwjQQwDASKrVaqBp6q/jW/E0jVrfo9Jr5/f6e+12W0zT9Gvhj1r73nEcWVtb83+uUqlIoVDQd5NOpyNHR0fyi1/8wi+zkslk5OTkxN9nlPt5F/M85mGkH18Z4zio9c971T5X686P+tqJg7C9pia9P/p7b6/a8/pr4NWrV3cuYbVo+uOWMY/bXXjNw/uVYEomk/Ly5cuuY1yv12Vvby9Qrsp7rrz34Sj3WgAAYFHU77M3Nzc0FQaACdFDAMDILMsKNFTNZDKBccxWuVz2g0mpVGrkgK5hGIGAVblc7qpjXa1WxTRNKZfLgSBWrVYL7DfK38Nk7tqfoVKpBIKOpVLJH9Przo/62ok6tc7s6upqYCxqRukZor8G8vl84HUQVpZl9exrUa/Xu5p468H3WTIMQ2q1Wt++Ia1WS/L5vCQSicAlm80G3kdFRHZ3d/1eJiQDAAAYX6fT8b/Prq6ukgwAgClghQCAodQZGdJnhmqcTDqTdxL6zHD97+lNhBuNhuzs7AT2GURfJTCKXkGrg4MDP0DXa/yu5nnMw0ad3a0a5zj0+x0qfdVHnB0dHcne3p6IiOzs7Eij0dB3mbtJXuP6LPlB773qOeopFouhTgx4ny3eyhbLsiSfz3c1Lx70uOdh2IqBXmbxPgkAwDK6urqSr7/+WkRENjc35fLyUt8FADAiVggAGJmaDMjlcgsNzCyLer3uz9z3pNPpsZIBcjvT1ZudOkgymZRarSau6/YMYhUKBXFdt+84JtNut7tWbUyiUqlIOp3WN/vS6XTXqo84++677/zr33zzTWAsSkZZHeApFApi23bgdVAul7tmsXsX0zTHCnDPgvfZ4jiOJBIJefz4cVcyIAyfOd6KAdd1+64a8GQyGbFtm/dJAACmRF35mUqlAmMAgMmQEAAwlkePHumbQqder/csQxEF9XpdSqWSZLPZQGDMq/0+CS9Q2C+Ilclk5P37933HMTuHh4f+6o27LH82DEMajUbP5zCTyUytVFC/Ei9hc3V15V/f2toKjEWJmoy9uLgYGsj3XgeDkkMer+zNIg16TYY1sK4mB3pdTk5OBj4uAAAwnl/96lf+9S+//DIwBgCYDCWDAAy1srLiBy290g5h4jXFff36dSCIPul9naS0x6T0kkG9ZDIZqdVqsQ4yzfOYh4XeLDqZTPqv31QqJdfX19pPLJ5e4iWM2u22bGxsiNzWmf3+++/1XRZiktd4v/eHYcd/1BI3iy5r06vMkYTgfgEAgPB4/PixWJYlIiLn5+cjTXwAAPRGySAAI1NLzoxTi37WOp2OlEolv7SOXmpi3PI6YZNOp8W2bWacxpS+OkCdDT5KmadF8Bqmhul9QKeuDoj6svJ+532vlSCqYbPYvcuig+5qKbIw3S8AABAelAwCgOn7kYjIDz/8oG8HAF+hUNA3LVSz2ZS9vT0/EeAFKVXerPqommaZF4SP3jvAMAw/yJ5KpUKbzPISFblcTh8KjTj906gmhrwSOgTMAQDAsuh0Ov6kmdXV1TuV2AQA/AYrBACElhr4V5thPnz4UI6OjgKJALUprhvROs7qDNko3n+MTl0dkEqlAjPuw7o6QJQZ3WEOSL97986/HoWeJ4OoM+h5TwAAAMvmw4cP/vUHDx4ExgAAkyMhAGAor2bjrLVaLanX65LNZsU0TT/wr5cCUnmJgI8fPw4towGExenpqX+9WCwGygWFdXVAVFxcXPjXo75CAAAAYJnFaeUnAIQJCQEAA1mWJU+fPtU3T0wP+qsz/03TlGw2K/V6fWASYH19XXK5nLx9+5ZEACKJBMBsNJtNf+XQ6uoqM8kAAAAi7Fe/+pV//csvvwyMAQAmR0IAwEDZbLarRr8axB/3MmrQX7TAv1pO5+bmRo6Pj2Vra0v/EcSAaZpSr9f1zbGh9g7AdKmrA3h/AAAAiDZKBgHAbJAQADCQngyYJcMwJJ1OS6VSkcvLSwL/S0Stjd5qtSSfzwfG46RcLvvXM5lMYAx389133/nXv/nmm8AYAAAAooWSQQAwGyQEAAw07QanetBfnflv27acn59LoVCQzc1N/UcRY/rrLM5loNRyQbVaLXAbdxPmFQJq0uvg4CAwBgAAgKB2u+1/T15dXZX19XV9FwDAhBI3Nzfu58+f5f79+/oYACylRCLhX3ddNzA2bfP8WwgH/Tnf29uTo6MjkduZT9fX18reGId+bMNEfZ4NwxDbtvVdAAAAcOvs7EyePHkicjvR4+3bt/ouAIAx2bYtnz59YoUAAADz0ms1wOnpqX9dXymB+KhUKv4qAcdxWCUAAAAwAOWCAGB2SAgAADAnh4eH/nXvHxs1SbCzs+NfR7wYhiG5XM6/rfaSAAAAQNC7d+/8648ePQqMAQDuhoQAAABzoq8GqFargXHEm75KAAAAAL2pvaHisELAsizZ3t6Wer2uDwHA3JEQAABgTtTVAJubm7K3t+ffzmQy/nWMT11Wvrq6GhgLC8Mw/LJQ6moBAAAABHU6Hf/6gwcPAmNRlM1m5eLiQvL5vD4EAHP3IxGRL774Qt8OAABm6PDw0J8lnkqlpFar6btgDOossq2trcBYmBQKBXFdV46Pj/UhAAAAxJQ3MYhVogDCgBUCAADMiVcuRkQC5YKKxWJgDOP77rvv/OvffPNNYAwAAAAAAPwaCQEAAOZELROjzg6imfDdRWWFAAAAAAAAi0RCAACAOVGbynqoJT8dap3ZODSeAwAAWGb6d2YAwPSQEAAAYE7UprJymwygljwAAADwG+12219Nu7q6qg8j4hzHkYuLCzk4OJCnT5+KaZqSSCQWdjFNU548eSKlUkkuLi4CE42AuErc3Ny4iURC7t27p48BwFJKJBL+ddd1A2PTtrKy4n/Zvb6+ZmYzMKF5nrcAAACYnbOzM3ny5InIbSnIt2/f6rtETty+qzqOI1dXV3J1dSXv3r2Tq6srabVa+m5dDMOIRGPlZDIpqVRKvvrqK9na2pJUKkVyCrFg27Z8+vSJhAAA6Ob5Ze3p06dyenoqcltHvtFo6LsAGKLZbMrDhw9FbmeRff/99/ouAAAAiIhSqSTlcllERF68eCGvXr3Sd4mcef6PeVetVksuLi7ku+++k4uLi65Af1SC+tNGkgBxQEIAAPqY55c1NZApInJ8fExNeWBMR0dHsre3J0JiDQAAIPKePHkiZ2dnIiJycnIimUxG3yVy5vk/5jDDAv7zsLm56QfXU6mUbG5u6rvMTbPZlGazKe/evZNmsykXFxf6Ln0lk0nZ3NyUb775Rra2tuTBgwf6LkCokBAAgD7m/WVNLRskt41nC4VCYB8A/an/NL569UpevHih7wIAAICI2NjYkHa7LSIi79+/j0WQdZ7/Y84r4B+moP60TZokWF9fl52dHflX/+pfxeJ1i/ghIQAAfczzy5qIyMHBgezv7/u3DcMQ27YD+wDob21tzW/+RS8OAACA6Gq327KxsSESs1KQs/gfs9lsyuvXr+Xs7GyqQX/DMGRra8uf9R6nQP9djJsk2NzclOfPn0smkxHDMPRhYCFICABAH7P4sjaM4ziSzWbl9PRUdnd3pVar6bsA6OHi4kK2t7dFbpfsfvz4Ud8FAAAAERHHhsJyx/8xpx34j0rA37IsOTw8lGfPnsnu7q4+HApeYsBbjeFNUlKtrq5KOp2mrBBCgYQAAPRxly9rAOYrn89LtVoVEZFCoSCVSkXfBQAAABERx4bCMsb/mNMI/kcl4D+MVzoqSivor66u5E/+5E/k9PS0b+Pl9fV1yWQy8vLlS1lfX9eHgZkKJAQ+f/4s9+/f1/cBgKU06pc1AIun1pi9vLyM7D88AAAAiGdDYRnyP2an05GjoyN5/fr1WEkAr179t99+K1tbW/pw5A06ZmHX6XTk9PRUfvGLX8iHDx/0YZHbxE0ulyMxgLkiIQAAfUT5iwewbDhfAQAA4iOODYVF+86aTCYJ/I8gLt/zh5UVMgxDdnd3l+75xWKQEACAPuLyxQNYBpyvAAAA8RC3hsKTzPxf1uB/L3H9nn92diblclmazaY+RDkhzJyXEPiRPgAAAAAAAADM09XVlX89lUoFxqLEsiwxTVPW1takXC6PlAxIJpNSq9Xk5uZGjo+Plz4ZEGc7OztyfX0tjUaj63Xebrfl6OhITNOUvb09f7UMMG0kBAAAAAAAALBQ6oxpPVAadl4SIJFIyOPHjwcmATKZjNi2La7r+pePHz/K7u6uvitizEsMXF9fy4sXLySZTPpjjuP4iYF8Pi8XFxeBnwXuioQAAAAAAAAAFurdu3f+9UePHgXGwsyyLHn69GnPJIA38191cnIihmEEtmF5pVIpefXqlXz8+LFr1YDjOFKtVmV7e1s2NjZkf39fHMcJ/DwwCRICAAAAAAAAWCh1FnRUVgh4yQC9UayISC6XY+Y/xjKsnNDBwYE8fPgwUF4LmARNhQFAE9fmRUAccb4CAABEX7PZlIcPH4pErKHwxsZGoM57LpeT4+PjwD7Cd9aJcMx+fV68fv1azs7Oulag5HI5mk9jbDQVBgAAAAAAwMKpqwOiFOAcJRkATEotJ1Sr1WR1ddUfU0sJ0WcA4yIhAAAAAIRQvV6X7e1tqdfr+hAAALHy3Xff+de/+eabwFhUkAzALO3u7sr79+8lnU4HtrfbbZIDGBslgwBAw9JEIDo4XxFX1WpV8vm8iIgYhiG2beu7AAAQG2tra34d/uvr66766WG1srLiN3kd9F2U76zj45j1N6iUkGd9fV0ymYy8fPlS1tfX9WEsKUoGAQAAACFVLpf96zs7O4ExAADiRm3KG5VkgIhIsVgUuS0XBMyLWkro+vpaXrx4IclkMrBPu92Wo6MjMU2TVQPokri5uXETiYTcu3dPHwOApcRMBCA6OF8RV+pr27ZtMQwjMN6LZVlyeHgoz549k93dXX0YAIDQivt3urg/vlngmI1vlJUDIiLJZFJ2dnZYPbCEWCEAAAAAhFCpVArcHiUZICKSzWbl4uLCLzUEAADQi2VZYpqmJBKJrotpmvQviih15UCj0ei72qbVavmrBw4ODvRhLAFWCACAhpkIQHRwviJu1N4BIiKZTEZOTk4C+/Sjng+1Wo1VAgCAyIj7d7qwPT7TNAfOIA9D/6KwHbOoGmfVQLFY5PtjzLFCAAAAAOjBsizZ3t5eyOw4tXdAOp2WWq0WGB9EXUnAKgEAQFSotc31OuiYjefPn+ubAggKx4e6asB1XXFdt+fqgVarxffHJUJCAAAAAFAMK70zy4RBu932rzcajZHLBYnS2FBExHGcwBgAAGH15s0b/3omkwmMYTYKhYIfHO51OT4+1n8EMbKzsyOXl5ddiR/9NuKLhAAAAABip16vd9XGHbUmrheUdxyn5/5qwqDX+KQm7R3gKRQKgdvTvG8AAMzK2dmZf/3nP/95YAzAbBiGIbVajUTQkqKHAABoqFUIRAfn63KyLEvy+fzAOqj9jFITd2VlxZ9h32v/YeOTuEvvANUs7hsAALNycXEh29vbIrflgj5+/KjvEgt8Zx0fxyxcLMuSw8NDefbsGSsJIoweAgAAAIikSZMBMuJSaLX0Tq/9h41P4i69A1SUDQIARAnlgoBoGFZSE9HCCgEA0DATAYgOztfldHBwIPv7+/rmLplMRmq12tildxZBfS3btn2n++wdn1wux9JvAECobWxs+KX6Li8vZXNzU98lFvjOOj6OWbjwfMSDt0KAhAAAaPigA6KD8xVx0G63ZWNjw7+dTCZ7roBIJpPy8uVLyeVy+hAAAJG0LN/lluVxThPHLFx4PuKBkkEAAAAYSG3Ma5qmVKtVfRfcgWVZYppmIBnwW7/1Wz2TASIirVZL8vn8yM2RAQAAwkr9nuld+I4TXurq1YODg8AYoocVAgCgIfMNREfYz9dmsymvX7+Ws7OzvkFeTzKZlJ2dHXn58qWsr6/rw3OnN7lVJZNJKRaLU6ufv4wsy5KnT59Kp9PRh0ZCw2AAQByE/bvctCzL4xyFZVkD+0F533E4ZuGyt7cnR0dHInwPjbTACoEffvhBHwcAAMCYOp2OlEolf7bTw4cP5ejoqO8/PKpWqyVHR0dimqbs7e359XQXRW1yq/NmqrNiYHLZbHZgMiCXy4nruv7Ftu1AAsZxHGZnAQAi7eLiwr+eTCYDY4ivbDY78Lux4zisEgihSqXiX3ccJzCG6KFkEAAAwIT0BMDa2pqUy+WB/+QM4zhOKBIDerB6dXU1cNtxHMnn8wSlJ6QfX1WvZsCGYUitVpMXL1742wYlbQAACLs3b9741zOZTGAM8VStVgPfbTOZjNi2La7rBkrS9FulisUxDCPwHDWbzcA4ooWEAAAAwJi8mqfDEgDr6+uSy+Xk7du3gdnevS6NRkNSqZT/s2piYBGzpIrFYuC24zjium5gdpAQlJ6YfnxTqZT/WtCTASpmZwEA4uLs7My//vOf/zwwhvixLEv29/f925lMRk5OTvwgs/rdiO844bSzs+Nf53+AaEvc3Ny4nz9/lvv37+tjALCUqFUIRMciztdSqTTwC/Bd6+ufnZ1JuVzumnVzfX0dSBjMg3p81VnrjuPIysqKPzavYz8qrzat3P5zOelzMWsbGxv+LLlGoxH4J2uQRbzuAQCYtmX6PFumx9qP+r1HbmuZqzPORatTr1rWYxY2zWZTHj586N/meYker4cACQEA0PBlDYiOeZ6v/Rqg3TUB0M/Z2Zns7+/Lhw8fRG5n5DQaDX23mRp0fAeNLZr+D6dnVs/VJNrttmxsbPi3xzmGYT72AACMapk+z6L2WC3LksPDQ3n27NnUvjf1m2ii0iedeKJwzJZF1F7LCCIhAAB98AEHREO1Wg3UF531+aoHmdPptDQaja6ZTdOkz8KpVCpSKBQC+8zSoPfDQWOLtrKy0nepuWEYYtu2vnnu1BlwqVRKrq+v9V36CvOxBwBgFHdJjEdRlD67LcuSp0+fSqfTmer3plGPQa/vcYP2x3yN+jwinLyEAD0EAABAJKlle2bdiK5XA7RZJwPkNlCszsoaVKponqrVqr4pVPT6/KppzXK7q9PTU//6oPsLAEAcHR4e+tfnXRIRg2WzWel0OiJTrOU/zndHvhcBs8cKAQDQkPEGwk+v49+rBuk0qasDvAZo86IvnZ7n+1Kv98N6vS57e3v+P4rzPh5x0evYjmLeK2MAAJi2drstpmn6weZx+uhE1aSf+4swSmmfcY37XVq9DxKBY7ZM1BUcNzc3sr6+ru+CEKNkEAD0EaUva8Ay0pMBo/xTcVfq+8Kskw+9LOp9qdeSbd0ijkccTPqcjvsPNQAAYXOXsnlRNenn/iLM4r6O+12ahEB4PX78WCzLEhGR4+NjyeVy+i4IMUoGAQCAyKlWq4FkQDqdllqtFthn1ob9AxM29XpdTNOURCIhiURCTNOUer2u79bTsC/4uVwucscj6tTSVfN+7QMAMA2UzVtuo3x3HGUfLMa3337rX3/z5k1gDNHBCgEA0MxiRgSAu9NL1cyjqa9HnSl/fX0991q3k74v6aspPKM2iHMcR/L5fFcCIZPJSK1Wm8uxjyv1NTXqc7psDRgBAPE06feaKIvSY57FfR33d6qrSGTEn8F8dDodWVtb82/z3EQLKwQAAEBklEqlQIMzua03O6+AtFrXtleAfZbUGeHj6JcMkNtA/8HBgb65i2EYUqvVxHXdwOXk5GRuxz6uvBmRw1ZhqGjACACIukm/12C5VCqVwO1RvrdiPlZXV/VNiKAfiYh88cUX+nYAAICF63Q6sre31xXYnnepmpcvX/rXz87OAmOzNkkQuFdpJdu25cWLF/42/ZhivgqFgriuO3Kjvna7LdVq1b9NiQUAQBRN8r0G8aKvPO1F/57P91ZgulghAAAAQqlarYppmoHlwl5ge9Qg6rSkUqnAPybznN02SZ1dPRngraaoVCr+43AcR0qlkvJT4WFZlmxvb4/0D+OkLMsS0zTH6qmwSIeHh36JoVQqFVi1AgBAVEzyvQbzpX7nndZ3RfV35vP5wNgovO9ACIdF/V+E6SEhAAAAQsVrgpvP5wMlgubZM6CXra0t//q8VglcXFz4X7KTyeRIQeBqtRr4Yq4eM8MwAiVqyuWyNJtN//YidTodKZVKYpqmPH78WC4uLib6h3FU2WxWWq2WtFqtmf6daWB1AAAgLtTvKKN8r8H86d8Vp1GuR/3u4jjOSBMyFvWdH8Mt4v8iTBcJAQAAEBper4BWq+VvSyaTUqvV5Pz8fKH/GHz77bf+9Tdv3gTGZkX9O5lMJjDWS7vdlr29Pf92JpPpOmaVSiXwJX7RS7C9BNDa2pqUy+XAcz+r2WClUikQkNjd3Q2Mhw2rAwAAcaAmt8MgaqsF56VSqUg6nfZvT+O7YqFQCJSubLVaks1mJZFISCKR6PkcjNNnCfO1iP+LMF2Jm5sbN5FIyL179/QxAFhKiUTCv+66bmAMwPTV6/WuQLAnk8lIrVbrCmovQqfTkY2NDT8we319PdPat+12W0zT9P/e5eWlbG5u6rsF7O3t+SWWUqmUXF5e9jx2zWZTHj586N+e9WPxDHque8nlclMvD6U3W85kMnJychLYJ2w2Njb8BEaj0SAhAACIJPXzbNafv51OR46OjuT169cjfe8wDENs29Y3T03U/sd0HEfW1tb876GVSkUKhYK+21gcx5F8Pt8V+Pfoz4HjOJLNZuX09FR2dnak0WgE9sfidDodWVtb829H4TWNX7NtWz59+kRCAAB0UfuyBkTRsMDwossD9fPkyRN/Weys/zHRg/vX19f6Ll3GCRzP+rFYliX5fL7vc9xLMpmUYrE49Rn73n1xHCewMiCsrzMdn0sAgDhQP89s2x7783fcIP84ZjEJQRXFz3L1u6gerL+Lg4MD2d/f1zfP/DnAdEXxNQ0SAgDQFx9sQG+z/CdMFaZVATp9Zv3NzY2sr68H9pmWcYL7nnHev/THMu1VAqZpjvw6mfVzrh5LT9iTAZZlyeHhoayvrwcaMA57XgEACKtRvqfM6/umah6B6FEee9ioM/R3d3elVqvpu2CJRfE1DRICANAXH2xYVs1mU16/fi1nZ2dz+wfMM+uA8DQ9fvxYLMsSEZHj4+OZ1De9uLiQ7e1tkdtZ8x8/ftR36dJut2VjY8O/Pcr71yxXCfSb/bWI53plZSXQjyDsyQDpk8SYdXkFAABmSf8/a5LVhOOY1crDSeiPHYg69fv1LCdJYbq8hABNhQEAWBKtVkvq9bpks1kxTVMSt028vMvDhw/l6OhoZv+U6TKZjNi2La7rysnJSaiDs6p5NNEat5mw3Dae9Yw6079YLPrXz87O5ODgIDB+F4VCQVzX7bos4rlWH2cmkwl9MkBuEzyqdDrNzDwAQGwkEgl5/Pjx2N87k8mk1Gq1ru8XvS4fP34MRTIAiKOtrS3/ujfBCNHBCgEA0DB7A1HVarXk4uJCvvvuO7m4uBj7H6xRhGmm1aLMuolWs9mUr7/+eqxmwjJhiSERkWw26zd3m2Z9WNyNvqphklrLAACEif7Z1k8cv2/yP+b0vHnzRv7iL/5C/vAP/1Afwhx5E83kNjnw9u1bfReEECWDAKAPvqwhjBzHkaurK7m6upJ3797J1dXV1AP+6+vrsrOzI99++21gxge6zep9wnEc+frrr6XZbIqIyObmplxeXuq79TTpfXIcR1ZWVvzb4/wsZkctuTSP2sYAAMxav3KCy/A5N+n3NHT74z/+Y/mjP/ojjuOCzXqSFGaDhAAA9MGXNczbsGC/YRgjzaYaxjAM2drakm+++Ua2trZGmnWO3tQZbtNoxluv1+X169eyurrqL7k1DEOur6/lwYMH+u49qe9dtVptrFl16uMpFotSKpX0XQAAADAh/sdEHPG6jp5AQuDz589y//59fR8AWEp8qGFahgX6ZYrBfiHgP1dPnz6V09NTkSk0461Wq5LP5/XNUqlUpFAo6Jv7UoP645b+2dvbk6OjI//2uH8bAAAA/fE/JuKI13X0kBAAgD74UMOoBtXsn2ag37O5uSmpVEq++uorSaVSBPwXqNlsysOHD/3bd1kloNb+96TTaTk/Pw9sG+YuJWYcx5EnT56IZVkiEyQUAAAABrEsSw4PD+XZs2djrWKMC/7HRBzxuo4eEgIA0AcfahhlZv+0EeyPnidPnvjlfSZZJWBZluTz+a7XVjqdlkajMfcGso7jyNra2lRLIQEAAIgyAcIwDDk+Pl66pAD/YyKOeF1HDwkBAOiDD7V4GTSLv5dpz+wn0B9fd10l0GtlQDKZlPfv3889GeCZZikkAAAA6VEecRlXIvI/JuKI13X0kBAAgD74UIuOcYP900bNfky6SqBUKkm5XNY3S6FQkEqlom+eGz3JQYNhAABwV70mQSzb/1n8j4k44nUdPSQEAKAPtTGnOuPXq3v57bffSi6X034Kk1pEeZ5RMLMfo9AD6MNWCdTrdSmXy31f45eXlwt/rWWzWanX6/5tkgIAAOAu1KChZ9mChwROEUdq7OTm5kbW19f1XRAyJAQAoI9+JTNM0/SDeLlcTorFIh94QzSbTWm1WtJsNuXdu3f+bc+0y/P0wix+zNqoqwT6rQrwTNJIeBb0BsNCUgAAANwBCQESAoinx48f+/8zHB8fM3EyAkgIAEAf+oxf7wvb3t6eHB0d+dsNw5BcLicvX75c+sSAPsv/w4cP0mw29d2mjmA/wqDfe4Zn2KoAWWAj4X5ICgAAgGnREwK5XE6Oj48D2+KOhADiqF6vSzabFRGRra0tefv2rb4LQoaEAAAM0OsLm+M48vTpU38msCeuiQE9yN+vlM80ZvlTngdRpy6XHVfYkgGeXkmBZDIpxWJRdnd3A/sCAAD0ojcUXtZgeK//L4Go63Q6sra25t/mtR1+JAQAYAD1C1utVgsEv87OzqRcLnfNgI9CYmCeQX4RkVQqJclk0g/0J5PJgfXVgajSVxD1s7q6Kp1Ox78d1mSAp1dSwDAMsW07sB8AAEAvakPhTCYjJycn+i5LgYQA4orXdrSQEACAAdTZvv2CX4MSA7u7u/Ltt9/K1tZWYGwW5h3k70ed5e9dB5aF4ziSz+cDzXhVmUxGKpWK/OxnP/PPw7AnAzz6Y1vGZf4AAGAyarDQtu3Qf++ZFYKmiCte29FCQgAABjg4OJD9/X2REYJf/RID8zDPID+lfIDJWZYl+XzeT9alUim5vLxc2n+KAQBA/LXbbdnY2PBvL3OwkKAp4orXdrQEEgKJRELu3bun7wMAGMMiEwPjIMgPzJ+6XF5EpNFoyM7OTmAfAACAOFFLKqZSKbm+vtZ3WRoETRFXvLajhYQAAMxIs9mU169fy9nZWc/SPbNAkB8IN/WLcjqdlvPz88A4AABA3KgTIpZ9MgRBU8QVr+1oISEAAAAwJ2pfEr4oAwCAZUCg8Dc4FogrXtvR4iUEfqQPAAAAYLqKxaLIbU8SAACAuFNLJQIAwoWEAAAAwIwVCgVxXXdgg3IAAIC4ODw89K+nUqnA2DIyDEPfBAALQ0IAAAAAAAAAU3N6eupf91ZKLqtOp+OXjlxdXdWHAWDuSAgAAAAAAABgatSSQcvcTFhE5MOHD/71Bw8eBMYAYBFICAAAAAAAAAAz0Gw2/euUTwIQBiQEAAAAAAAAMBU0FA761a9+5V//8ssvA2MAsAgkBAAAAAAAADAVNBQOomQQgLAhIQAAAAAAAICpoKFw0NXVlX+dBAmAMEjc3Ny4iURC7t27p48BAAAAAAAAI0skEv5113UDY8uI44E44/UdLbZty6dPn369QuCHH37QxwEAAAAAAAAAQIxQMggAAAAAAAB3RkNhYDjLssQ0TTFNU+r1uj4MzBwJAQAAAAAAANwZDYWB4bLZrLRaLWm1WpLP5/VhYOZICAAAAAAAAODOaCgMDKeupNnd3Q2MAfOQuLm5cT9//iz379/XxwAAAAAAAICR0GC0G8cEuji9JuL0WJZBoKkwAAAAAAAAAGB2qtWqvgmYOxICAAAAAAAAuBMaCgPDlctl/3omkwmMAfNCQgAAAAAAAAB3QkNhYDg1cVar1QJjwLyQEAAAAAAAAMCd0FAYGEwvF2QYRuA2MC8kBAAAAAAAAHAn6sznnZ2dwBgAygUhPBI3Nzfu58+f5f79+/oYAAAAAAAAMFQikfCvu64bGFtmHBd41NeCbduxWCHA6ztabNuWT58+sUIAAAAAAAAAwN1ZliXb29tSr9f1ISjikAxAdCVubm7cRCIh9+7d08cAAAAAAACAoZgp3NuyHZeNjQ1pt9tiGIbYtq0PL7U4vhbi+JjijBUCAAAAAAAAuDO1fwCWV7Va9V8LjuPowwBCgoQAAAAAAAAAJnZ4eOhfT6VSgTEsD5rm9kfSDGFCQgAAAAAAAAATOz099a8Xi8XAGGbLsiwxTVMSiYSYprmw2v3q6gARkVqtFhhfdiTNECb0EAAAAAAAAMDEqCPe3yyPjWVZ8vTpU+l0Ov62RdXu93oHyO3qgJOTE32XpaYen0ajITs7O/oukTTL1zemz+shQEIAAAAAAAAAEyMo2N8sj41pmtJqtQLbcrmcHB8fB7bNg/o4bdsWwzAC48tulq+DRYrr44ormgoDAAAAAAAAEfX8+XP/ei6XE9d1F5IMqFargdskA5bDxcWFfz2ZTAbGEG4kBAAAAAAAAICIKRQK4rruwhIBctssd29vz79NM+Hl8ebNG/86z3u0kBAAAAAAAAAAMLZyuSyO44jcNsulmfDyODs786///Oc/D4wh3EgIAAAAAAAAABhLtVoNlAsqFouRKRdkWZaYpimJREJM05R6va7vgiG8JskiIpubm4ExhBsJAQAAAAAAAExEDQpiuZTLZf96Op2WnZ2dwPi4LMuS7e3truC8F7yfVuC+Xq/L06dP/YbMrVZL8vm8vhsQWyQEAAAAAAAAMJHDw0P/eiqVCowh3tRkUKPRCIxNIpvNysXFhR+c9xIBjx8/llar5Qfu1aRAvV73Z/qPMtu/Wq1KNpuVTqcT2O44jhwcHAS2AXGVuLm5cT9//iz379/XxwAAAAAAAIC+NjY2/MBwo9G48yzxuEkkEv5113UDY1FWrVYDs+qn8dj0Y6W+tlSGYYht2133QR/vRf+dyWTSXylgGIasr69Lq9WSZDIpxWJRdnd3lZ+enP7Y4iCOjynubNuWT58+sUIAAAAAAAAAk1GDqyQDlodaLiiTyQTGpqFUKvVMBsjtbP56vS77+/v6kMjteC/677RtW96/f+/3PXAchzJCWAokBAAAAAAAAACMTA2s12q1wNg06AmH4+PjwLhe9qffigBPtVrt+p2GYYhhGLK6uhrY10MZof76JWsQDSQEAAAAAAAAgBnwZp+LSFfd+mnq15B3HtTHOG3pdFpqtVogmK/L5XJD74PeANlLYuirBjKZjORyOf/2oL+7zOgdEm30EAAAAAAAAMBEqCM+2Ndffy1XV1ciInJ+fi7pdFrfZSq82viD6udP0yyed/V3emzbFsMweo6l02lpNBp+MmDQfVLHbNv2mxd7JYLkNhlwcnIijuPIysqKv71Wq92pl0C73ZaNjQ3/tn7foojeIdFEDwEAAAAAAABghjY3N/3rzWYzMDZNXnC2X/38sKtWq/omv6xPL3oyYBD9dxuGIdlsNpAMUFcNeKWEPNlsVhKJhCQSCTFNc+xVGHGcTU/vkGgjIQAAAAAAAICxUUd8uK+++sq//ud//ueBsWnRA95RpJfmUQP0vR6fngywLCswrlJ/9/r6upim2VUmSP99xWLRv66apNnw6empf73f7wXmiYQAAAAAAAAAxhbHmc/Tph6XWa0Q0Jvl3pVlWWKaZt8Z8b0C9HdRrVa7kktqgF5PFvTqGZDNZgO3VervbrfbPcsE6b+vUChIpVIJbPOMWz6I2fQIG3oIAAAAAAAAYGzUER/NoNr206DXx9eD2+NSn1dPMpmUly9fSi6XC4yvr6/7f69YLI4dLJcef88L0ntWVlb8Ukj6mEc9BrlcTo6Pj/3b6s+rMpmM1Gq1Ox+vYWb9/C9CHB/TMvB6CJAQAAAAAAAAwNgICo5m1sdp2r+/VwNfTzKZDMywV03a0Fj/e3pSY29vT46OjmRnZ6fnbH4ZcgwODg5kf38/sE1PGszSoPsWVXF8TMuApsIAAAAAAAAARtYvGSATlNKRHuWHejUSfvXqlbiu21Xnvx+vAbBX8mh9fV1c1w1c5pUMAMKIFQIAAAAAAAAYG7OERzPr4zTt39+vxM4gk86418sF6asDRjXoPk+6cmFapv38hEEcH9MyCKwQ+OKLL/RxAAAAAAAAAEumWCzqm3rK5XJ3nnGv9yqYJBkgQ+7zJCsXgDijZBAAAAAAAAAQUWoQ/eDgIDA2iUKhIJVKRd8smUxGbNu+cxKgn1wup28aWaFQ6CoLNKv7CURd4ubmxk0kEnLv3j19DAAAAAAAAOiJsiGjmfVx8pruSgjK44xLLfUzi2MTBrN+/hchjo9pGdBUGAAAAAAAAIi4SqXirxJwHGcqqwTmxSv1c5fVAWGmN02Oi2mvSsF8kRAAAAAAAABApNTrdTFNU0zTlHq9rg8vFcMwAgH1crkcGA8zr9RPXMv6qM9FJpMJjEVZVF9v+DVKBgEAAAAAAGBsatmQWq02l+atnU5HyuWyXyJHIlAmZx7lVRzHkWw2K6enp7K7uyu1Wk3fBQugPve2bU/cNDlsHMeRlZUV//asXteYLkoGAQAAAAAAYGJqcDObzUoikRDTNKdeJsVbDZBIJGRtbS2QDBCRuSQiws4wDDk5ORHXdUkGhIRlWYHbcUkGSMweyzIiIQAAAAAAAICxefXfVa1WS/L5/J2SA51OR0qlkp8EyGaz0mq19N0knU6LbduxLTeDaMvn8/omIBRICAAAAAAAAGBshUJBKpWKvtmnJgfGuaytrUm5XO6ZBBARSSaTUqvV5Pz8nJnKCK3nz5/71+PaNBnRREIAAAAAAAAAA1mW5TfxPTg48Ld7TWFd1xXbtmdWvieTyYht2+K6rnz8+HFmfweYFvXciNsqllKppG9ChNBUGAAAAAAAAANtbGxIu932bw9rIuo4juTzeanX6/rQSJLJpBSLxVgE/hNzaCoMzEu1Wg2UQ8pkMnJychLYB+HkNRUmIQAAAAAAAICBVlZWxHEcERHZ2dmRRqOh74I+SAggTtTkYDqdlkajQemuiPASAj8SEfnhhx/0cQAAAAAAAEBERF6+fClymwxgNjCwvNSVQiQDoilxc3Pjfv78We7fv6+PAQAAAAAAALiDfisE6vW6vH79Wp49exaL0khYDv1ezwi/wAoBAAAAAAAAALNVr9fFNE1JJBKSzWbl4uIiUI8dCDPLsgK3J+0RgsVihQAAAAAAAAAwI+qM6l5oyoow63Q6cnR0JK9fv5ZWqxUYMwxDbNsObEN4sUIAAAAAAAAAmLFBNdYzmYzUajV9M7BQnU5HSqWSmKYpa2trUi6Xu5IBIkKpq4giIQAAAAAAAADMyObmZuB2JpMR27bFdV05OTkZmDAA5qHZbMre3p5fzmpQEkBEJJfLieu6cnx8rA8hAkgIAAAAAAAAADPyzTff+Ne//PJLkgBYGD3w710ePnwoR0dHfRMAyWRSarWauK5LIiAG6CEAAAAAAAAAzMjFxYVsb2+L3AZWP378qO8CTIXjOHJ1dSVXV1fy7t07ubq66hvkHyaZTEqxWKQsUIx4PQRICAAAAAAAAGAgy7Lk8PBQnj17RoBwTI7jyMrKin/bdd3AODCpVqslFxcX8t1338nV1ZV8+PBB32Uk6+vrsrOzI99++61sbW3pw4gJEgIAAAAAAAAYycbGhrTbbTEMQ2zb1ocxRCKR8K+TEMAw05zpryLwv9xICAAAAAAAAGAkakC7VquxSmBMJATQT7PZlFarJc1mU969eycfPnyYeKa/3DaxTqVS8tVXX0kqlepqao3lRUIAAAAAAAAAI1lZWRHHcUREln6VwCTlk0gILA89wO/d1q2urkqn09E3j8UwDNna2pJvvvlGtra2CP5joEBCIJFIyL179/R9AAAAAAAAADk4OJD9/X3/9jIHtb3ySWGXTCb9meJbW1uSSqVkdXVV3w1DzDPAr2KmP6aNhAAAAAAAAABG5iUFcrmcHB8f68NLQ10tgfiadoC/nwcPHkgymZRHjx751wn+YxZICAAAAAAAAABj0ldLAKpUKiXJZNKf2e+t1AAWjYQAAAAAAAAAMAeL6CHQbDYDZW4uLi70XTACAvyICxICAAAAAAAAwBwsIiEAACovIfAjfQAAAAAAAADoxbIs2d7elnq9rg8B6OPf/Jt/IysrK/J3/+7flYODA324r3q9zvmGqWOFAAAAAAAAAEaysbEh7XZbDMMQ27b1YfTBCoHlVSqVpFwuB7aN8hqoVquSz+dFRDjfMBWsEAAAAAAAAMBY2u22iIg4jqMPAbE27mz9er0upml2JQN2dnYCt/tRf27UnwFGwQoBAAAAAAAAjISZ7pPhuEXbuLP11f11tm2LYRj65gD950f5GWAYVggAAAAAAAAAwBDjztbXVwV4crncSIF99eczmcxIPwOMihUCAAAAAAAAGAkz3SejHrdarSa7u7uBcYSb+vwNm62vz+73DPs51Th/DxiVt0KAhAAAAAAAAABGsrKy4vcPICEwOjXAO0rJGYTLOIkwr/G2KpPJyMnJSWDbIOP8PWBUgZJBP/zwgz4OAAAAAAAABBSLRZHb0icYnTrDm4bM0WJZlr6pr1Kp1JUMkNtVIaOqVqv6JmCq6CEAAAAAAACAkRQKBXFdV46Pj/UhDEACZb7q9bqYpimJREISiYSYpjlxoD2bzeqbeqpWqz17B4zbA0DvHwBMGwkBAAAAAAAAYIYqlYof3B2lKS3GpyYBstmstFotf6zVakk+n5eDg4PAz4xCnfG/tbXl/x3TNKVer/tj//bf/lv/umrc1QHq3xv0s3rS466JDyyPxM3Njfv582e5f/++PgYAAAAAAAAAoVWv16VcLgcSAP1M0r9B7Zuh837fP/2n/1T+43/8j/qw5HK5kVfTtNttMU3T/1u9+g6M+lgrlYoUCgV9M5ZcoIcAAAAAAAAAAPSjzkjXZ8fPm2VZfVcDeDKZjIpNbA8AADA6SURBVPzyl7+U3/u935NHjx7528bl9c3oZXd3V6rV6p2TASIih4eHfjIglUp1rQ4olUp9H6uuV+kiwMMKAQAAAAAAAAC+UWaiTzLbflpM0+x53zKZjNRqNb9m/8bGhrTb7Tvf14ODA9nf3/dvq3/nxz/+sfz1X/+1P/aP//E/ll/+8pdj9Q0Q5b6KiDQajUBpqVKp1DPIr94Px3FkZWXFH3NdN7AvwAoBAAAAAAAAAD5vFcAoM9H7ldGZh+fPnwduZzIZsW1bTk5OAoF4L8DuOM5E/QM8XjNt76L+nf/zf/6Pv9/GxsZEyQC9d4CXDOh0OrK3txdIBqTTabFtu+t+jPs3sbxICAAAAAAAAGAkXqmWRZeMwfQMasarm6TkziwMCtD302uG/TSoM/H39/eH3o9e1PvmHeNqtSqmacrR0ZE/lk6npdFo9PwbNBPGqEgIAAAAAAAAYCRewLjVakk+n9eHESHDVgN4s+71wHtUTTuZ4R0/1b/7d/8ucHsU+uqAWq0mpVJJ8vm8dDodf/ugZEC73Za9vT3/9rQfK+KFhAAAAAAAAABGogYod3d3A2OIBm+Vx7BEwCiz7sdlWZZsb28vZHWJ3qT3Lvo1+J2kjJK+OuDg4CCwLZlMSq1Wk/Pz877Px7CGxICKhAAAAAAAAABGUiwWRUQkl8vJ8fGxPowI6BXIVlcDDEoE3LUsTTablYuLi4WsLplWEqJfg99J6KsDVldXu/oFvH//fmDyrd1uB56XYrHY9/kDREQSNzc37ufPn+X+/fv6GAAAAAAAAIAYWVlZ8WeTZzIZqdVqIweQNzY2/AB2JpMZq4RQu92WjY0N/7Zae/8uLMuSw8NDefbsmezu7kq9XpdyudyV9DAMQ2zbDmwbR6fTkXK5HKjpr/sn/+SfyA8//ODfl2HU46kbVCJIlc/n/YRAKpWS6+trfRdARERs25ZPnz79eoXAF198oY8DAAAAAAAAiBl1lceg1QC96LXux3F4eOhfT6VSgbG78FYdZLPZgY2RRwnQ93N2dtazwa93LOX2eP7X//pfR14Boa8OUI2aDDg6OupaHQAMk7i5uXETiYTcu3dPHwMAAAAAAAAAERFJJBL+9XFn+Kuz4RuNhuzs7Oi7TERd8dDP7/7u78r/+B//Q988knq9Lnt7eyM1+B3n+PRaHZBMJqVYLI6UvGg2m/L111/7jz2dTsv5+bm+G+ALrBAAAAAAAAAAgFlRg9/TSgZIn1nxmUwmcPu//bf/Frg9Kq95sJoM6Nfgd5z+Cr1WB4zSL8DjOI5ks1k/GbC5uSmNRkPfDeiJhAAAAAAAAACASCoUCuK6buCi9zbQg/ejqFarXc2Dc7lc34B9oVDwr3/xxRd9mxhbliX7+/uBbf/oH/0j+fz5s5yenga293NwcCDNZlPk9rGN0wcCICEAAAAAAAAAYCDLsvRNI9Nnw8/aOLP1+1GTAel0WmzbluPj48A+cltS6Kc//al8+vTJ3/bDDz/07SOgrzjIZDLyV3/1V/Jf/st/6fszqna7HejHUCwW5cGDB4F9gEFICAAAAAAAAAAQuQ38m6YpiURCTNP0Z7pns1l915HNqqFwP2owXy8fNArLsgJJjEajIaenp7K9vS31el3q9bp/jLLZrPzVX/1V4OdlQBNj9fdmMhk5OTnxkwmO40ipVFL27lYul/1SQalUKrAyARgFTYUBAAAAAAAAiGVZ8vTp08AMdsMwZH19XVqtlr8tl8v1nC3fS7vdFtM0/SD2NBsK96M297Vte+xyOqZpBh7vz3/+c/nlL38Z2KefP/3TP5U/+IM/0Df71CbI3n3b29uTo6Mjf59isdgzMVAqlQLJjnkcS8QHTYUBAAAAAAAA+PRyNnI7a10NjmcymZGTAXK7OkCd0T7rALZenmiUZIC6KiKRSAQer4iMnAwQkYHJAFGaIOdyOf++VSoVSafT/j7lcrkrIaAnA9Lp9MyPJeKJhAAAAAAAAADG8ubNG/njP/5jfTMiTk8G6DKZjNRqNX3zQGqjXC8YPktq0HzU8kT5fL4rCTBMJpMR27blxYsX/rZR/p7XBFlNqhiGIY1Go29SoFcyoNFo+LeBcZAQAAAAAAAAwFj+4i/+Qv7oj/5I37wwak33QRfTNGVvb69rFvmyqtfrfl180Wav//N//s8D+/6tv/W35Pd///dHmnGvUo/1rGe0V6vVQEPhURMQz58/1zd12djYkO+//15c1xXXdeXk5EQMw5hawqNfUuAnP/lJz2TAuM8D4KGHAAAAAAAAACKrWq1KPp/XN48kmUzKzs6OvHz5UtbX1/XhWFOPm2EYYtu21Ot1KZfLfWfLe/uNQ63n77puYGza1Nr/6XRazs/P9V1Govc9GBSEn/bjcxxHnjx5IpZl6UMD7wcwDD0EAAAAAAAAEHmHh4f6ppG1Wi05OjoS0zQln8/LxcWFvktsqbPOf+u3fksSiYRks9m+yQARkd3dXX3TQPNeifHs2TOR25UIdympo/c96BeEn8Xj81YK9DrW//Af/sOe9wMYx49ERH744Qd9OwAAAAAAABB6ahDYtm2/pEuvS6PR6Fnn3XEcqVarsr29LRsbG7EvK1StVgOPr19s0KuT7x2/cZoJi5as6XXcp61UKvnP810C53oZoH6/a1aPzzAM+Z3f+R19s/z7f//v/dJXamkkD709MIrEzc2N+/nzZ7l//74+BgAAAAAAAMTW2dmZlMtlaTab+pAYhiG5XC6W5YQ2Njb6Jjy8xsH9guDjUP9Oo9GYeQ+BadBLUPUrA6SXFZrm49Pvw09+8hP53//7fwf2USWTSSkWi/I//+f/lD/6oz/qe5+x3CgZBAAAAAAAgKW2s7Mj19fXcn19LS9evJBkMumPOY7jlxM6ODgI/FyU6asDRFsJ4DXLnYZ5NhTuRW+aPAq1lFImkwmMqcrlcqCs0LQeX7vdlr29Pf92Op2W//E//kfPEkKeVqsl+Xxe/vAP/5BkAIZihQAAAAAAAABwq9+qgVwuJ8ViMfKrBdRZ+5lMRk5OTvRdpmbaDXdHpTdHHqcZsnqfbdvumRzRZ/BPa3VAp9ORfD7vlyxKpVJyeXkZuA+O40g+n+9KcuRyubFLOmG5sEIAAAAAAAAA0HirBvR+A9VqNfKrBfTVAbVaLTAeRZZliWmakkgk/IveHHnSYL3aS8DTawb/pL9f5b2+hvUvMAxDarVaV38MkgEYFSsEAAAAAAAAgB4cx5GnT5/K2dlZYHuxWJRSqRTYFgXzXB0g2mz7Wq02sOzNpEzTDAT/deP2RFhZWfFLAfXyt//235a//uu/Fukzg38S+ooDuU00nJ+fB7YBd8EKAQAAAAAAAMRCs9mUs7MzKZVK8uTJk64Z45NeVlZWupIBcls/fm1tratsS9ipqwMePXoUGJsFNVCuB7yn5fnz5/omEaUvwrg9EYrFor4pwEsGSJ8Z/OPSVxwkk0mp1WokAzAzrBAAAAAAAABAJDiOI1dXV3J1dSXv3r2TDx8+dNX6n6ff/u3flv/7f/+vvjm0hs1+VyWTSXn58qXkcjl9aGQHBweyv7/v355nH4G70O93P95KEcuy5PDwUJ49ezb2Koh8Pi/ValVkiisOgF68FQIkBAAAAAAAALAQrVZLWq2WNJtN6XQ68t133/nbdIZhjBzMnqeoBLlljEC36q6JAe9vxqHp7b/8l/9S/sN/+A/6Zt84zYv1xscyxebEQC8kBAAAAAAAADBzvYL+nU5nqjP7Hzx4IMlkUh49eiQPHjyQBw8eBBoCT5PjOLKysuLfjlJCQG7vfz6fH7vcUVT7JkyT2oOhn1FeD/QMwCKQEAAAAAAAAMBUzCPo79nc3JRUKiVfffWVpFIp2dzc1HeZObX0zvX19cySD4vSL2lQqVSkUCgEti2ThNIkeXd3t+v4jLoKQk8sjNv4GJgECQEAAAAAAACMpdls+oH/d+/e+dcnlUwmJZlMSiqVkh//+MeytbUlq6uroQ+wP336VE5PT0VEZGdnRxqNhr5LLDiOI0+ePBHLskTGLIkTN/qs/lFWAvSjJpRs2yYRgLkIJAQSiYTcu3dP3wcAAAAAAABL5sOHD9Jut6c22z+qQf9Bms2mPHz40L99l+Bw2EW9RNK0mKbp1/vPZDJycnKi7zKyOPVVQHSQEAAAAAAAAFhyjuOIZVnyy1/+Uq6uruTDhw/6LiOJY9B/kHa7LRsbG/7tOAfJpzkzPspKpZKUy2XZ2dmRk5MTZvUjckgIAAAAAAAALKFWqyVnZ2fyn/7Tf/JLwYwqlUpJMpn06/d7SYBls7e3J0dHRyK3x+T6+lrfJRYsy5KnT59Kp9MRmcLMeACLQ0IAAAAAAAAgxno1+m2320NXAXgz+x88eCD37t2Tzc1NWV9fX8rAfy/tdltM0/RrwDcaDdnZ2dF3iwW9+S317oHoIiEAAAAAAAAQcb2C/uPW+0+lUrK1tSW///u/L+l0Wh+GJp/PS7VaFYn56gC9VBD17oFoIyEAAAAAAAAQMc1mU16/fi0XFxdjBf1Vq6urkk6n/QTA+vq6vgv60IPky7I6gFJBQPSREAAAAAAAAIgALwlwdnYmrVZLH+5r2Rr9zppeKiidTsv5+bm+W+TV63Upl8uB1xqlgoDoIyEAAAAAAAAQIr3K/3jb+iHoPx+dTkfy+bycnp6K3JYKury8jF2QXF8BIawOAGKDhAAAAAAAAMACOI4jV1dXcnV1Je/evZMPHz6MXP5nfX1ddnZ25Ntvv5WtrS19GFPW6XTk6OhIfvGLX0in0/G3x7FUkGVZ8vTp08DjzGQyUqvVYpf4AJYRCQEAAAAAAIAZazab/qx/L/j/4cMHfbeBSAIsRrValf39/UCAXGJcKkjtGSCUCQJih4QAAAAAAADAlLVaLfmTP/kTsSxr5Fn/nvX1dXnw4IE8ePBA7t27J5ubm7K+vk75nznrdDpSLpfl6OgosD2ZTEqxWJTd3d3A9rhYWVnx+yPkcjk5Pj7WdwEQYSQEAAAAAAAApuT09FRev34tlmXpQz1tbm5KKpWSr776SlKplGxubuq7YAF6rQqIeyLAc3BwIPv7+yQDgJgKJAQ+f/4s9+/f1/cBAAAAAABAD61WSy4uLuS7774Ty7ICpVZUqVRKksmkH/j3GgAjXPqtCkin09JoNCidAyDySAgAAAAAAACMSE0AXFxcSKvV0nfxpdNpefbsmWQyGX0IIbTMqwIALA8SAgAAAAAAAJpOpyNHR0fy+vXrgUF/3fr6uuzu7srz588lmUzqwwghy7Ikn893Pc+sCgAQRyQEAAAAAAAAbjWbTXn9+rXU6/XATPF+DMOQra0t+eabb2Rra4seABFkmmYgGcCqAABxRkIAAAAAAAAsvWq1KoeHh12zxHUkAOLHa6IrIpLJZKRWq7EqAEBskRAAAAAAAABLqV6vS7lc7psEYKY4ACBuvITAj/QBAAAAAACAOLIsS0zTlGw225UMWF9fl1wuJ2/fvpWPHz+SDAAAxBIrBAAAAAAAwFLQa8Z7KBcDAIg7VggAAAAAAICxWZYl29vbUq/X9aHQe/78uX89k8mIbdviuq6cnJyQDAAALAVWCAAAAAAAgJFtbGxIu90WwzDEtm19GAAAhBArBAAAAAAAwNja7baIiDiOow8BAICQIyEAAAAAAADuJMplhAAAWCaJm5sbN5FIyL179/QxAAAAAAAAX7ValXw+7992XVeEMkIAAIQeJYMAAAAAoA9vtnO1WtWHIqVerzNrG1NVLpf965lMxr9OGSEAAKKBFQIAAAAAoDFNU1qtlr5ZksmkvHz5UnK5nD4UOupMbmZtY1oSiYR/3bZtMQyja7u3agAAAIQHKwQAAAAAoI+dnR19k4iItFotyefzkkgkAhfTNEO3mkCdyd3v8QB34SUDAABAdLBCAAAAAAA0juNIPp+fqNROGFYRtNtt2djY8G+rM7mBu+i3EqDfdgAAEA6sEAAAAACAPgzDkFqtJq7r+hfbtmV3d1fftYu3isA0zYkSCtOgrg5IpVIkAzA1/V5L/bYDAIBwISEAAAAAACPolSQYlCjwEgPzTgpUq9VA+aJisRgYx3i8BtPzfh7Dyns96Stg+m0HAADhQskgAAAAAJiSXqWG5t3Qd2NjQ9rttoiIpNNpOT8/13fBiCzLkqdPn0qn05n78zhr9XpdyuWy3zw7mUxKsVjsmdwCAADR55UMIiEAAAAAAFN2cHAg+/v7Irczpo+Pj/VdZkat5U7vgLtRkysS4dr4nU5Hjo6O5PXr134CoJe4JT0AAMBv0EMAAAAAAGakUCj4JYXmmQzQhTEZ0Ol0pFQqiWmakkgkJJFILLTfwiBqMiAMpXBGLV9Ur9cDx3dtbS2wGqAfx3H0TQAAIGZICAAAAABAzHkB4lkH3vVAdK9Lr+B0q9WS58+fy89+9rOZ3r9xqH0YRGShiR1PNpuVi4sLyefz/jbLsrqOeTabHRr8FxHJZDKyvr4euD0royYzAADAbFEyCAAAAABiolqtBoLFvUy7LIxlWZLP50cKQI9i2vdvUmq5oEwmIycnJ/ouc6U/t175ItM0Rzr2/XoElEolKZfLsrOzIycnJzNbVeIdz7A8vwAALJtAyaAffvhBHwcAAAAAREyxWNQ3dXEcRw4ODvTNExt1NroqmUxKrVYT13WlUqkExsJStkYtF1Sr1QJji1Aul/3r6kz+58+f+9dVmUxGbNv2S1d9/PgxkAzwVha8fv1aarWaNBqNmSUDRDmeYXl+AQBYVombmxv38+fPcv/+fX0MAAAAABAR+gxyXTKZ9AP305ylvbKyEgjyZjIZqdVqYwWX1UbIYZiN3263ZWNjw78dhmbC6jGaRrNodQXENF8P/aj3PwzHEwCAZUNTYQAAAACIgU6nI3t7e13JgHQ6HZgh/v79ez+IPM1VAuqqhFwud+eyM2GYjX94eOhfT6VSgbEwuMvx9agrIJi1DwDA8iAhAAAAAAARVa1WxTRNOTo6Cmx/9OiRnJ+fBwLHhmFILpfzb6slaO6iUCj4SYdJGu/qzXuHNRb2St3MqkFyu90O3KdRyjBhdmhGDADAdFEyCAAAAAAiptPpSLlc7koEePqVlHEcR9bW1vwZ4ZVKRQqFgr7b3LTbbTFNs2uG+qASNrMudbO3t+cf11QqJdfX1/ouCzHtkjvq75Mp/c5BJr3/NCMGAGA6KBkEAAAAABHUa1VAMpkM7NMrGSAzXCUwqcPDQz8Z8Hf+zt/xt6vNb3VqqZtB+03q9PTUv87qgMWbZTNib7VJIpHwL6Zpdq1aWTRWSSBuep17o1zCeH4CUcQKAQAAAACIiFKp1BXET6fT0mg0ZGVlxd82aAa24zgj7ztL+uqARqMhOzs7+m5d1CbG077vFxcXsr29LXKbZPn48aO+y0LMosmx3gx6Gr9zkElXCEz6c6MwTdNvtD2KZDIpxWJxJomoQdRVEq9evQok9YAoGvfc62VR5yMQZawQAAAAAIAI0ZMByWRSarVaV6+AYfR9FzXrWF0dkEqlRkoGiDJrfxZB0Tdv3vjXM5lMYGyRZtHkmNUPIs+fP9c3DdRqtbqad89Dp9MRuU3m5fP5qTUEBxZl3HOvl0Wdj0AckBAAAAAAgAUYpwyIngxIp9Py/v37iWdGqkmBRQRU7tK412tiPEkD42HOzs786z//+c8DY4s0izJG6+vrgdujvA7jRm2I7bqu2LY99JyaRemiYfTnXF8lBESNfu6Ncul1fi7ifATigIQAAAAAACxANpuVi4uLoQH5XsmARqPRNdN/HGqAcREBlUlXB8zSxcWFX68+mUzK5uamvsvCqH0T7nKs6vW6X7c7m80Gxoa9DpeBYRhSq9W6ApGu60qlUhGZ0cqUYQqFQqBRuOM4UiqV9N2AWPPOTz1BBmB8JAQAAAAAYAHUZqn9gnuzSAbIbYBxUe6yOmCWwlouaBzDGnVms9m+dbv1mbcImuXKlFH0agje730jzMZZGQXo9M/EqL5XA4tGU2EAAAAAWAC1WarcBsbVAJ8e+BiWDBi3+eosm/MOsre3J0dHRyK3qwOur6/1XeZOb3B8eXkZmhUC4zQUvkujzkG/dxrGfX3KmI99GTiOI0+ePBHLsvxt+vtGWFmWJfl8Xv7qr/5K/uZv/kYMwxDbtvXdgL6q1WpgJdOwz0QA3QJNhb/44gt9HAAAAAAwR+Vy2W8WOm4yYBKzbM47yCzq4d+VXsIoLMkAGbOh8CiNOjOZjNi2LTc3N/pQ6Izz2JeBYRjSaDQknU7729T3jVnzZverK3yG8cpUPX78WFqtlvzN3/yNyIJKlSG62u227O3t+bdn8ZkILJPEzc2Nm0gk5N69e/oYAAAAAGBG1Bn6HsMwZH19PTDLe9TAxyQzsBchjPdzY2PDL+HUaDTuVKd/2mZ13+a9UmOS531Wjz3q9JUC85ptr69ASSaT8vLly55JxXq9LuVyeeCKlVFfB5iuer0ur1+/lmfPnvmlwtTnK5lMSrFYDE0ZsU6nI/l83k8mp1Ipuby8HPqZCKCbt0KAhAAAAAAALMDBwYHs7+/rmwNGTQbIhAHXedNLPoTlfob52M3qvs072D7J45jkZ5aF4ziytrbmJxXHLR1kWZYcHh4GgsLDqEmku8pkMnJycqJvxoyp78G//du/LX/v7/29nkmbeSWZhqlWq7K/vy+dTsffNo/3KyCuAiWDAAAAAAB345XGME1zpIaZhUJBKpWKvtmXyWRGTgaMU8JjkWgGGR5eMkBEQhlci8prelHu2mQ4m83KxcVFIEE3TKVSGTl5oPLKVKlqtVrgNuZDbSj///7f/+uZDJCQNBkvlUqSz+cDyYB0Oh3K9ysgakgIAAAAAIDGq5U9SmC/0+nI3t6eZLNZabVa0mq1Rg6yFQoFcV03kBjwgmcnJycjJQMkIoH2arUaCEITEFxeo5xXUXhNL1qlUpm4n4B3LuplywYxDENqtZq4riu2bQ8NGg96L9Nvx9U4nyWzVK/X5Sc/+Yl8+vRJH/J5z5frunJ8fKwPz5XeRyeZTEqtVpPz8/PAfgAmQ8kgAAAAANB45VQGlU3odDpydHQkv/jFLwIzGOW2Ue88AypqPwLbtkMZbFNL1IStXEiYS9PM6r71+r2WZfnJrGnXEFdfo4ZhyPHx8cDfr96/sL6mw2DSfgK9nv9ZW8TfXLRRPktmwft8ev36dd9VAGHrFSB9ek+MUzoPwGD0EAAAAACAPgYFrgYlAhYVuPD6Ecw7ETGOMAd4Bz3fizar+6b/3nq9Lnt7e/5retoBTL1nxrDfr98/9Oc4jqysrPi3Rzleizi+i/ibizboMU/Sx0HlJfD6BfwH+f7772V1dVXfvFB6jxlZ4GcqEFckBAAAAACgD3U28yjCONMybAYFxhZtGe+b+nuTyWRXUHEWySU1KTDo97fbbdnY2PBvT/Nxx9U4rxM98Dps/2kZ5z7GwbDjfNfVA6Zpdp23owjbCq1+iY1MJiO1Wo1kADBFXkKAHgIAAAAAoFGbdQ7i1TX++PEjyYAh1KDOqHXOMZta63rzWT0QNyhYfxdezwx3SI3yw8ND/3oqlQqM4e7ozzAfg46z2lNlnOSz6vnz5/qmAO/zSU9EhKl/i2VZ8vTp0673oH69JwBMBwkBAAAAANBUKpWBAX4SAeNTkyz7+/uSSCTENM2FN9sMu2KxKDJGkmoYvVmnymsqOihYPw+np6f+de/xY3oW0dxb/ZtRV6/XxTTNoe9hg47zoGTBqNQEW6+L9/lUrVYDPxemIHs2m+0qvWcYRt9jCmA6KBkEAAAAAJg5x3FkbW2tazbspOUypmkZSpn0atbpCVtpjmV4PqZpUJJHtJJmiyrHtLe3J0dHRyIi8v/9f/+f/LN/9s/k9evXIjNoYD0tg84ZVb/3sEGvY3Xs+Ph4agm/XsLc0H1Qeb5kMikvX76c6bEBlg09BAAAAAAAc6U3lpUZlqcZhxqUur6+jlWZmk6nI+Vy2Q/G6vRA5aItKmAtSi1zCXGQ2jNqsFqVTCbl7//9vy9/9md/JnJbjun6+lrfbSbu3bsn/+t//S99s8iAgPq8TXJMPb1ep+r7ij6ujs368avJh7A1dO/1mdALyQFgOgI9BH744Qd9HAAAAACAqepV4mLRyQARkZ2dHf/6oJnWUXN2diamafZNBoQx8bHI/gHZbFZarZa0Wq1AM1gZo0zMLKn3wbuv42i1WvKf//N/9m9PoxyTZVmyvb3d93h497lfMkBEFpJ4sSzLP5beZZxjOkqZn0HlvtRjP8/H75XjGfSczZP+mWDbds/j4Z2T3vmnl0ECMJ7Ezc2N+/nzZ7l//74+BgAAAABA7DWbTXn48KF/W5/NG0Ves061Pnc6nZarqyt/W6PRCCRDwkAtbzLv+zeofIlu1rO6VcNWeXh6lYMZNAN7Gq9z9fkah1rGaBFM0xwp+D+onNagkkBhUa1WA8mtFy9e+K+jeb6Gx+U4juTz+YFJi1wuJ8ViUdbX1/UhAH0EVggAAAAAwLJQZ9ky2xCygJno86A366zVavLo0aPAtnkG20elBpfnff/GmTE/r0B2tVoduMrDk06nuxrXijIDu1KpBLZP6zWvN4Qd5ic/+Ym4SsPbRXn+/Lm+SURprO3NWD85OemZDJgkCTILw1Zo6Cue1NfRvM+vcRiGIbVabeCqAe/cODg40IcADEFCAAAAAMBS8BIBelkIrxQBQYXlpgb9SqVSYKyXMJXd0FWr1UDAMpfLieM4geDgKCVPlk2hUOgbfBQtWDyPUlelUkny+XzXKo+bm5vA85dKpaTRaPQMXHsKhUJgJvU4yY9BRvk9v/u7v+tf/xf/4l8ExhZFL1UzLAGgW2RpK1U2m5WLi4u+Ja76JS76JZDCSE8OqIkMx3Fkf39/pPdsAL9BySAAAAAAsaeXTeglzOUTMHt7e3uB2bPFYrFnkElvPBrG141axmVra0uePXsme3t7fmA5nU4PDSAvwiIbCodJrxJBXokdLwCqJglGLa20qBI36uvx8vJSNjc39V0iZ5GlrVTjlLmSEJRqmpazszMpl8vSbDb9bTQeBoajZBAAAACApaGXTfBm+tq27QdFHcdhlcASq1Qqkk6n/dvlcrmrnFSpVOpaYbKoQOAgarD44uKiq3xQGJMBEqJZ14vUqxF0Op2W9+/f+6uZ9BUDYXwNqtRZ6nFIBrTb7YWWtlKNE/y2bXvhpZqmZWdnRy4vLwPv2az2A0ZHQgAAAABArJVKpUDwxrZtvyyEYRiBgIqeOMDyMAxDGo1GzwCT129Cf314DUfDZlAZl1wuF8pkgIjI6empf33QY4izXgH/Wq0m+/v7gddfMpmUWq0m5+fn/jbMR5gSV5VKpW+AXy8LFtbzflLee7b++PX3aQDdKBkEAAAAILb0UkGZTEZOTk4C+ziOIysrK/7teZbSQPg4jiP5fH5gb4CwltxRHRwcyP7+vn/bS16E+T4vqqRNWOjvV7VarWeJoElef/rvnufxjdvzGpZyQaOI27H3WJYlh4eH8uzZM9nd3eVzHBiRVzKIhAAAAACA2FIDN4OCaHENmmBy/RIDUQisR9Wyn4fq+1Umk5Evv/yya7bzoPexQfTfrSdGZylOz2vU+lyoPQbCfl9HVa/X/Z4oag+XOL3OgFmhhwAAAACAWKtWq4FSQf2CaGqNeMBjGIbUajVxXTdw8cpNYfrU47qMdcDV96uLi4u+JYImef2pKwzCWOYqKsJULmgUXumtcXoNhJnXx8V7PY/TUBnAb5AQAAAAABBLajAtk8n0DaLp+wFYDPp5/IaaHPCaCuu10sehBob7vRdiuKj1uSgUCuK6rhwfH+tDkVGv18U0zZ59XOKS6ADmjZJBAAAAAGJHr5dt23bfIJhaZmDQfgBmy3EcyWazcnp6Kru7u0s3k10t7+KJQ4mqOJVyidNjiYJSqdSVBJA+pbN4boDhAj0EEomE3Lt3T98HAAAAACJpnHrZBBEAhIHaCDoOiQBPnN5j4/RYwq5fMqDfucFzAwxHDwEAAAAAsaWW2xg0y9iyLH0TACyEV96FXhXhRL+Z+dGTAel0Wmzb7ntulEqlwG0Ag5EQAAAAABBreuBAlc1m9U0AAHSh38zsef0C9GSAXh5IVa1WeW6AMZEQAAAAALC0Op2Ofz3MzQkty5Lt7W2p1+v6EABgDkZdeYbJlEolyWaz0mq1/G3DkgHtdlv29vb82+l0mucGGAEJAQAAAABLq1gsitwmA46Pj/Xh0Mhms3JxcSH5fJ6kAIBYi0ICtF+AGpPRSwTJ7Uz/QckAuV214TXiTqVSQ/cH8GskBAAAAAAsLa9md5iTAaKsZHAcR/L5vD4MhI5lWWKapiQSicDFNM2Z12Lv97fV+xDmYPOyUxOgYReF5EXY6ckAr19Ar14Bnk6nI3t7e4H3kmKx2Hd/AEEkBAAAAADEjhoUODg4CIxFkbeSQW6TAlg+UQs85vP5QOkPT6vVknw+P9MEQb+/7Wm1WpLNZkkOhFC1WvVL84TtvU79XCmVSmJZljx9+jQyyYsw0uv/DysRJLc/Y5qmHB0d+dvS6bTs7OwE9gPQHwkBAAAAALGj9gMol8uRD/gVCgV9E5ZIFAOPz58/1zf15CUIppm4G/Vvi/L3p52UwPj0evBhaw6rf648fvw4sHoL4xsnGeCtCsjn84H+P97PARgdCQEAAAAAsVOpVPygQlzK7MRt1UPYhWlGfjabjVzg0SvHpV5s25bd3V19VxEtMHhXvf62d6lUKvru/ntEqVTShzBHh4eHgXrwYWsOW6lUJJ1O65tFQt6UPszURs29kgH1et0v/7W2thZYFZBMJqVWq8n5+XnXzwEYjIQAAAAAgNgxDKOrzE7Ug+j67FTMVpjqmKtBsygHHg3DkFqtFkgQeOaV6FCTBXpyoFwuR/59Ioz0Ujv9nJ6e+tfDWA/eMAxpNBpdSa2wN6WPCvX59lYDZLPZnuW/0um0vH//vuu5ADCaxM3NjZtIJOTevXv6GAAAAABE2t7enj+j0DCMQAAyahzHkZWVFf+267qBcUxXIpHwry/yWOsNNxd5X6apXq9LuVwOBPsW8dgcx5EnT56IZVkiMXifCCP1fVhuZ9rrZdDi+jrHYCsrK2MlA5PJpBSLRRIBwIRs25ZPnz6xQgAAAABAfOmlg6I8+3fWs2XDVCInbLwGuL0us2xKqzfcDFtN9UlVq9Wumb+LemzerG/POMFJjEYvtaOvcNKTAYt6LWD+RlnxlE6nxbZtcV1XPn78OFIygM8zYLDEzc2N+/nzZ7l//74+BgAAAACRt6hVApZl+eVmpjWjcZaz1jc2NvzSNFGfhWlZlhweHsqzZ88mfgzqsR5mVq8r9TkZ1nAzKur1uuzt7QWagmYyGanVagt9bLM8t/DrRMva2trQhEtcXucYjde/o1fg/i6fQ95756zem4Go8lYIkBAAAAAAEGt6qZ1arTZRgGFUvUqhTCsoMcugpV66YVr3eRGmEQwaJyEwqxri6n2wbfvOQVIvSdWrJrfcBuBevnw50qzdcfU6L2RKj2saZnlu4df00kE6kgGYFvXzjPMZ+A1KBgEAAABYCoZhBAJMs2oSW6/XxTTNrlIoIjLTBMS0qE2YJSL3uR9vVv2w2cijyuVyfiPaXpdZJAN00wiSDkoGiIi0Wi3J5/N+KaRqtarvMpFSqdTzvMjlclN5XHc1rceJwSqVSt/3lUwmQzJgDJZliWmaMy1ZFmXe59kskptAHLBCAAAAAEDsHRwcyP7+vn97WjMGh824linPHmcW82imcZym8TvuwrIsefz4sX97GvdBPw9G0asB7Dj0+vASkhJBKrU0UyaTkZOTE30XIFTU1+yoK6G8VToyxTJ2AKKFFQIAAAAAlsbq6qq+aSp6zXqW26Ci1wRxWskALJdsNqtvurNCoSCu68r6+rrIbSDRW+Vg23bPAKEezB+VN4NZ/XmvOejJyUlokgHVatUPrMptSTEg7NQeHI7j9F3R461cSyQS/ueVtxIIwPJihQAAAACA2JvVDGC97v6sZz4vetZ6VEzjOE3jd9yF+venucpERnhset+NXvsMo55zEuL68LN6bwBmaZLVPqppv6cAiAZWCAAAAABYCpZlzWwGsFqn2HXdUM18xt2oz+PBwUFgbN7mHbibxmtYPefCWh+e1QGIqkKhIJVKRd88lLd6bd7vKQDChYQAAAAAgFjTS69MMyjplWCJcnDFsizZ3t7uWW5imanNKCctmzMtiUTCv/QrDTJNpVJJ3zQ29Tz78ssvp3reTYv6vGYymVDeR6Af7/OnX7kvj1rCjqQ1ACEhAAAAACDOSqVSYAawGuTFr+Xzebm4uJB8Pi+maUq9Xtd3WUqVSsUPnDmOM5Ug+TR49b9n9VzpTYAzmUxgfFR6QmVeyYxRsToAcWEYhtRqNb8fiH4hCQBAR0IAAAAAQCz1CmzOaia/N8t+FgHaWdvZ2fGv02zyNwzD6ApqL7p0kGoWz5V+zqTT6YkD5ZVKRdLpdGDbrJMZ49DfGwiYAgCWBU2FAQAAAMROr8DmLGuYe41JDcMQ27b14amoVquBAPAkjV57cRxH8vm8H6CNQ7PJYU1zR+U4jjx58kQsyxK5TRLM6vnV9XoM+nMlt4H3QqHg3x6F3gy7l2mcM73ur8cwDHn16tXCVu2ox9e27Ts9TgAAosBrKkxCAAAAAEBs1Ot1KZfL0mq1/G3TCGwO0yt4O21e0kFuZzSfnJzou+DWNJ8Px3FkbW3ND6AXi8W5lA8a9Bj29vbk6OhIZMIkhfrzvczinOmXHJgkoTENg44vAABxFEgIJBIJuXfvnr4PAAAAAISOZVmSz+cDQf9+ZhHY7GUewUVmNI9u2s+HHkCfRxB70GNwHEdWVlb6jg/TLzgvt8mmWq02s9fXwcGB7O/v+7cnSWhMw6DjCwBAHJEQAAAAABBJpmmOlAyYdWBTddfgoreyQUTk5cuXPcuo3PVvLJNpH6tFlA5Sy/roCYhZlY+al7smNKZh2q8RAADCzksI0FQYAAAAQKQ8f/5c39TTl19+OZdkwF1YliWmaUo2m5VWq+U3XU0kEpJIJMQ0TalWq/qPYc4Mw5BGo+Hfdhyn5+z6adIbGqv0hrhRE7bzst9z6Z2f6vnYb18AAKKCFQIAAAAAIksvP6JLJpNSLBZld3dXH5qqSWYbW5YlT58+lU6now8NNerfWFbq7PppHiv19856lUC/WfSWZcnjx4/97VEtHzXJOTNNozRW7mXWzzsAALPCCgEAAAAAkVcoFMR1Xf9i27ak02l/3JtxH8ZZ9tlsNpAMyGQyM09cLItisSiizbKfBu/3ym3AfpYMwwgE+k3TlP39fXn69GnXflEzj6bMw6jP5Tg4RwEAUccKAQAAAACx0q9hql6HfZommZGu/szW1pa8ffs2MN7vccgYfwPTN8+Z7XozY10ul5Pj42N9c6iVSqWukkcnJyeBfeZl2Aoj3SLvKwAAd8UKAQAAAACxZBiG1Go1qVQqge16HfZpmmRGurrvxcVFV51y73G4rht4LOP8DURbpVLpOyM9DsmAdDottVotsM886SuM1Iu+gmDR9xUAgGlhhQAAAACA2HIcR9bW1vyZ+PPqKTAK/b6pqFMeTnr9/lmvEPDoM9mjlgyo1+tSLpel1Wr529LptDQajVCWPOqVuAjrfQUAYFSsEAAAAAAQe4ZhBGbUez0FwsAwjK5ZyJ4wJCwQ5DWBXgR9JnsUkgH1el1M05REIiHZbDYyyYBqtUoyAAAQa6wQAAAAABBrvWrxz7KfAOLDsizJ5/OBYLYnarP0Z2nQcdJlMhmp1WqhDbBvbGxIu90WIRkAAIgZb4UACQEAAAAAS0Ft0GoYhhwfHzMTHwOZptkzyE0yIKjfcVKFPREgt6sD1BVEtm2H+v4CADAOSgYBAAAAWCqVSsUP7nmrBoBBnj9/rm8iGdBDr+Mkt0kA27bFdV05OTkJfXBdLRWUyWRCf38BAJhE4ubmxv38+bPcv39fHwMAAACAWNGbsxaLRSmVSoF9ACwfVgcAAOKOFQIAAAAAlk6hUJAXL174t8vlshwcHAT2AbB8WB0AAFgWrBAAAAAAsFQcx5EnT56IZVkit/0EbNvWdwOwRBKJhH+d1QEAgDhihQAAAACApWQYhjQaDclkMiK3s4EBwEMyAAAQZyQEAAAAACwdwzDk5OREXNeVWq2mDwNYMmoSgDJiAIA4IyEAAAAAAACWWi6X86+r/QQAAIgbeggAAAAAAICl5jiOrKys+Ldd1w2MAwAQdfQQAAAAAAAAuC0ZpJYNKpVKgXEAAOKChAAAAAAAAFh6etkgegkAAOKIkkEAAAAAAGDpOY4jT548EcuyRG5XDdi2re8GAEAkUTIIAAAAAADglmEY0mg0/NJBjuPouwAAEHkkBAAAAAAAAG6TAsViUUQrIQQAQFwkbm5u3EQiIffu3dPHAAAAAAAAAABAxFEyCAAAAAAAAACAJUJCAAAAAAAAAACAJfD/A/4CbKyld9a3AAAAAElFTkSuQmCC;" vertex="1" parent="1">
                    <mxGeometry x="-200" y="550" width="860" height="440.05" as="geometry"/>
                </mxCell>
                <mxCell id="6" value="&lt;b&gt;Media&lt;/b&gt;" style="rounded=0;whiteSpace=wrap;html=1;" vertex="1" parent="1">
                    <mxGeometry x="255" y="440" width="120" height="60" as="geometry"/>
                </mxCell>
                <mxCell id="7" value="&lt;b&gt;page&lt;/b&gt;&lt;div&gt;&lt;b&gt;perpage&lt;/b&gt;&lt;b&gt;&lt;/b&gt;&lt;/div&gt;" style="rounded=0;whiteSpace=wrap;html=1;" vertex="1" parent="1">
                    <mxGeometry x="290" y="223" width="120" height="70" as="geometry"/>
                </mxCell>
                <mxCell id="22" style="edgeStyle=none;html=1;entryX=0;entryY=0.25;entryDx=0;entryDy=0;exitX=1;exitY=0.5;exitDx=0;exitDy=0;" edge="1" parent="1" source="24" target="21">
                    <mxGeometry relative="1" as="geometry">
                        <mxPoint x="370" y="205" as="sourcePoint"/>
                    </mxGeometry>
                </mxCell>
                <mxCell id="17" value="&lt;b&gt;&lt;font style=&quot;font-size: 14px;&quot;&gt;Page(フィールド)&lt;/font&gt;&lt;/b&gt;" style="text;html=1;align=center;verticalAlign=middle;whiteSpace=wrap;rounded=0;" vertex="1" parent="1">
                    <mxGeometry x="260" y="190" width="120" height="30" as="geometry"/>
                </mxCell>
                <mxCell id="19" value="&lt;span style=&quot;font-size: 14px;&quot;&gt;&lt;b&gt;引数&lt;/b&gt;&lt;/span&gt;" style="text;html=1;align=center;verticalAlign=middle;whiteSpace=wrap;rounded=0;" vertex="1" parent="1">
                    <mxGeometry x="297" y="220" width="60" height="30" as="geometry"/>
                </mxCell>
                <mxCell id="21" value="" style="rounded=0;whiteSpace=wrap;html=1;" vertex="1" parent="1">
                    <mxGeometry x="510" y="190" width="260" height="150" as="geometry"/>
                </mxCell>
                <mxCell id="24" value="&lt;b&gt;Page&lt;/b&gt;" style="rounded=0;whiteSpace=wrap;html=1;" vertex="1" parent="1">
                    <mxGeometry x="292.5" y="320" width="120" height="50" as="geometry"/>
                </mxCell>
                <mxCell id="23" value="&lt;span style=&quot;font-size: 14px;&quot;&gt;&lt;b&gt;返り値の型&lt;/b&gt;&lt;/span&gt;" style="text;html=1;align=center;verticalAlign=middle;whiteSpace=wrap;rounded=0;" vertex="1" parent="1">
                    <mxGeometry x="297" y="320" width="73" height="20" as="geometry"/>
                </mxCell>
                <mxCell id="25" value="&lt;b&gt;pageInfo&lt;/b&gt;&lt;div&gt;&lt;b&gt;users&lt;/b&gt;&lt;/div&gt;&lt;div&gt;&lt;b&gt;media(Media型)&lt;/b&gt;&lt;/div&gt;" style="rounded=0;whiteSpace=wrap;html=1;" vertex="1" parent="1">
                    <mxGeometry x="550" y="223" width="120" height="87" as="geometry"/>
                </mxCell>
                <mxCell id="26" value="&lt;span style=&quot;font-size: 14px;&quot;&gt;&lt;b&gt;フィールド&lt;/b&gt;&lt;/span&gt;" style="text;html=1;align=center;verticalAlign=middle;whiteSpace=wrap;rounded=0;" vertex="1" parent="1">
                    <mxGeometry x="550" y="225" width="73" height="20" as="geometry"/>
                </mxCell>
                <mxCell id="27" value="&lt;b&gt;&lt;font style=&quot;font-size: 14px;&quot;&gt;Page(型)&lt;/font&gt;&lt;/b&gt;" style="text;html=1;align=center;verticalAlign=middle;whiteSpace=wrap;rounded=0;" vertex="1" parent="1">
                    <mxGeometry x="510" y="193" width="60" height="30" as="geometry"/>
                </mxCell>
                <mxCell id="28" value="&lt;b&gt;&lt;font style=&quot;font-size: 14px;&quot;&gt;Media(型)&lt;/font&gt;&lt;/b&gt;" style="text;html=1;align=center;verticalAlign=middle;whiteSpace=wrap;rounded=0;" vertex="1" parent="1">
                    <mxGeometry x="510" y="383" width="60" height="30" as="geometry"/>
                </mxCell>
                <mxCell id="30" value="&lt;b&gt;id&lt;/b&gt;&lt;div&gt;&lt;b&gt;idmal&lt;/b&gt;&lt;/div&gt;" style="rounded=0;whiteSpace=wrap;html=1;" vertex="1" parent="1">
                    <mxGeometry x="550" y="413" width="120" height="87" as="geometry"/>
                </mxCell>
                <mxCell id="31" style="edgeStyle=none;html=1;" edge="1" parent="1" source="25" target="29">
                    <mxGeometry relative="1" as="geometry">
                        <mxPoint x="713" y="370" as="sourcePoint"/>
                        <mxPoint x="810" y="270" as="targetPoint"/>
                    </mxGeometry>
                </mxCell>
                <mxCell id="32" value="{&lt;span style=&quot;background-color: transparent;&quot;&gt;&amp;nbsp;id: 15380&lt;/span&gt;&lt;span style=&quot;background-color: transparent;&quot;&gt;}のような形でデータを絞り込みもできる&lt;/span&gt;" style="text;html=1;align=center;verticalAlign=middle;whiteSpace=wrap;rounded=0;" vertex="1" parent="1">
                    <mxGeometry x="790" y="350" width="140" height="30" as="geometry"/>
                </mxCell>
            </root>
        </mxGraphModel>
    </diagram>
</mxfile>